Literata-M2Italic.ufo
<glyph name="dollar" format="2">
	<unicode hex="0024"/>
	<advance width="524"/>
	<outline>
		<contour>
			<point x="272" y="-80" type="line"/>
			<point x="299" y="-80" type="line"/>
			<point x="299" y="-9" type="line"/>
			<point x="408" y="12"/>
			<point x="481" y="89"/>
			<point x="481" y="187" type="curve" smooth="yes"/>
			<point x="481" y="288"/>
			<point x="437" y="341"/>
			<point x="312" y="407" type="curve" smooth="yes"/>
			<point x="308" y="409"/>
			<point x="303" y="412"/>
			<point x="299" y="414" type="curve"/>
			<point x="299" y="722" type="line"/>
			<point x="393" y="723"/>
			<point x="412" y="681"/>
			<point x="380" y="619" type="curve" smooth="yes"/>
			<point x="361" y="582" type="line"/>
			<point x="375" y="568"/>
			<point x="402" y="558"/>
			<point x="426" y="558" type="curve" smooth="yes"/>
			<point x="462" y="558"/>
			<point x="486" y="584"/>
			<point x="486" y="622" type="curve" smooth="yes"/>
			<point x="486" y="693"/>
			<point x="414" y="746"/>
			<point x="299" y="745" type="curve"/>
			<point x="299" y="818" type="line"/>
			<point x="272" y="818" type="line"/>
			<point x="272" y="743" type="line"/>
			<point x="158" y="733"/>
			<point x="79" y="665"/>
			<point x="79" y="551" type="curve" smooth="yes"/>
			<point x="79" y="462"/>
			<point x="127" y="408"/>
			<point x="272" y="331" type="curve"/>
			<point x="272" y="10" type="line"/>
			<point x="177" y="2"/>
			<point x="118" y="38"/>
			<point x="159" y="123" type="curve" smooth="yes"/>
			<point x="175" y="156" type="line"/>
			<point x="159" y="172"/>
			<point x="133" y="182"/>
			<point x="108" y="182" type="curve" smooth="yes"/>
			<point x="71" y="182"/>
			<point x="45" y="152"/>
			<point x="45" y="110" type="curve" smooth="yes"/>
			<point x="45" y="22"/>
			<point x="158" y="-22"/>
			<point x="272" y="-13" type="curve"/>
		</contour>
		<contour>
			<point x="299" y="15" type="curve"/>
			<point x="299" y="316" type="line"/>
			<point x="384" y="265"/>
			<point x="410" y="223"/>
			<point x="410" y="159" type="curve" smooth="yes"/>
			<point x="410" y="84"/>
			<point x="366" y="32"/>
		</contour>
		<contour>
			<point x="272" y="429" type="line"/>
			<point x="177" y="485"/>
			<point x="149" y="530"/>
			<point x="149" y="590" type="curve" smooth="yes"/>
			<point x="149" y="662"/>
			<point x="195" y="711"/>
			<point x="272" y="720" type="curve"/>
		</contour>
	</outline>
</glyph>
<glyph name="percent" format="2">
	<unicode hex="0025"/>
	<advance width="833"/>
	<outline>
		<contour>
			<point x="582" y="597" type="line"/>
			<point x="219" y="-14" type="line"/>
			<point x="245" y="-14" type="line"/>
			<point x="607" y="597" type="line"/>
		</contour>
		<contour>
			<point x="62" y="429" type="curve" smooth="yes"/>
			<point x="62" y="339"/>
			<point x="120" y="274"/>
			<point x="217" y="274" type="curve" smooth="yes"/>
			<point x="304" y="274"/>
			<point x="375" y="333"/>
			<point x="375" y="445" type="curve" smooth="yes"/>
			<point x="375" y="548"/>
			<point x="304" y="597"/>
			<point x="222" y="597" type="curve" smooth="yes"/>
			<point x="141" y="597"/>
			<point x="62" y="553"/>
		</contour>
		<contour>
			<point x="140" y="440" type="curve" smooth="yes"/>
			<point x="140" y="540"/>
			<point x="172" y="579"/>
			<point x="215" y="579" type="curve" smooth="yes"/>
			<point x="265" y="579"/>
			<point x="295" y="533"/>
			<point x="295" y="435" type="curve" smooth="yes"/>
			<point x="295" y="334"/>
			<point x="268" y="292"/>
			<point x="222" y="292" type="curve" smooth="yes"/>
			<point x="171" y="292"/>
			<point x="140" y="345"/>
		</contour>
		<contour>
			<point x="454" y="141" type="curve" smooth="yes"/>
			<point x="454" y="51"/>
			<point x="512" y="-14"/>
			<point x="609" y="-14" type="curve" smooth="yes"/>
			<point x="696" y="-14"/>
			<point x="767" y="45"/>
			<point x="767" y="157" type="curve" smooth="yes"/>
			<point x="767" y="260"/>
			<point x="696" y="309"/>
			<point x="614" y="309" type="curve" smooth="yes"/>
			<point x="533" y="309"/>
			<point x="454" y="265"/>
		</contour>
		<contour>
			<point x="532" y="152" type="curve" smooth="yes"/>
			<point x="532" y="252"/>
			<point x="564" y="291"/>
			<point x="607" y="291" type="curve" smooth="yes"/>
			<point x="657" y="291"/>
			<point x="687" y="245"/>
			<point x="687" y="147" type="curve" smooth="yes"/>
			<point x="687" y="46"/>
			<point x="660" y="4"/>
			<point x="614" y="4" type="curve" smooth="yes"/>
			<point x="563" y="4"/>
			<point x="532" y="57"/>
		</contour>
	</outline>
</glyph>
<glyph name="ampersand" format="2">
	<unicode hex="0026"/>
	<advance width="737"/>
	<outline>
		<contour>
			<point x="313" y="-14" type="curve" smooth="yes"/>
			<point x="480" y="-14"/>
			<point x="594" y="76"/>
			<point x="596" y="203" type="curve" smooth="yes"/>
			<point x="597" y="262"/>
			<point x="563" y="309"/>
			<point x="534" y="336" type="curve" smooth="yes"/>
			<point x="522" y="347" type="line"/>
			<point x="556" y="336"/>
			<point x="594" y="328"/>
			<point x="629" y="328" type="curve" smooth="yes"/>
			<point x="689" y="328"/>
			<point x="730" y="361"/>
			<point x="730" y="409" type="curve" smooth="yes"/>
			<point x="730" y="447"/>
			<point x="707" y="472"/>
			<point x="670" y="472" type="curve" smooth="yes"/>
			<point x="653" y="472"/>
			<point x="635" y="469"/>
			<point x="617" y="459" type="curve"/>
			<point x="632" y="420" type="line" smooth="yes"/>
			<point x="652" y="369"/>
			<point x="628" y="341"/>
			<point x="571" y="353" type="curve" smooth="yes"/>
			<point x="511" y="366" type="line"/>
			<point x="501" y="351" type="line"/>
			<point x="519" y="303"/>
			<point x="522" y="269"/>
			<point x="522" y="223" type="curve" smooth="yes"/>
			<point x="522" y="112"/>
			<point x="460" y="7"/>
			<point x="328" y="7" type="curve" smooth="yes"/>
			<point x="208" y="7"/>
			<point x="179" y="84"/>
			<point x="179" y="175" type="curve" smooth="yes"/>
			<point x="179" y="277"/>
			<point x="242" y="331"/>
			<point x="401" y="359" type="curve"/>
			<point x="398" y="383" type="line"/>
			<point x="370" y="379"/>
			<point x="354" y="377"/>
			<point x="335" y="377" type="curve" smooth="yes"/>
			<point x="231" y="377"/>
			<point x="197" y="421"/>
			<point x="197" y="506" type="curve" smooth="yes"/>
			<point x="197" y="612"/>
			<point x="261" y="694"/>
			<point x="378" y="694" type="curve" smooth="yes"/>
			<point x="473" y="694"/>
			<point x="494" y="647"/>
			<point x="460" y="587" type="curve" smooth="yes"/>
			<point x="439" y="550" type="line"/>
			<point x="458" y="534"/>
			<point x="475" y="524"/>
			<point x="498" y="524" type="curve" smooth="yes"/>
			<point x="532" y="524"/>
			<point x="562" y="549"/>
			<point x="562" y="597" type="curve" smooth="yes"/>
			<point x="562" y="665"/>
			<point x="482" y="715"/>
			<point x="387" y="715" type="curve" smooth="yes"/>
			<point x="225" y="715"/>
			<point x="100" y="618"/>
			<point x="100" y="494" type="curve" smooth="yes"/>
			<point x="100" y="412"/>
			<point x="157" y="363"/>
			<point x="290" y="360" type="curve"/>
			<point x="290" y="356" type="line"/>
			<point x="161" y="329"/>
			<point x="82" y="261"/>
			<point x="82" y="159" type="curve" smooth="yes"/>
			<point x="82" y="38"/>
			<point x="183" y="-14"/>
		</contour>
	</outline>
</glyph>
<glyph name="plus" format="2">
	<unicode hex="002B"/>
	<advance width="582"/>
	<outline>
		<contour>
			<point x="275" y="98" type="line"/>
			<point x="296" y="98" type="line"/>
			<point x="303" y="296" type="line"/>
			<point x="485" y="296" type="line"/>
			<point x="485" y="316" type="line"/>
			<point x="304" y="316" type="line"/>
			<point x="311" y="514" type="line"/>
			<point x="290" y="514" type="line"/>
			<point x="283" y="316" type="line"/>
			<point x="106" y="316" type="line"/>
			<point x="106" y="296" type="line"/>
			<point x="282" y="296" type="line"/>
		</contour>
	</outline>
</glyph>
<glyph name="comma" format="2">
	<unicode hex="002C"/>
	<advance width="327"/>
	<outline>
		<contour>
			<point x="102" y="-168" type="line"/>
			<point x="187" y="-110"/>
			<point x="242" y="-38"/>
			<point x="242" y="33" type="curve" smooth="yes"/>
			<point x="242" y="88"/>
			<point x="216" y="126"/>
			<point x="166" y="126" type="curve" smooth="yes"/>
			<point x="111" y="126"/>
			<point x="80" y="76"/>
			<point x="104" y="18" type="curve"/>
			<point x="149" y="6" type="line" smooth="yes"/>
			<point x="177" y="-2"/>
			<point x="185" y="-16"/>
			<point x="185" y="-34" type="curve" smooth="yes"/>
			<point x="185" y="-66"/>
			<point x="154" y="-108"/>
			<point x="93" y="-155" type="curve"/>
		</contour>
	</outline>
</glyph>
<glyph name="hyphen" format="2">
	<unicode hex="002D"/>
	<advance width="354"/>
	<outline>
		<contour>
			<point x="55" y="329" type="line"/>
			<point x="52" y="247" type="line"/>
			<point x="319" y="247" type="line"/>
			<point x="322" y="329" type="line"/>
		</contour>
	</outline>
</glyph>
<glyph name="three" format="2">
	<unicode hex="0033"/>
	<advance width="535"/>
	<outline>
		<contour>
			<point x="471" y="579" type="curve" smooth="yes"/>
			<point x="471" y="679"/>
			<point x="399" y="745"/>
			<point x="275" y="745" type="curve" smooth="yes"/>
			<point x="161" y="745"/>
			<point x="70" y="682"/>
			<point x="70" y="602" type="curve" smooth="yes"/>
			<point x="70" y="564"/>
			<point x="93" y="541"/>
			<point x="131" y="541" type="curve" smooth="yes"/>
			<point x="157" y="541"/>
			<point x="182" y="557"/>
			<point x="193" y="583" type="curve"/>
			<point x="172" y="607" type="line" smooth="yes"/>
			<point x="118" y="668"/>
			<point x="155" y="722"/>
			<point x="255" y="722" type="curve" smooth="yes"/>
			<point x="340" y="722"/>
			<point x="390" y="666"/>
			<point x="390" y="572" type="curve" smooth="yes"/>
			<point x="390" y="479"/>
			<point x="319" y="402"/>
			<point x="182" y="387" type="curve"/>
			<point x="186" y="362" type="line"/>
			<point x="207" y="366"/>
			<point x="232" y="368"/>
			<point x="257" y="368" type="curve" smooth="yes"/>
			<point x="351" y="368"/>
			<point x="405" y="315"/>
			<point x="405" y="227" type="curve" smooth="yes"/>
			<point x="405" y="102"/>
			<point x="337" y="9"/>
			<point x="212" y="9" type="curve" smooth="yes"/>
			<point x="130" y="9"/>
			<point x="116" y="56"/>
			<point x="147" y="109" type="curve" smooth="yes"/>
			<point x="163" y="136" type="line"/>
			<point x="151" y="155"/>
			<point x="130" y="167"/>
			<point x="108" y="167" type="curve" smooth="yes"/>
			<point x="69" y="167"/>
			<point x="40" y="137"/>
			<point x="40" y="98" type="curve" smooth="yes"/>
			<point x="40" y="31"/>
			<point x="108" y="-14"/>
			<point x="209" y="-14" type="curve" smooth="yes"/>
			<point x="372" y="-14"/>
			<point x="499" y="88"/>
			<point x="499" y="229" type="curve" smooth="yes"/>
			<point x="499" y="330"/>
			<point x="408" y="386"/>
			<point x="298" y="395" type="curve"/>
			<point x="298" y="399" type="line"/>
			<point x="381" y="424"/>
			<point x="471" y="483"/>
		</contour>
	</outline>
</glyph>
<glyph name="four" format="2">
	<unicode hex="0034"/>
	<advance width="568"/>
	<outline>
		<contour>
			<point x="438" y="247" type="line"/>
			<point x="463" y="736" type="line"/>
			<point x="450" y="745" type="line"/>
			<point x="367" y="730" type="line"/>
			<point x="29" y="229" type="line"/>
			<point x="36" y="181" type="line"/>
			<point x="350" y="181" type="line"/>
			<point x="342" y="30" type="line"/>
			<point x="226" y="19" type="line"/>
			<point x="224" y="0" type="line"/>
			<point x="531" y="0" type="line"/>
			<point x="533" y="19" type="line"/>
			<point x="427" y="31" type="line"/>
			<point x="434" y="181" type="line"/>
			<point x="542" y="181" type="line"/>
			<point x="548" y="247" type="line"/>
		</contour>
		<contour>
			<point x="353" y="247" type="line"/>
			<point x="69" y="247" type="line"/>
			<point x="377" y="703" type="line"/>
		</contour>
	</outline>
</glyph>
<glyph name="five" format="2">
	<unicode hex="0035"/>
	<advance width="522"/>
	<outline>
		<contour>
			<point x="397" y="257" type="curve" smooth="yes"/>
			<point x="397" y="134"/>
			<point x="316" y="9"/>
			<point x="203" y="9" type="curve" smooth="yes"/>
			<point x="121" y="9"/>
			<point x="107" y="57"/>
			<point x="138" y="109" type="curve" smooth="yes"/>
			<point x="154" y="136" type="line"/>
			<point x="142" y="155"/>
			<point x="121" y="167"/>
			<point x="99" y="167" type="curve" smooth="yes"/>
			<point x="60" y="167"/>
			<point x="31" y="137"/>
			<point x="31" y="98" type="curve" smooth="yes"/>
			<point x="31" y="31"/>
			<point x="99" y="-14"/>
			<point x="200" y="-14" type="curve" smooth="yes"/>
			<point x="372" y="-14"/>
			<point x="490" y="108"/>
			<point x="490" y="269" type="curve" smooth="yes"/>
			<point x="490" y="390"/>
			<point x="417" y="471"/>
			<point x="294" y="471" type="curve" smooth="yes"/>
			<point x="219" y="471"/>
			<point x="165" y="444"/>
			<point x="128" y="408" type="curve"/>
			<point x="156" y="659" type="line"/>
			<point x="459" y="659" type="line"/>
			<point x="469" y="730" type="line"/>
			<point x="150" y="730" type="line"/>
			<point x="134" y="716" type="line"/>
			<point x="102" y="396" type="line"/>
			<point x="122" y="376" type="line"/>
			<point x="166" y="416"/>
			<point x="213" y="436"/>
			<point x="264" y="436" type="curve" smooth="yes"/>
			<point x="355" y="436"/>
			<point x="397" y="368"/>
		</contour>
	</outline>
</glyph>
<glyph name="less" format="2">
	<unicode hex="003C"/>
	<advance width="582"/>
	<outline>
		<contour>
			<point x="432" y="45" type="line"/>
			<point x="441" y="62" type="line"/>
			<point x="78" y="284" type="line"/>
			<point x="457" y="508" type="line"/>
			<point x="446" y="524" type="line"/>
			<point x="57" y="295" type="line"/>
			<point x="57" y="273" type="line"/>
		</contour>
	</outline>
</glyph>
<glyph name="equal" format="2">
	<unicode hex="003D"/>
	<advance width="582"/>
	<outline>
		<contour>
			<point x="118" y="204" type="line"/>
			<point x="486" y="204" type="line"/>
			<point x="487" y="223" type="line"/>
			<point x="119" y="223" type="line"/>
		</contour>
		<contour>
			<point x="124" y="384" type="line"/>
			<point x="491" y="384" type="line"/>
			<point x="492" y="403" type="line"/>
			<point x="125" y="403" type="line"/>
		</contour>
	</outline>
</glyph>
<glyph name="greater" format="2">
	<unicode hex="003E"/>
	<advance width="582"/>
	<outline>
		<contour>
			<point x="135" y="45" type="line"/>
			<point x="526" y="273" type="line"/>
			<point x="526" y="295" type="line"/>
			<point x="153" y="524" type="line"/>
			<point x="142" y="508" type="line"/>
			<point x="505" y="284" type="line"/>
			<point x="126" y="62" type="line"/>
		</contour>
	</outline>
</glyph>
<glyph name="at" format="2">
	<unicode hex="0040"/>
	<advance width="860"/>
	<outline>
		<contour>
			<point x="426" y="-183" type="curve" smooth="yes"/>
			<point x="527" y="-183"/>
			<point x="609" y="-153"/>
			<point x="669" y="-95" type="curve"/>
			<point x="657" y="-81" type="line"/>
			<point x="600" y="-133"/>
			<point x="526" y="-164"/>
			<point x="430" y="-164" type="curve" smooth="yes"/>
			<point x="235" y="-164"/>
			<point x="91" y="-52"/>
			<point x="91" y="186" type="curve" smooth="yes"/>
			<point x="91" y="398"/>
			<point x="230" y="550"/>
			<point x="456" y="550" type="curve" smooth="yes"/>
			<point x="675" y="550"/>
			<point x="790" y="441"/>
			<point x="790" y="237" type="curve" smooth="yes"/>
			<point x="790" y="79"/>
			<point x="709" y="11"/>
			<point x="635" y="11" type="curve" smooth="yes"/>
			<point x="604" y="11"/>
			<point x="598" y="20"/>
			<point x="600" y="69" type="curve" smooth="yes"/>
			<point x="611" y="388" type="line"/>
			<point x="597" y="394" type="line"/>
			<point x="555" y="368" type="line"/>
			<point x="528" y="383"/>
			<point x="490" y="395"/>
			<point x="457" y="395" type="curve" smooth="yes"/>
			<point x="337" y="395"/>
			<point x="253" y="298"/>
			<point x="253" y="155" type="curve" smooth="yes"/>
			<point x="253" y="62"/>
			<point x="291" y="-11"/>
			<point x="370" y="-11" type="curve" smooth="yes"/>
			<point x="436" y="-11"/>
			<point x="478" y="33"/>
			<point x="509" y="135" type="curve" smooth="yes"/>
			<point x="540" y="238" type="line"/>
			<point x="545" y="237" type="line"/>
			<point x="530" y="83" type="line" smooth="yes"/>
			<point x="525" y="29"/>
			<point x="539" y="-11"/>
			<point x="600" y="-11" type="curve" smooth="yes"/>
			<point x="716" y="-11"/>
			<point x="811" y="67"/>
			<point x="811" y="244" type="curve" smooth="yes"/>
			<point x="811" y="461"/>
			<point x="671" y="568"/>
			<point x="456" y="568" type="curve" smooth="yes"/>
			<point x="212" y="568"/>
			<point x="70" y="401"/>
			<point x="70" y="184" type="curve" smooth="yes"/>
			<point x="70" y="-75"/>
			<point x="241" y="-183"/>
		</contour>
		<contour>
			<point x="399" y="28" type="curve" smooth="yes"/>
			<point x="354" y="28"/>
			<point x="327" y="64"/>
			<point x="327" y="156" type="curve" smooth="yes"/>
			<point x="327" y="319"/>
			<point x="384" y="381"/>
			<point x="464" y="381" type="curve" smooth="yes"/>
			<point x="493" y="381"/>
			<point x="523" y="372"/>
			<point x="556" y="353" type="curve"/>
			<point x="526" y="240" type="line" smooth="yes"/>
			<point x="480" y="66"/>
			<point x="452" y="28"/>
		</contour>
	</outline>
</glyph>
<glyph name="F" format="2">
	<unicode hex="0046"/>
	<advance width="565"/>
	<outline>
		<contour>
			<point x="57" y="18" type="line"/>
			<point x="55" y="0" type="line"/>
			<point x="340" y="0" type="line"/>
			<point x="342" y="18" type="line"/>
			<point x="227" y="30" type="line"/>
			<point x="242" y="347" type="line"/>
			<point x="459" y="347" type="line"/>
			<point x="462" y="370" type="line"/>
			<point x="243" y="370" type="line"/>
			<point x="255" y="707" type="line"/>
			<point x="393" y="707" type="line" smooth="yes"/>
			<point x="455" y="707"/>
			<point x="478" y="691"/>
			<point x="498" y="624" type="curve" smooth="yes"/>
			<point x="518" y="556" type="line"/>
			<point x="536" y="558" type="line"/>
			<point x="520" y="730" type="line"/>
			<point x="88" y="730" type="line"/>
			<point x="86" y="713" type="line"/>
			<point x="168" y="698" type="line"/>
			<point x="141" y="30" type="line"/>
		</contour>
	</outline>
</glyph>
<glyph name="I" format="2">
	<unicode hex="0049"/>
	<advance width="363"/>
	<outline>
		<contour>
			<point x="169" y="698" type="line"/>
			<point x="142" y="30" type="line"/>
			<point x="58" y="18" type="line"/>
			<point x="55" y="0" type="line"/>
			<point x="321" y="0" type="line"/>
			<point x="323" y="18" type="line"/>
			<point x="230" y="30" type="line"/>
			<point x="256" y="698" type="line"/>
			<point x="345" y="713" type="line"/>
			<point x="347" y="730" type="line"/>
			<point x="89" y="730" type="line"/>
			<point x="87" y="713" type="line"/>
		</contour>
	</outline>
	<anchor name="bottom" x="186" y="-30"/>
	<anchor name="top" x="212" y="730"/>
</glyph>
<glyph name="J" format="2">
	<unicode hex="004A"/>
	<advance width="360"/>
	<outline>
		<contour>
			<point x="163" y="698" type="line"/>
			<point x="137" y="59" type="line" smooth="yes"/>
			<point x="132" y="-65"/>
			<point x="118" y="-127"/>
			<point x="46" y="-214" type="curve"/>
			<point x="58" y="-229" type="line"/>
			<point x="183" y="-130"/>
			<point x="220" y="-63"/>
			<point x="225" y="59" type="curve" smooth="yes"/>
			<point x="250" y="698" type="line"/>
			<point x="339" y="713" type="line"/>
			<point x="341" y="730" type="line"/>
			<point x="83" y="730" type="line"/>
			<point x="81" y="713" type="line"/>
		</contour>
	</outline>
	<anchor name="top" x="207" y="730"/>
</glyph>
<glyph name="O" format="2">
	<unicode hex="004F"/>
	<advance width="714"/>
	<outline>
		<contour>
			<point x="63" y="343" type="curve" smooth="yes"/>
			<point x="63" y="114"/>
			<point x="178" y="-14"/>
			<point x="357" y="-14" type="curve" smooth="yes"/>
			<point x="550" y="-14"/>
			<point x="678" y="138"/>
			<point x="678" y="397" type="curve" smooth="yes"/>
			<point x="678" y="622"/>
			<point x="567" y="745"/>
			<point x="390" y="745" type="curve" smooth="yes"/>
			<point x="190" y="745"/>
			<point x="63" y="601"/>
		</contour>
		<contour>
			<point x="158" y="364" type="curve" smooth="yes"/>
			<point x="158" y="622"/>
			<point x="239" y="728"/>
			<point x="376" y="728" type="curve" smooth="yes"/>
			<point x="506" y="728"/>
			<point x="580" y="628"/>
			<point x="580" y="385" type="curve" smooth="yes"/>
			<point x="580" y="112"/>
			<point x="504" y="4"/>
			<point x="370" y="4" type="curve" smooth="yes"/>
			<point x="239" y="4"/>
			<point x="158" y="112"/>
		</contour>
	</outline>
	<anchor name="bottom" x="354" y="-30"/>
	<anchor name="top" x="381" y="730"/>
</glyph>
<glyph name="Z" format="2">
	<unicode hex="005A"/>
	<advance width="588"/>
	<outline>
		<contour>
			<point x="560" y="706" type="line"/>
			<point x="557" y="730" type="line"/>
			<point x="102" y="730" type="line"/>
			<point x="78" y="554" type="line"/>
			<point x="100" y="549" type="line"/>
			<point x="123" y="618" type="line" smooth="yes"/>
			<point x="151" y="702"/>
			<point x="178" y="707"/>
			<point x="229" y="707" type="curve" smooth="yes"/>
			<point x="470" y="707" type="line"/>
			<point x="51" y="21" type="line"/>
			<point x="49" y="0" type="line"/>
			<point x="529" y="0" type="line"/>
			<point x="555" y="171" type="line"/>
			<point x="536" y="171" type="line"/>
			<point x="516" y="106" type="line" smooth="yes"/>
			<point x="496" y="41"/>
			<point x="463" y="23"/>
			<point x="399" y="23" type="curve" smooth="yes"/>
			<point x="140" y="23" type="line"/>
		</contour>
	</outline>
	<anchor name="bottom" x="299" y="-30"/>
	<anchor name="top" x="318" y="730"/>
</glyph>
<glyph name="bracketright" format="2">
	<unicode hex="005D"/>
	<advance width="333"/>
	<outline>
		<contour>
			<point x="164" y="791" type="line"/>
			<point x="129" y="-191" type="line"/>
			<point x="26" y="-200" type="line"/>
			<point x="25" y="-212" type="line"/>
			<point x="210" y="-212" type="line"/>
			<point x="248" y="812" type="line"/>
			<point x="69" y="812" type="line"/>
			<point x="68" y="800" type="line"/>
		</contour>
	</outline>
</glyph>
<glyph name="b" format="2">
	<unicode hex="0062"/>
	<advance width="560"/>
	<outline>
		<contour>
			<point x="274" y="-14" type="curve" smooth="yes"/>
			<point x="415" y="-14"/>
			<point x="513" y="120"/>
			<point x="513" y="308" type="curve" smooth="yes"/>
			<point x="513" y="440"/>
			<point x="463" y="527"/>
			<point x="366" y="527" type="curve" smooth="yes"/>
			<point x="273" y="527"/>
			<point x="226" y="470"/>
			<point x="192" y="326" type="curve" smooth="yes"/>
			<point x="159" y="188" type="line"/>
			<point x="153" y="189" type="line"/>
			<point x="178" y="425" type="line"/>
			<point x="190" y="758" type="line"/>
			<point x="181" y="767" type="line"/>
			<point x="18" y="767" type="line"/>
			<point x="16" y="749" type="line"/>
			<point x="107" y="728" type="line"/>
			<point x="82" y="32" type="line"/>
			<point x="125" y="7"/>
			<point x="210" y="-14"/>
		</contour>
		<contour>
			<point x="330" y="473" type="curve" smooth="yes"/>
			<point x="394" y="473"/>
			<point x="423" y="418"/>
			<point x="423" y="301" type="curve" smooth="yes"/>
			<point x="423" y="113"/>
			<point x="358" y="4"/>
			<point x="265" y="4" type="curve" smooth="yes"/>
			<point x="221" y="4"/>
			<point x="170" y="24"/>
			<point x="145" y="39" type="curve"/>
			<point x="189" y="222" type="line" smooth="yes"/>
			<point x="238" y="427"/>
			<point x="265" y="473"/>
		</contour>
	</outline>
</glyph>
<glyph name="d" format="2">
	<unicode hex="0064"/>
	<advance width="576"/>
	<outline>
		<contour>
			<point x="465" y="58" type="curve" smooth="yes"/>
			<point x="485" y="758" type="line"/>
			<point x="478" y="767" type="line"/>
			<point x="313" y="767" type="line"/>
			<point x="310" y="750" type="line"/>
			<point x="403" y="732" type="line"/>
			<point x="394" y="502" type="line"/>
			<point x="370" y="514"/>
			<point x="322" y="527"/>
			<point x="282" y="527" type="curve" smooth="yes"/>
			<point x="141" y="527"/>
			<point x="47" y="393"/>
			<point x="47" y="206" type="curve" smooth="yes"/>
			<point x="47" y="87"/>
			<point x="91" y="-14"/>
			<point x="198" y="-14" type="curve" smooth="yes"/>
			<point x="303" y="-14"/>
			<point x="338" y="79"/>
			<point x="364" y="189" type="curve" smooth="yes"/>
			<point x="401" y="347" type="line"/>
			<point x="409" y="346" type="line"/>
			<point x="378" y="86" type="line" smooth="yes"/>
			<point x="371" y="29"/>
			<point x="398" y="-14"/>
			<point x="456" y="-14" type="curve" smooth="yes"/>
			<point x="497" y="-14"/>
			<point x="549" y="16"/>
			<point x="571" y="37" type="curve"/>
			<point x="562" y="49" type="line"/>
			<point x="542" y="34"/>
			<point x="515" y="18"/>
			<point x="491" y="18" type="curve" smooth="yes"/>
			<point x="470" y="18"/>
			<point x="464" y="26"/>
		</contour>
		<contour>
			<point x="223" y="47" type="curve" smooth="yes"/>
			<point x="163" y="47"/>
			<point x="137" y="100"/>
			<point x="137" y="211" type="curve" smooth="yes"/>
			<point x="137" y="397"/>
			<point x="196" y="509"/>
			<point x="290" y="509" type="curve" smooth="yes"/>
			<point x="328" y="509"/>
			<point x="369" y="497"/>
			<point x="411" y="474" type="curve"/>
			<point x="366" y="287" type="line" smooth="yes"/>
			<point x="319" y="92"/>
			<point x="290" y="47"/>
		</contour>
	</outline>
	<anchor name="bottom" x="281" y="-30"/>
	<anchor name="top" x="273" y="550"/>
</glyph>
<glyph name="e" format="2">
	<unicode hex="0065"/>
	<advance width="473"/>
	<outline>
		<contour>
			<point x="287" y="527" type="curve" smooth="yes"/>
			<point x="143" y="527"/>
			<point x="47" y="403"/>
			<point x="47" y="225" type="curve" smooth="yes"/>
			<point x="47" y="88"/>
			<point x="116" y="-14"/>
			<point x="245" y="-14" type="curve" smooth="yes"/>
			<point x="344" y="-14"/>
			<point x="406" y="51"/>
			<point x="429" y="80" type="curve"/>
			<point x="419" y="91" type="line"/>
			<point x="366" y="36"/>
			<point x="323" y="12"/>
			<point x="265" y="12" type="curve" smooth="yes"/>
			<point x="182" y="12"/>
			<point x="137" y="74"/>
			<point x="137" y="240" type="curve"/>
			<point x="248" y="267" type="line" smooth="yes"/>
			<point x="333" y="288"/>
			<point x="432" y="304"/>
			<point x="432" y="415" type="curve" smooth="yes"/>
			<point x="432" y="477"/>
			<point x="387" y="527"/>
		</contour>
		<contour>
			<point x="343" y="412" type="curve" smooth="yes"/>
			<point x="343" y="332"/>
			<point x="309" y="300"/>
			<point x="239" y="282" type="curve" smooth="yes"/>
			<point x="137" y="256" type="line"/>
			<point x="144" y="432"/>
			<point x="197" y="510"/>
			<point x="277" y="510" type="curve" smooth="yes"/>
			<point x="326" y="510"/>
			<point x="343" y="475"/>
		</contour>
	</outline>
	<anchor name="bottom" x="251" y="-30"/>
	<anchor name="top" x="270" y="550"/>
</glyph>
<glyph name="f" format="2">
	<unicode hex="0066"/>
	<advance width="374"/>
	<outline>
		<contour>
			<point x="318" y="765" type="curve" smooth="yes"/>
			<point x="377" y="765"/>
			<point x="401" y="725"/>
			<point x="369" y="673" type="curve" smooth="yes"/>
			<point x="351" y="644" type="line"/>
			<point x="363" y="628"/>
			<point x="383" y="613"/>
			<point x="404" y="613" type="curve" smooth="yes"/>
			<point x="439" y="613"/>
			<point x="462" y="641"/>
			<point x="462" y="676" type="curve" smooth="yes"/>
			<point x="462" y="733"/>
			<point x="411" y="782"/>
			<point x="324" y="782" type="curve" smooth="yes"/>
			<point x="197" y="782"/>
			<point x="132" y="683"/>
			<point x="124" y="559" type="curve" smooth="yes"/>
			<point x="121" y="514" type="line"/>
			<point x="40" y="506" type="line"/>
			<point x="37" y="488" type="line"/>
			<point x="121" y="488" type="line"/>
			<point x="99" y="3" type="line" smooth="yes"/>
			<point x="97" y="-40"/>
			<point x="93" y="-98"/>
			<point x="91" y="-134" type="curve" smooth="yes"/>
			<point x="85" y="-202"/>
			<point x="63" y="-201"/>
			<point x="14" y="-161" type="curve" smooth="yes"/>
			<point x="-19" y="-134" type="line"/>
			<point x="-38" y="-150"/>
			<point x="-45" y="-164"/>
			<point x="-45" y="-183" type="curve" smooth="yes"/>
			<point x="-45" y="-210"/>
			<point x="-23" y="-229"/>
			<point x="10" y="-229" type="curve" smooth="yes"/>
			<point x="48" y="-229"/>
			<point x="79" y="-213"/>
			<point x="103" y="-184" type="curve" smooth="yes"/>
			<point x="153" y="-124"/>
			<point x="184" y="8"/>
			<point x="190" y="122" type="curve" smooth="yes"/>
			<point x="208" y="488" type="line"/>
			<point x="349" y="488" type="line"/>
			<point x="350" y="513" type="line"/>
			<point x="208" y="513" type="line"/>
			<point x="213" y="610" type="line" smooth="yes"/>
			<point x="218" y="705"/>
			<point x="248" y="765"/>
		</contour>
	</outline>
</glyph>
<glyph name="i" format="2">
	<unicode hex="0069"/>
	<advance width="298"/>
	<outline>
		<contour>
			<point x="121" y="458" type="curve" smooth="yes"/>
			<point x="93" y="77" type="line" smooth="yes"/>
			<point x="89" y="27"/>
			<point x="107" y="-14"/>
			<point x="168" y="-14" type="curve" smooth="yes"/>
			<point x="226" y="-14"/>
			<point x="270" y="22"/>
			<point x="291" y="43" type="curve"/>
			<point x="281" y="55" type="line"/>
			<point x="256" y="32"/>
			<point x="229" y="16"/>
			<point x="207" y="16" type="curve" smooth="yes"/>
			<point x="185" y="16"/>
			<point x="178" y="29"/>
			<point x="180" y="59" type="curve" smooth="yes"/>
			<point x="205" y="433" type="line" smooth="yes"/>
			<point x="209" y="496"/>
			<point x="185" y="527"/>
			<point x="131" y="527" type="curve" smooth="yes"/>
			<point x="87" y="527"/>
			<point x="40" y="507"/>
			<point x="15" y="492" type="curve"/>
			<point x="20" y="479" type="line"/>
			<point x="48" y="491"/>
			<point x="77" y="499"/>
			<point x="94" y="499" type="curve" smooth="yes"/>
			<point x="115" y="499"/>
			<point x="123" y="489"/>
		</contour>
		<contour>
			<point x="92" y="686" type="curve" smooth="yes"/>
			<point x="92" y="647"/>
			<point x="118" y="620"/>
			<point x="157" y="620" type="curve" smooth="yes"/>
			<point x="195" y="620"/>
			<point x="221" y="648"/>
			<point x="221" y="687" type="curve" smooth="yes"/>
			<point x="221" y="726"/>
			<point x="195" y="753"/>
			<point x="157" y="753" type="curve" smooth="yes"/>
			<point x="118" y="753"/>
			<point x="92" y="725"/>
		</contour>
	</outline>
	<anchor name="bottom" x="164" y="-30"/>
</glyph>
<glyph name="j" format="2">
	<unicode hex="006A"/>
	<advance width="302"/>
	<outline>
		<contour>
			<point x="205" y="122" type="curve" smooth="yes"/>
			<point x="216" y="424" type="line" smooth="yes"/>
			<point x="219" y="493"/>
			<point x="197" y="527"/>
			<point x="143" y="527" type="curve" smooth="yes"/>
			<point x="99" y="527"/>
			<point x="52" y="507"/>
			<point x="27" y="492" type="curve"/>
			<point x="32" y="479" type="line"/>
			<point x="56" y="490"/>
			<point x="82" y="498"/>
			<point x="103" y="498" type="curve" smooth="yes"/>
			<point x="126" y="498"/>
			<point x="133" y="486"/>
			<point x="132" y="458" type="curve" smooth="yes"/>
			<point x="113" y="-29" type="line" smooth="yes"/>
			<point x="111" y="-75"/>
			<point x="109" y="-101"/>
			<point x="106" y="-134" type="curve" smooth="yes"/>
			<point x="100" y="-198"/>
			<point x="76" y="-202"/>
			<point x="32" y="-166" type="curve" smooth="yes"/>
			<point x="-4" y="-137" type="line"/>
			<point x="-19" y="-152"/>
			<point x="-27" y="-168"/>
			<point x="-27" y="-185" type="curve" smooth="yes"/>
			<point x="-27" y="-209"/>
			<point x="-6" y="-229"/>
			<point x="29" y="-229" type="curve" smooth="yes"/>
			<point x="60" y="-229"/>
			<point x="96" y="-213"/>
			<point x="120" y="-184" type="curve" smooth="yes"/>
			<point x="170" y="-124"/>
			<point x="201" y="14"/>
		</contour>
		<contour>
			<point x="97" y="686" type="curve" smooth="yes"/>
			<point x="97" y="647"/>
			<point x="123" y="620"/>
			<point x="162" y="620" type="curve" smooth="yes"/>
			<point x="200" y="620"/>
			<point x="226" y="648"/>
			<point x="226" y="687" type="curve" smooth="yes"/>
			<point x="226" y="726"/>
			<point x="200" y="753"/>
			<point x="162" y="753" type="curve" smooth="yes"/>
			<point x="123" y="753"/>
			<point x="97" y="725"/>
		</contour>
	</outline>
</glyph>
<glyph name="k" format="2">
	<unicode hex="006B"/>
	<advance width="530"/>
	<outline>
		<contour>
			<point x="111" y="728" type="line"/>
			<point x="81" y="0" type="line"/>
			<point x="162" y="0" type="line"/>
			<point x="173" y="262" type="line"/>
			<point x="190" y="266"/>
			<point x="206" y="270"/>
			<point x="223" y="276" type="curve"/>
			<point x="326" y="65" type="line" smooth="yes"/>
			<point x="355" y="6"/>
			<point x="387" y="-14"/>
			<point x="435" y="-14" type="curve" smooth="yes"/>
			<point x="479" y="-14"/>
			<point x="517" y="7"/>
			<point x="537" y="26" type="curve"/>
			<point x="528" y="41" type="line"/>
			<point x="509" y="30"/>
			<point x="492" y="25"/>
			<point x="473" y="25" type="curve" smooth="yes"/>
			<point x="443" y="25"/>
			<point x="430" y="48"/>
			<point x="400" y="105" type="curve" smooth="yes"/>
			<point x="296" y="306" type="line"/>
			<point x="319" y="317"/>
			<point x="342" y="329"/>
			<point x="366" y="344" type="curve" smooth="yes"/>
			<point x="436" y="388"/>
			<point x="461" y="425"/>
			<point x="461" y="463" type="curve" smooth="yes"/>
			<point x="461" y="494"/>
			<point x="442" y="527"/>
			<point x="400" y="527" type="curve" smooth="yes"/>
			<point x="365" y="527"/>
			<point x="340" y="503"/>
			<point x="332" y="461" type="curve"/>
			<point x="360" y="444" type="line" smooth="yes"/>
			<point x="393" y="424"/>
			<point x="382" y="385"/>
			<point x="333" y="354" type="curve" smooth="yes"/>
			<point x="280" y="321"/>
			<point x="230" y="301"/>
			<point x="175" y="289" type="curve"/>
			<point x="194" y="758" type="line"/>
			<point x="185" y="767" type="line"/>
			<point x="22" y="767" type="line"/>
			<point x="20" y="749" type="line"/>
		</contour>
	</outline>
	<anchor name="bottom" x="261" y="-30"/>
	<anchor name="top" x="110" y="761"/>
</glyph>
<glyph name="p" format="2">
	<unicode hex="0070"/>
	<advance width="586"/>
	<outline>
		<contour>
			<point x="121" y="455" type="curve" smooth="yes"/>
			<point x="106" y="57" type="line"/>
			<point x="88" y="-219" type="line"/>
			<point x="95" y="-228" type="line"/>
			<point x="260" y="-224" type="line"/>
			<point x="263" y="-207" type="line"/>
			<point x="170" y="-189" type="line"/>
			<point x="185" y="12" type="line"/>
			<point x="209" y="0"/>
			<point x="260" y="-14"/>
			<point x="300" y="-14" type="curve" smooth="yes"/>
			<point x="441" y="-14"/>
			<point x="539" y="120"/>
			<point x="539" y="307" type="curve" smooth="yes"/>
			<point x="539" y="440"/>
			<point x="491" y="527"/>
			<point x="389" y="527" type="curve" smooth="yes"/>
			<point x="284" y="527"/>
			<point x="245" y="442"/>
			<point x="217" y="324" type="curve" smooth="yes"/>
			<point x="185" y="188" type="line"/>
			<point x="179" y="189" type="line"/>
			<point x="204" y="427" type="line" smooth="yes"/>
			<point x="211" y="494"/>
			<point x="185" y="527"/>
			<point x="132" y="527" type="curve" smooth="yes"/>
			<point x="85" y="527"/>
			<point x="33" y="497"/>
			<point x="11" y="476" type="curve"/>
			<point x="20" y="464" type="line"/>
			<point x="40" y="479"/>
			<point x="67" y="495"/>
			<point x="91" y="495" type="curve" smooth="yes"/>
			<point x="113" y="495"/>
			<point x="122" y="485"/>
		</contour>
		<contour>
			<point x="354" y="473" type="curve" smooth="yes"/>
			<point x="419" y="473"/>
			<point x="449" y="421"/>
			<point x="449" y="307" type="curve" smooth="yes"/>
			<point x="449" y="116"/>
			<point x="386" y="4"/>
			<point x="292" y="4" type="curve" smooth="yes"/>
			<point x="254" y="4"/>
			<point x="213" y="16"/>
			<point x="171" y="39" type="curve"/>
			<point x="222" y="251" type="line" smooth="yes"/>
			<point x="263" y="421"/>
			<point x="292" y="473"/>
		</contour>
	</outline>
</glyph>
<glyph name="r" format="2">
	<unicode hex="0072"/>
	<advance width="463"/>
	<outline>
		<contour>
			<point x="113" y="459" type="curve" smooth="yes"/>
			<point x="94" y="0" type="line"/>
			<point x="168" y="0" type="line"/>
			<point x="177" y="82" type="line" smooth="yes"/>
			<point x="184" y="144"/>
			<point x="200" y="196"/>
			<point x="267" y="363" type="curve" smooth="yes"/>
			<point x="298" y="440"/>
			<point x="316" y="449"/>
			<point x="336" y="449" type="curve" smooth="yes"/>
			<point x="348" y="449"/>
			<point x="357" y="443"/>
			<point x="370" y="428" type="curve" smooth="yes"/>
			<point x="393" y="402" type="line"/>
			<point x="415" y="416"/>
			<point x="430" y="439"/>
			<point x="430" y="467" type="curve" smooth="yes"/>
			<point x="430" y="503"/>
			<point x="405" y="527"/>
			<point x="362" y="527" type="curve" smooth="yes"/>
			<point x="311" y="527"/>
			<point x="285" y="493"/>
			<point x="255" y="409" type="curve" smooth="yes"/>
			<point x="178" y="194" type="line"/>
			<point x="174" y="194" type="line"/>
			<point x="195" y="425" type="line" smooth="yes"/>
			<point x="201" y="492"/>
			<point x="183" y="527"/>
			<point x="126" y="527" type="curve" smooth="yes"/>
			<point x="86" y="527"/>
			<point x="43" y="508"/>
			<point x="18" y="494" type="curve"/>
			<point x="24" y="481" type="line"/>
			<point x="55" y="495"/>
			<point x="74" y="499"/>
			<point x="87" y="499" type="curve" smooth="yes"/>
			<point x="108" y="499"/>
			<point x="114" y="487"/>
		</contour>
	</outline>
	<anchor name="bottom" x="133" y="-30"/>
	<anchor name="top" x="251" y="550"/>
</glyph>
<glyph name="s" format="2">
	<unicode hex="0073"/>
	<advance width="439"/>
	<outline>
		<contour>
			<point x="211" y="4" type="curve" smooth="yes"/>
			<point x="157" y="4"/>
			<point x="135" y="19"/>
			<point x="137" y="56" type="curve" smooth="yes"/>
			<point x="141" y="119" type="line"/>
			<point x="131" y="125"/>
			<point x="113" y="130"/>
			<point x="97" y="130" type="curve" smooth="yes"/>
			<point x="68" y="130"/>
			<point x="41" y="113"/>
			<point x="41" y="79" type="curve" smooth="yes"/>
			<point x="41" y="24"/>
			<point x="107" y="-14"/>
			<point x="201" y="-14" type="curve" smooth="yes"/>
			<point x="320" y="-14"/>
			<point x="392" y="54"/>
			<point x="392" y="146" type="curve" smooth="yes"/>
			<point x="392" y="241"/>
			<point x="327" y="274"/>
			<point x="246" y="311" type="curve" smooth="yes"/>
			<point x="196" y="334"/>
			<point x="142" y="360"/>
			<point x="142" y="421" type="curve" smooth="yes"/>
			<point x="142" y="475"/>
			<point x="176" y="511"/>
			<point x="251" y="511" type="curve" smooth="yes"/>
			<point x="303" y="511"/>
			<point x="322" y="492"/>
			<point x="316" y="460" type="curve" smooth="yes"/>
			<point x="305" y="403" type="line"/>
			<point x="314" y="395"/>
			<point x="329" y="386"/>
			<point x="352" y="386" type="curve" smooth="yes"/>
			<point x="380" y="386"/>
			<point x="400" y="404"/>
			<point x="400" y="431" type="curve" smooth="yes"/>
			<point x="400" y="486"/>
			<point x="335" y="527"/>
			<point x="255" y="527" type="curve" smooth="yes"/>
			<point x="119" y="527"/>
			<point x="75" y="439"/>
			<point x="75" y="381" type="curve" smooth="yes"/>
			<point x="75" y="293"/>
			<point x="147" y="258"/>
			<point x="213" y="231" type="curve" smooth="yes"/>
			<point x="286" y="201"/>
			<point x="329" y="182"/>
			<point x="329" y="116" type="curve" smooth="yes"/>
			<point x="329" y="44"/>
			<point x="277" y="4"/>
		</contour>
	</outline>
	<anchor name="bottom" x="204" y="-30"/>
	<anchor name="top" x="241" y="550"/>
</glyph>
<glyph name="w" format="2">
	<unicode hex="0077"/>
	<advance width="791"/>
	<outline>
		<contour>
			<point x="464" y="508" type="curve"/>
			<point x="383" y="498" type="line"/>
			<point x="388" y="456"/>
			<point x="393" y="411"/>
			<point x="393" y="361" type="curve" smooth="yes"/>
			<point x="393" y="184"/>
			<point x="349" y="9"/>
			<point x="246" y="9" type="curve" smooth="yes"/>
			<point x="184" y="9"/>
			<point x="176" y="50"/>
			<point x="180" y="114" type="curve" smooth="yes"/>
			<point x="199" y="443" type="line" smooth="yes"/>
			<point x="202" y="492"/>
			<point x="181" y="527"/>
			<point x="124" y="527" type="curve" smooth="yes"/>
			<point x="85" y="527"/>
			<point x="34" y="507"/>
			<point x="8" y="494" type="curve"/>
			<point x="14" y="480" type="line"/>
			<point x="44" y="491" type="line" smooth="yes"/>
			<point x="77" y="503"/>
			<point x="115" y="507"/>
			<point x="113" y="464" type="curve" smooth="yes"/>
			<point x="98" y="149" type="line" smooth="yes"/>
			<point x="91" y="4"/>
			<point x="177" y="-14"/>
			<point x="224" y="-14" type="curve" smooth="yes"/>
			<point x="300" y="-14"/>
			<point x="353" y="34"/>
			<point x="384" y="131" type="curve"/>
			<point x="385" y="20"/>
			<point x="435" y="-14"/>
			<point x="510" y="-14" type="curve" smooth="yes"/>
			<point x="688" y="-14"/>
			<point x="731" y="272"/>
			<point x="731" y="430" type="curve" smooth="yes"/>
			<point x="731" y="488"/>
			<point x="713" y="527"/>
			<point x="665" y="527" type="curve" smooth="yes"/>
			<point x="621" y="527"/>
			<point x="603" y="493"/>
			<point x="606" y="452" type="curve"/>
			<point x="659" y="438" type="line" smooth="yes"/>
			<point x="694" y="429"/>
			<point x="702" y="421"/>
			<point x="702" y="360" type="curve" smooth="yes"/>
			<point x="702" y="183"/>
			<point x="627" y="9"/>
			<point x="522" y="9" type="curve" smooth="yes"/>
			<point x="459" y="9"/>
			<point x="442" y="48"/>
			<point x="457" y="164" type="curve" smooth="yes"/>
			<point x="466" y="231"/>
			<point x="475" y="311"/>
			<point x="475" y="385" type="curve" smooth="yes"/>
			<point x="475" y="428"/>
			<point x="472" y="470"/>
		</contour>
	</outline>
	<anchor name="top" x="415" y="550"/>
</glyph>
<glyph name="x" format="2">
	<unicode hex="0078"/>
	<advance width="526"/>
	<outline>
		<contour>
			<point x="296" y="294" type="line"/>
			<point x="217" y="465" type="line" smooth="yes"/>
			<point x="198" y="506"/>
			<point x="180" y="527"/>
			<point x="130" y="527" type="curve" smooth="yes"/>
			<point x="86" y="527"/>
			<point x="39" y="507"/>
			<point x="14" y="492" type="curve"/>
			<point x="19" y="479" type="line"/>
			<point x="35" y="487"/>
			<point x="70" y="499"/>
			<point x="85" y="499" type="curve" smooth="yes"/>
			<point x="100" y="499"/>
			<point x="114" y="494"/>
			<point x="130" y="458" type="curve" smooth="yes"/>
			<point x="223" y="253" type="line"/>
			<point x="120" y="169" type="line" smooth="yes"/>
			<point x="52" y="113"/>
			<point x="32" y="82"/>
			<point x="32" y="44" type="curve" smooth="yes"/>
			<point x="32" y="10"/>
			<point x="51" y="-16"/>
			<point x="85" y="-16" type="curve" smooth="yes"/>
			<point x="113" y="-16"/>
			<point x="133" y="4"/>
			<point x="141" y="31" type="curve"/>
			<point x="105" y="45" type="line" smooth="yes"/>
			<point x="64" y="61"/>
			<point x="61" y="93"/>
			<point x="113" y="135" type="curve" smooth="yes"/>
			<point x="232" y="233" type="line"/>
			<point x="310" y="69" type="line" smooth="yes"/>
			<point x="338" y="10"/>
			<point x="365" y="-11"/>
			<point x="417" y="-11" type="curve" smooth="yes"/>
			<point x="462" y="-11"/>
			<point x="496" y="4"/>
			<point x="523" y="23" type="curve"/>
			<point x="515" y="36" type="line"/>
			<point x="498" y="26"/>
			<point x="478" y="15"/>
			<point x="456" y="15" type="curve" smooth="yes"/>
			<point x="433" y="15"/>
			<point x="419" y="26"/>
			<point x="399" y="69" type="curve" smooth="yes"/>
			<point x="304" y="274" type="line"/>
			<point x="360" y="321" type="line" smooth="yes"/>
			<point x="467" y="411"/>
			<point x="483" y="437"/>
			<point x="483" y="478" type="curve" smooth="yes"/>
			<point x="483" y="503"/>
			<point x="462" y="527"/>
			<point x="431" y="527" type="curve" smooth="yes"/>
			<point x="401" y="527"/>
			<point x="385" y="509"/>
			<point x="378" y="487" type="curve"/>
			<point x="408" y="464" type="line" smooth="yes"/>
			<point x="443" y="437"/>
			<point x="434" y="410"/>
			<point x="373" y="359" type="curve" smooth="yes"/>
		</contour>
	</outline>
</glyph>
<glyph name="y" format="2">
	<unicode hex="0079"/>
	<advance width="523"/>
	<outline>
		<contour>
			<point x="280" y="-57" type="curve" smooth="yes"/>
			<point x="404" y="226" type="line" smooth="yes"/>
			<point x="461" y="357"/>
			<point x="477" y="388"/>
			<point x="477" y="448" type="curve" smooth="yes"/>
			<point x="477" y="488"/>
			<point x="451" y="527"/>
			<point x="410" y="527" type="curve" smooth="yes"/>
			<point x="367" y="527"/>
			<point x="343" y="497"/>
			<point x="350" y="448" type="curve"/>
			<point x="400" y="434" type="line" smooth="yes"/>
			<point x="442" y="422"/>
			<point x="449" y="393"/>
			<point x="425" y="337" type="curve" smooth="yes"/>
			<point x="290" y="22" type="line"/>
			<point x="267" y="22" type="line" smooth="yes"/>
			<point x="248" y="22"/>
			<point x="238" y="31"/>
			<point x="222" y="65" type="curve" smooth="yes"/>
			<point x="197" y="119"/>
			<point x="184" y="243"/>
			<point x="184" y="360" type="curve" smooth="yes"/>
			<point x="184" y="390"/>
			<point x="186" y="420"/>
			<point x="187" y="443" type="curve" smooth="yes"/>
			<point x="190" y="492"/>
			<point x="169" y="527"/>
			<point x="114" y="527" type="curve" smooth="yes"/>
			<point x="73" y="527"/>
			<point x="18" y="506"/>
			<point x="-4" y="494" type="curve"/>
			<point x="2" y="480" type="line"/>
			<point x="23" y="488"/>
			<point x="49" y="499"/>
			<point x="70" y="499" type="curve" smooth="yes"/>
			<point x="90" y="499"/>
			<point x="101" y="490"/>
			<point x="101" y="466" type="curve" smooth="yes"/>
			<point x="101" y="443"/>
			<point x="98" y="375"/>
			<point x="98" y="353" type="curve" smooth="yes"/>
			<point x="98" y="225"/>
			<point x="120" y="115"/>
			<point x="154" y="59" type="curve" smooth="yes"/>
			<point x="178" y="19"/>
			<point x="211" y="0"/>
			<point x="254" y="0" type="curve" smooth="yes"/>
			<point x="281" y="0" type="line"/>
			<point x="250" y="-69" type="line" smooth="yes"/>
			<point x="209" y="-160"/>
			<point x="178" y="-194"/>
			<point x="138" y="-194" type="curve" smooth="yes"/>
			<point x="117" y="-194"/>
			<point x="110" y="-191"/>
			<point x="82" y="-139" type="curve" smooth="yes"/>
			<point x="64" y="-105" type="line"/>
			<point x="29" y="-111"/>
			<point x="12" y="-134"/>
			<point x="12" y="-163" type="curve" smooth="yes"/>
			<point x="12" y="-202"/>
			<point x="47" y="-229"/>
			<point x="100" y="-229" type="curve" smooth="yes"/>
			<point x="198" y="-229"/>
			<point x="239" y="-151"/>
		</contour>
	</outline>
	<anchor name="bottom" x="372" y="-30"/>
	<anchor name="top" x="261" y="550"/>
</glyph>
<glyph name="z" format="2">
	<unicode hex="007A"/>
	<advance width="477"/>
	<outline>
		<contour>
			<point x="80" y="513" type="line"/>
			<point x="69" y="502" type="line"/>
			<point x="55" y="345" type="line"/>
			<point x="73" y="346" type="line"/>
			<point x="94" y="430"/>
			<point x="103" y="445"/>
			<point x="156" y="445" type="curve" smooth="yes"/>
			<point x="386" y="445" type="line"/>
			<point x="37" y="41" type="line"/>
			<point x="72" y="-7" type="line"/>
			<point x="91" y="2"/>
			<point x="112" y="9"/>
			<point x="151" y="9" type="curve" smooth="yes"/>
			<point x="228" y="9"/>
			<point x="321" y="-22"/>
			<point x="412" y="0" type="curve"/>
			<point x="439" y="181" type="line"/>
			<point x="420" y="181" type="line"/>
			<point x="386" y="79"/>
			<point x="375" y="66"/>
			<point x="339" y="66" type="curve" smooth="yes"/>
			<point x="300" y="66"/>
			<point x="221" y="79"/>
			<point x="175" y="79" type="curve" smooth="yes"/>
			<point x="147" y="79"/>
			<point x="112" y="74"/>
			<point x="85" y="56" type="curve"/>
			<point x="447" y="476" type="line"/>
			<point x="435" y="513" type="line"/>
		</contour>
	</outline>
	<anchor name="bottom" x="223" y="-30"/>
	<anchor name="top" x="246" y="550"/>
</glyph>
<glyph name="braceleft" format="2">
	<unicode hex="007B"/>
	<advance width="372"/>
	<outline>
		<contour>
			<point x="82" y="313" type="curve"/>
			<point x="81" y="302" type="line"/>
			<point x="158" y="302"/>
			<point x="162" y="281"/>
			<point x="162" y="205" type="curve" smooth="yes"/>
			<point x="162" y="130"/>
			<point x="128" y="-45"/>
			<point x="128" y="-106" type="curve" smooth="yes"/>
			<point x="128" y="-183"/>
			<point x="170" y="-227"/>
			<point x="250" y="-227" type="curve" smooth="yes"/>
			<point x="275" y="-227"/>
			<point x="300" y="-224"/>
			<point x="322" y="-218" type="curve"/>
			<point x="320" y="-206" type="line"/>
			<point x="306" y="-209"/>
			<point x="288" y="-210"/>
			<point x="272" y="-210" type="curve" smooth="yes"/>
			<point x="228" y="-210"/>
			<point x="209" y="-191"/>
			<point x="209" y="-122" type="curve" smooth="yes"/>
			<point x="209" y="-62"/>
			<point x="241" y="109"/>
			<point x="241" y="174" type="curve" smooth="yes"/>
			<point x="241" y="263"/>
			<point x="213" y="296"/>
			<point x="135" y="309" type="curve"/>
			<point x="213" y="320"/>
			<point x="253" y="355"/>
			<point x="253" y="440" type="curve" smooth="yes"/>
			<point x="253" y="507"/>
			<point x="239" y="657"/>
			<point x="239" y="723" type="curve" smooth="yes"/>
			<point x="239" y="788"/>
			<point x="258" y="806"/>
			<point x="302" y="806" type="curve" smooth="yes"/>
			<point x="316" y="806"/>
			<point x="331" y="804"/>
			<point x="350" y="801" type="curve"/>
			<point x="353" y="813" type="line"/>
			<point x="333" y="818"/>
			<point x="304" y="822"/>
			<point x="282" y="822" type="curve" smooth="yes"/>
			<point x="203" y="822"/>
			<point x="158" y="777"/>
			<point x="158" y="703" type="curve" smooth="yes"/>
			<point x="158" y="638"/>
			<point x="174" y="486"/>
			<point x="174" y="413" type="curve" smooth="yes"/>
			<point x="174" y="348"/>
			<point x="165" y="316"/>
		</contour>
	</outline>
</glyph>
<glyph name="braceright" format="2">
	<unicode hex="007D"/>
	<advance width="372"/>
	<outline>
		<contour>
			<point x="310" y="300" type="curve"/>
			<point x="311" y="311" type="line"/>
			<point x="234" y="311"/>
			<point x="230" y="332"/>
			<point x="230" y="408" type="curve" smooth="yes"/>
			<point x="230" y="478"/>
			<point x="264" y="640"/>
			<point x="264" y="701" type="curve" smooth="yes"/>
			<point x="264" y="778"/>
			<point x="219" y="822"/>
			<point x="139" y="822" type="curve" smooth="yes"/>
			<point x="113" y="822"/>
			<point x="89" y="819"/>
			<point x="67" y="813" type="curve"/>
			<point x="69" y="801" type="line"/>
			<point x="83" y="804"/>
			<point x="101" y="805"/>
			<point x="117" y="805" type="curve" smooth="yes"/>
			<point x="155" y="805"/>
			<point x="183" y="785"/>
			<point x="183" y="716" type="curve" smooth="yes"/>
			<point x="183" y="655"/>
			<point x="151" y="504"/>
			<point x="151" y="439" type="curve" smooth="yes"/>
			<point x="151" y="350"/>
			<point x="179" y="317"/>
			<point x="257" y="304" type="curve"/>
			<point x="179" y="293"/>
			<point x="139" y="258"/>
			<point x="139" y="173" type="curve" smooth="yes"/>
			<point x="139" y="106"/>
			<point x="153" y="-49"/>
			<point x="153" y="-130" type="curve" smooth="yes"/>
			<point x="153" y="-188"/>
			<point x="129" y="-210"/>
			<point x="87" y="-210" type="curve" smooth="yes"/>
			<point x="73" y="-210"/>
			<point x="62" y="-209"/>
			<point x="43" y="-206" type="curve"/>
			<point x="40" y="-218" type="line"/>
			<point x="60" y="-223"/>
			<point x="89" y="-227"/>
			<point x="111" y="-227" type="curve" smooth="yes"/>
			<point x="190" y="-227"/>
			<point x="234" y="-182"/>
			<point x="234" y="-108" type="curve" smooth="yes"/>
			<point x="234" y="-43"/>
			<point x="218" y="129"/>
			<point x="218" y="200" type="curve" smooth="yes"/>
			<point x="218" y="264"/>
			<point x="227" y="297"/>
		</contour>
	</outline>
</glyph>
<glyph name="cent" format="2">
	<unicode hex="00A2"/>
	<advance width="470"/>
	<outline>
		<contour>
			<point x="182" y="-29" type="line"/>
			<point x="208" y="-29" type="line"/>
			<point x="221" y="37" type="line"/>
			<point x="228" y="36"/>
			<point x="237" y="36"/>
			<point x="245" y="36" type="curve" smooth="yes"/>
			<point x="345" y="36"/>
			<point x="406" y="98"/>
			<point x="431" y="130" type="curve"/>
			<point x="421" y="141" type="line"/>
			<point x="373" y="90"/>
			<point x="328" y="62"/>
			<point x="265" y="62" type="curve" smooth="yes"/>
			<point x="251" y="62"/>
			<point x="238" y="64"/>
			<point x="226" y="68" type="curve"/>
			<point x="319" y="551" type="line"/>
			<point x="354" y="535"/>
			<point x="374" y="496"/>
			<point x="346" y="456" type="curve" smooth="yes"/>
			<point x="327" y="429" type="line"/>
			<point x="337" y="409"/>
			<point x="360" y="394"/>
			<point x="384" y="394" type="curve" smooth="yes"/>
			<point x="417" y="394"/>
			<point x="440" y="420"/>
			<point x="440" y="461" type="curve" smooth="yes"/>
			<point x="440" y="522"/>
			<point x="392" y="564"/>
			<point x="323" y="575" type="curve"/>
			<point x="335" y="638" type="line"/>
			<point x="309" y="638" type="line"/>
			<point x="297" y="577" type="line"/>
			<point x="146" y="582"/>
			<point x="49" y="456"/>
			<point x="49" y="275" type="curve" smooth="yes"/>
			<point x="49" y="157"/>
			<point x="100" y="65"/>
			<point x="195" y="42" type="curve"/>
		</contour>
		<contour>
			<point x="203" y="80" type="line"/>
			<point x="160" y="110"/>
			<point x="139" y="178"/>
			<point x="139" y="278" type="curve" smooth="yes"/>
			<point x="139" y="474"/>
			<point x="197" y="567"/>
			<point x="294" y="558" type="curve"/>
		</contour>
	</outline>
</glyph>
<glyph name="yen" format="2">
	<unicode hex="00A5"/>
	<advance width="658"/>
	<outline>
		<contour>
			<point x="202" y="0" type="line"/>
			<point x="468" y="0" type="line"/>
			<point x="470" y="18" type="line"/>
			<point x="377" y="30" type="line"/>
			<point x="386" y="248" type="line"/>
			<point x="579" y="248" type="line"/>
			<point x="581" y="271" type="line"/>
			<point x="386" y="271" type="line"/>
			<point x="388" y="311" type="line"/>
			<point x="423" y="370" type="line"/>
			<point x="583" y="370" type="line"/>
			<point x="585" y="393" type="line"/>
			<point x="436" y="393" type="line"/>
			<point x="618" y="700" type="line"/>
			<point x="697" y="711" type="line"/>
			<point x="700" y="730" type="line"/>
			<point x="497" y="730" type="line"/>
			<point x="494" y="711" type="line"/>
			<point x="590" y="700" type="line"/>
			<point x="378" y="338" type="line"/>
			<point x="375" y="338" type="line"/>
			<point x="190" y="699" type="line"/>
			<point x="277" y="711" type="line"/>
			<point x="280" y="730" type="line"/>
			<point x="24" y="730" type="line"/>
			<point x="21" y="711" type="line"/>
			<point x="98" y="700" type="line"/>
			<point x="258" y="395" type="line"/>
			<point x="106" y="395" type="line"/>
			<point x="102" y="372" type="line"/>
			<point x="270" y="372" type="line"/>
			<point x="300" y="315" type="line"/>
			<point x="298" y="271" type="line"/>
			<point x="101" y="271" type="line"/>
			<point x="97" y="248" type="line"/>
			<point x="297" y="248" type="line"/>
			<point x="289" y="30" type="line"/>
			<point x="205" y="18" type="line"/>
		</contour>
	</outline>
</glyph>
<glyph name="copyright" format="2">
	<unicode hex="00A9"/>
	<advance width="795"/>
	<outline>
		<contour>
			<point x="406" y="-12" type="curve" smooth="yes"/>
			<point x="610" y="-12"/>
			<point x="744" y="123"/>
			<point x="744" y="325" type="curve" smooth="yes"/>
			<point x="744" y="521"/>
			<point x="611" y="647"/>
			<point x="408" y="647" type="curve" smooth="yes"/>
			<point x="224" y="647"/>
			<point x="69" y="522"/>
			<point x="69" y="311" type="curve" smooth="yes"/>
			<point x="69" y="128"/>
			<point x="180" y="-12"/>
		</contour>
		<contour>
			<point x="405" y="106" type="curve" smooth="yes"/>
			<point x="480" y="106"/>
			<point x="528" y="149"/>
			<point x="557" y="187" type="curve"/>
			<point x="545" y="197" type="line"/>
			<point x="505" y="152"/>
			<point x="475" y="131"/>
			<point x="418" y="131" type="curve" smooth="yes"/>
			<point x="340" y="131"/>
			<point x="300" y="211"/>
			<point x="300" y="308" type="curve" smooth="yes"/>
			<point x="300" y="423"/>
			<point x="346" y="504"/>
			<point x="428" y="504" type="curve" smooth="yes"/>
			<point x="491" y="504"/>
			<point x="517" y="468"/>
			<point x="490" y="417" type="curve" smooth="yes"/>
			<point x="480" y="398" type="line"/>
			<point x="490" y="389"/>
			<point x="505" y="381"/>
			<point x="524" y="381" type="curve" smooth="yes"/>
			<point x="546" y="381"/>
			<point x="561" y="397"/>
			<point x="561" y="418" type="curve" smooth="yes"/>
			<point x="561" y="473"/>
			<point x="496" y="521"/>
			<point x="423" y="521" type="curve" smooth="yes"/>
			<point x="317" y="521"/>
			<point x="227" y="447"/>
			<point x="227" y="303" type="curve" smooth="yes"/>
			<point x="227" y="222"/>
			<point x="273" y="106"/>
		</contour>
		<contour>
			<point x="408" y="6" type="curve" smooth="yes"/>
			<point x="196" y="6"/>
			<point x="90" y="131"/>
			<point x="90" y="312" type="curve" smooth="yes"/>
			<point x="90" y="498"/>
			<point x="217" y="629"/>
			<point x="408" y="629" type="curve" smooth="yes"/>
			<point x="594" y="629"/>
			<point x="723" y="517"/>
			<point x="723" y="319" type="curve" smooth="yes"/>
			<point x="723" y="128"/>
			<point x="595" y="6"/>
		</contour>
	</outline>
</glyph>
<glyph name="registered" format="2">
	<unicode hex="00AE"/>
	<advance width="463"/>
	<outline>
		<contour>
			<point x="246" y="401" type="curve" smooth="yes"/>
			<point x="355" y="401"/>
			<point x="430" y="476"/>
			<point x="430" y="583" type="curve" smooth="yes"/>
			<point x="430" y="690"/>
			<point x="358" y="759"/>
			<point x="247" y="759" type="curve" smooth="yes"/>
			<point x="139" y="759"/>
			<point x="63" y="683"/>
			<point x="63" y="576" type="curve" smooth="yes"/>
			<point x="63" y="468"/>
			<point x="133" y="401"/>
		</contour>
		<contour>
			<point x="328" y="465" type="curve" smooth="yes"/>
			<point x="301" y="465"/>
			<point x="289" y="477"/>
			<point x="266" y="535" type="curve" smooth="yes"/>
			<point x="250" y="575"/>
			<point x="248" y="577"/>
			<point x="230" y="580" type="curve"/>
			<point x="232" y="587" type="line"/>
			<point x="235" y="587" type="line" smooth="yes"/>
			<point x="271" y="587"/>
			<point x="289" y="601"/>
			<point x="289" y="644" type="curve" smooth="yes"/>
			<point x="289" y="675"/>
			<point x="273" y="694"/>
			<point x="234" y="694" type="curve" smooth="yes"/>
			<point x="217" y="694" type="line"/>
			<point x="211" y="483" type="line"/>
			<point x="240" y="478" type="line"/>
			<point x="239" y="469" type="line"/>
			<point x="141" y="469" type="line"/>
			<point x="142" y="478" type="line"/>
			<point x="173" y="482" type="line"/>
			<point x="180" y="690" type="line"/>
			<point x="155" y="694" type="line"/>
			<point x="157" y="703" type="line"/>
			<point x="237" y="703" type="line" smooth="yes"/>
			<point x="297" y="703"/>
			<point x="329" y="682"/>
			<point x="329" y="643" type="curve" smooth="yes"/>
			<point x="329" y="612"/>
			<point x="302" y="591"/>
			<point x="263" y="586" type="curve"/>
			<point x="263" y="584" type="line"/>
			<point x="288" y="575"/>
			<point x="295" y="562"/>
			<point x="308" y="531" type="curve" smooth="yes"/>
			<point x="327" y="486"/>
			<point x="332" y="480"/>
			<point x="345" y="480" type="curve" smooth="yes"/>
			<point x="349" y="480"/>
			<point x="355" y="482"/>
			<point x="359" y="484" type="curve"/>
			<point x="362" y="478" type="line"/>
			<point x="353" y="469"/>
			<point x="339" y="465"/>
		</contour>
	</outline>
</glyph>
<glyph name="macron" format="2">
	<unicode hex="00AF"/>
	<advance width="500"/>
	<outline>
		<contour>
			<point x="132" y="705" type="line"/>
			<point x="130" y="644" type="line"/>
			<point x="413" y="644" type="line"/>
			<point x="415" y="705" type="line"/>
		</contour>
	</outline>
	<anchor name="_top" x="268" y="550"/>
</glyph>
<glyph name="degree" format="2">
	<unicode hex="00B0"/>
	<advance width="299"/>
	<outline>
		<contour>
			<point x="157" y="553" type="curve" smooth="yes"/>
			<point x="234" y="553"/>
			<point x="277" y="607"/>
			<point x="277" y="675" type="curve" smooth="yes"/>
			<point x="277" y="738"/>
			<point x="236" y="782"/>
			<point x="166" y="782" type="curve" smooth="yes"/>
			<point x="87" y="782"/>
			<point x="47" y="726"/>
			<point x="47" y="663" type="curve" smooth="yes"/>
			<point x="47" y="600"/>
			<point x="83" y="553"/>
		</contour>
		<contour>
			<point x="160" y="583" type="curve" smooth="yes"/>
			<point x="107" y="583"/>
			<point x="80" y="616"/>
			<point x="80" y="663" type="curve" smooth="yes"/>
			<point x="80" y="717"/>
			<point x="111" y="752"/>
			<point x="162" y="752" type="curve" smooth="yes"/>
			<point x="212" y="752"/>
			<point x="244" y="721"/>
			<point x="244" y="673" type="curve" smooth="yes"/>
			<point x="244" y="620"/>
			<point x="212" y="583"/>
		</contour>
	</outline>
</glyph>
<glyph name="plusminus" format="2">
	<unicode hex="00B1"/>
	<advance width="582"/>
	<outline>
		<contour>
			<point x="272" y="141" type="line"/>
			<point x="293" y="141" type="line"/>
			<point x="300" y="327" type="line"/>
			<point x="482" y="327" type="line"/>
			<point x="482" y="347" type="line"/>
			<point x="301" y="347" type="line"/>
			<point x="307" y="521" type="line"/>
			<point x="286" y="521" type="line"/>
			<point x="280" y="347" type="line"/>
			<point x="103" y="347" type="line"/>
			<point x="103" y="327" type="line"/>
			<point x="279" y="327" type="line"/>
		</contour>
		<contour>
			<point x="92" y="1" type="line"/>
			<point x="474" y="1" type="line"/>
			<point x="474" y="20" type="line"/>
			<point x="92" y="20" type="line"/>
		</contour>
	</outline>
</glyph>
<glyph name="twosuperior" format="2">
	<unicode hex="00B2"/>
	<advance width="385"/>
	<outline>
		<contour>
			<point x="191" y="820" type="curve" smooth="yes"/>
			<point x="249" y="820"/>
			<point x="284" y="789"/>
			<point x="284" y="716" type="curve" smooth="yes"/>
			<point x="284" y="644"/>
			<point x="253" y="581"/>
			<point x="56" y="408" type="curve"/>
			<point x="55" y="374" type="line"/>
			<point x="357" y="374" type="line"/>
			<point x="370" y="509" type="line"/>
			<point x="354" y="509" type="line"/>
			<point x="332" y="440"/>
			<point x="321" y="434"/>
			<point x="266" y="434" type="curve" smooth="yes"/>
			<point x="116" y="434" type="line"/>
			<point x="310" y="587"/>
			<point x="359" y="654"/>
			<point x="359" y="722" type="curve" smooth="yes"/>
			<point x="359" y="796"/>
			<point x="301" y="837"/>
			<point x="208" y="837" type="curve" smooth="yes"/>
			<point x="113" y="837"/>
			<point x="47" y="795"/>
			<point x="47" y="733" type="curve" smooth="yes"/>
			<point x="47" y="701"/>
			<point x="65" y="680"/>
			<point x="95" y="680" type="curve" smooth="yes"/>
			<point x="115" y="680"/>
			<point x="133" y="689"/>
			<point x="142" y="706" type="curve"/>
			<point x="126" y="728" type="line" smooth="yes"/>
			<point x="99" y="765"/>
			<point x="113" y="820"/>
		</contour>
	</outline>
</glyph>
<glyph name="threesuperior" format="2">
	<unicode hex="00B3"/>
	<advance width="397"/>
	<outline>
		<contour>
			<point x="357" y="738" type="curve" smooth="yes"/>
			<point x="357" y="798"/>
			<point x="298" y="839"/>
			<point x="213" y="839" type="curve" smooth="yes"/>
			<point x="128" y="839"/>
			<point x="68" y="798"/>
			<point x="68" y="745" type="curve" smooth="yes"/>
			<point x="68" y="716"/>
			<point x="86" y="697"/>
			<point x="115" y="697" type="curve" smooth="yes"/>
			<point x="134" y="697"/>
			<point x="153" y="710"/>
			<point x="161" y="727" type="curve"/>
			<point x="147" y="746" type="line" smooth="yes"/>
			<point x="123" y="778"/>
			<point x="139" y="821"/>
			<point x="204" y="821" type="curve" smooth="yes"/>
			<point x="254" y="821"/>
			<point x="290" y="795"/>
			<point x="290" y="733" type="curve" smooth="yes"/>
			<point x="290" y="659"/>
			<point x="238" y="624"/>
			<point x="159" y="615" type="curve"/>
			<point x="161" y="597" type="line"/>
			<point x="176" y="600"/>
			<point x="192" y="602"/>
			<point x="208" y="602" type="curve" smooth="yes"/>
			<point x="270" y="602"/>
			<point x="298" y="573"/>
			<point x="298" y="508" type="curve" smooth="yes"/>
			<point x="298" y="434"/>
			<point x="262" y="381"/>
			<point x="187" y="381" type="curve" smooth="yes"/>
			<point x="132" y="381"/>
			<point x="114" y="410"/>
			<point x="129" y="439" type="curve" smooth="yes"/>
			<point x="141" y="462" type="line"/>
			<point x="130" y="476"/>
			<point x="113" y="487"/>
			<point x="92" y="487" type="curve" smooth="yes"/>
			<point x="67" y="487"/>
			<point x="49" y="471"/>
			<point x="49" y="441" type="curve" smooth="yes"/>
			<point x="49" y="394"/>
			<point x="93" y="362"/>
			<point x="174" y="362" type="curve" smooth="yes"/>
			<point x="287" y="362"/>
			<point x="374" y="424"/>
			<point x="374" y="515" type="curve" smooth="yes"/>
			<point x="374" y="579"/>
			<point x="332" y="618"/>
			<point x="263" y="624" type="curve"/>
			<point x="263" y="628" type="line"/>
			<point x="321" y="651"/>
			<point x="357" y="691"/>
		</contour>
	</outline>
</glyph>
<glyph name="cedilla" format="2">
	<unicode hex="00B8"/>
	<advance width="500"/>
	<outline>
		<contour>
			<point x="262" y="4" type="line"/>
			<point x="242" y="4" type="line"/>
			<point x="208" y="-75" type="line"/>
			<point x="215" y="-86" type="line"/>
			<point x="248" y="-78"/>
			<point x="283" y="-91"/>
			<point x="283" y="-135" type="curve" smooth="yes"/>
			<point x="283" y="-178"/>
			<point x="248" y="-196"/>
			<point x="218" y="-196" type="curve" smooth="yes"/>
			<point x="198" y="-196"/>
			<point x="189" y="-195"/>
			<point x="162" y="-186" type="curve"/>
			<point x="158" y="-195" type="line"/>
			<point x="186" y="-214"/>
			<point x="211" y="-220"/>
			<point x="239" y="-220" type="curve" smooth="yes"/>
			<point x="298" y="-220"/>
			<point x="346" y="-188"/>
			<point x="346" y="-134" type="curve" smooth="yes"/>
			<point x="346" y="-79"/>
			<point x="291" y="-53"/>
			<point x="233" y="-64" type="curve"/>
		</contour>
	</outline>
	<anchor name="_bottom" x="248" y="-30"/>
</glyph>
<glyph name="AE" format="2">
	<unicode hex="00C6"/>
	<advance width="941"/>
	<outline>
		<contour>
			<point x="16" y="0" type="line"/>
			<point x="215" y="0" type="line"/>
			<point x="218" y="19" type="line"/>
			<point x="126" y="30" type="line"/>
			<point x="205" y="263" type="line"/>
			<point x="450" y="263" type="line"/>
			<point x="506" y="31" type="line"/>
			<point x="423" y="19" type="line"/>
			<point x="420" y="0" type="line"/>
			<point x="872" y="0" type="line"/>
			<point x="898" y="171" type="line"/>
			<point x="879" y="171" type="line"/>
			<point x="859" y="106" type="line" smooth="yes"/>
			<point x="839" y="41"/>
			<point x="806" y="23"/>
			<point x="742" y="23" type="curve" smooth="yes"/>
			<point x="606" y="23" type="line"/>
			<point x="519" y="368" type="line"/>
			<point x="747" y="368" type="line"/>
			<point x="748" y="391" type="line"/>
			<point x="513" y="391" type="line"/>
			<point x="433" y="707" type="line"/>
			<point x="646" y="707" type="line" smooth="yes"/>
			<point x="704" y="707"/>
			<point x="730" y="694"/>
			<point x="751" y="624" type="curve" smooth="yes"/>
			<point x="771" y="556" type="line"/>
			<point x="789" y="558" type="line"/>
			<point x="773" y="730" type="line"/>
			<point x="346" y="730" type="line"/>
			<point x="98" y="30" type="line"/>
			<point x="19" y="19" type="line"/>
		</contour>
		<contour>
			<point x="213" y="285" type="line"/>
			<point x="349" y="679" type="line"/>
			<point x="352" y="679" type="line"/>
			<point x="445" y="285" type="line"/>
		</contour>
	</outline>
	<anchor name="top" x="560" y="730"/>
</glyph>
<glyph name="Ccedilla" format="2">
	<unicode hex="00C7"/>
	<advance width="614"/>
	<outline>
		<contour>
			<point x="331" y="-220" type="curve" smooth="yes"/>
			<point x="390" y="-220"/>
			<point x="438" y="-188"/>
			<point x="438" y="-134" type="curve" smooth="yes"/>
			<point x="438" y="-79"/>
			<point x="383" y="-53"/>
			<point x="325" y="-64" type="curve"/>
			<point x="346" y="-14" type="line"/>
			<point x="439" y="-13"/>
			<point x="519" y="31"/>
			<point x="585" y="128" type="curve"/>
			<point x="572" y="139" type="line"/>
			<point x="505" y="57"/>
			<point x="447" y="25"/>
			<point x="362" y="25" type="curve" smooth="yes"/>
			<point x="241" y="25"/>
			<point x="156" y="125"/>
			<point x="157" y="350" type="curve" smooth="yes"/>
			<point x="158" y="608"/>
			<point x="241" y="722"/>
			<point x="377" y="722" type="curve" smooth="yes"/>
			<point x="460" y="722"/>
			<point x="529" y="680"/>
			<point x="493" y="604" type="curve" smooth="yes"/>
			<point x="475" y="566" type="line"/>
			<point x="494" y="550"/>
			<point x="523" y="540"/>
			<point x="545" y="540" type="curve" smooth="yes"/>
			<point x="574" y="540"/>
			<point x="598" y="565"/>
			<point x="598" y="600" type="curve" smooth="yes"/>
			<point x="598" y="688"/>
			<point x="492" y="745"/>
			<point x="379" y="745" type="curve" smooth="yes"/>
			<point x="185" y="745"/>
			<point x="64" y="596"/>
			<point x="63" y="341" type="curve" smooth="yes"/>
			<point x="62" y="126"/>
			<point x="160" y="-5"/>
			<point x="326" y="-14" type="curve"/>
			<point x="300" y="-75" type="line"/>
			<point x="307" y="-86" type="line"/>
			<point x="340" y="-78"/>
			<point x="375" y="-91"/>
			<point x="375" y="-135" type="curve" smooth="yes"/>
			<point x="375" y="-178"/>
			<point x="340" y="-196"/>
			<point x="310" y="-196" type="curve" smooth="yes"/>
			<point x="290" y="-196"/>
			<point x="281" y="-195"/>
			<point x="254" y="-186" type="curve"/>
			<point x="250" y="-195" type="line"/>
			<point x="278" y="-214"/>
			<point x="303" y="-220"/>
		</contour>
	</outline>
</glyph>
<glyph name="Eth" format="2">
	<unicode hex="00D0"/>
	<advance width="718"/>
	<outline>
		<contour>
			<point x="354" y="730" type="curve" smooth="yes"/>
			<point x="88" y="730" type="line"/>
			<point x="86" y="713" type="line"/>
			<point x="168" y="698" type="line"/>
			<point x="155" y="387" type="line"/>
			<point x="45" y="387" type="line"/>
			<point x="43" y="362" type="line"/>
			<point x="154" y="362" type="line"/>
			<point x="141" y="30" type="line"/>
			<point x="57" y="18" type="line"/>
			<point x="55" y="0" type="line"/>
			<point x="266" y="0" type="line" smooth="yes"/>
			<point x="530" y="0"/>
			<point x="683" y="144"/>
			<point x="683" y="407" type="curve" smooth="yes"/>
			<point x="683" y="618"/>
			<point x="564" y="730"/>
		</contour>
		<contour>
			<point x="255" y="23" type="curve" smooth="yes"/>
			<point x="227" y="23" type="line"/>
			<point x="241" y="362" type="line"/>
			<point x="420" y="362" type="line"/>
			<point x="422" y="387" type="line"/>
			<point x="242" y="387" type="line"/>
			<point x="255" y="707" type="line"/>
			<point x="344" y="707" type="line" smooth="yes"/>
			<point x="499" y="707"/>
			<point x="586" y="600"/>
			<point x="586" y="398" type="curve" smooth="yes"/>
			<point x="586" y="151"/>
			<point x="467" y="23"/>
		</contour>
	</outline>
	<anchor name="bottom" x="346" y="-30"/>
	<anchor name="top" x="361" y="730"/>
</glyph>
<glyph name="Thorn" format="2">
	<unicode hex="00DE"/>
	<advance width="597"/>
	<outline>
		<contour>
			<point x="55" y="0" type="line"/>
			<point x="340" y="0" type="line"/>
			<point x="342" y="18" type="line"/>
			<point x="227" y="30" type="line"/>
			<point x="232" y="165" type="line"/>
			<point x="310" y="165" type="line" smooth="yes"/>
			<point x="458" y="165"/>
			<point x="559" y="243"/>
			<point x="558" y="381" type="curve" smooth="yes"/>
			<point x="557" y="497"/>
			<point x="471" y="565"/>
			<point x="304" y="565" type="curve" smooth="yes"/>
			<point x="246" y="565" type="line"/>
			<point x="251" y="699" type="line"/>
			<point x="352" y="712" type="line"/>
			<point x="354" y="730" type="line"/>
			<point x="88" y="730" type="line"/>
			<point x="86" y="713" type="line"/>
			<point x="168" y="698" type="line"/>
			<point x="141" y="30" type="line"/>
			<point x="57" y="18" type="line"/>
		</contour>
		<contour>
			<point x="232" y="185" type="line"/>
			<point x="245" y="542" type="line"/>
			<point x="296" y="542" type="line" smooth="yes"/>
			<point x="384" y="542"/>
			<point x="460" y="513"/>
			<point x="461" y="377" type="curve" smooth="yes"/>
			<point x="462" y="241"/>
			<point x="407" y="185"/>
			<point x="306" y="185" type="curve" smooth="yes"/>
		</contour>
	</outline>
</glyph>
<glyph name="germandbls" format="2">
	<unicode hex="00DF"/>
	<advance width="630"/>
	<outline>
		<contour>
			<point x="406" y="4" type="curve" smooth="yes"/>
			<point x="354" y="4"/>
			<point x="334" y="21"/>
			<point x="337" y="66" type="curve" smooth="yes"/>
			<point x="341" y="119" type="line"/>
			<point x="331" y="125"/>
			<point x="313" y="130"/>
			<point x="297" y="130" type="curve" smooth="yes"/>
			<point x="268" y="130"/>
			<point x="241" y="115"/>
			<point x="241" y="78" type="curve" smooth="yes"/>
			<point x="241" y="23"/>
			<point x="307" y="-14"/>
			<point x="399" y="-14" type="curve" smooth="yes"/>
			<point x="517" y="-14"/>
			<point x="583" y="63"/>
			<point x="583" y="153" type="curve" smooth="yes"/>
			<point x="583" y="305"/>
			<point x="369" y="299"/>
			<point x="369" y="409" type="curve" smooth="yes"/>
			<point x="369" y="516"/>
			<point x="527" y="550"/>
			<point x="527" y="657" type="curve" smooth="yes"/>
			<point x="527" y="742"/>
			<point x="437" y="782"/>
			<point x="349" y="782" type="curve" smooth="yes"/>
			<point x="204" y="782"/>
			<point x="118" y="687"/>
			<point x="113" y="559" type="curve" smooth="yes"/>
			<point x="91" y="23" type="line" smooth="yes"/>
			<point x="89" y="-26"/>
			<point x="82" y="-126"/>
			<point x="79" y="-157" type="curve" smooth="yes"/>
			<point x="75" y="-188"/>
			<point x="52" y="-197"/>
			<point x="18" y="-171" type="curve" smooth="yes"/>
			<point x="-29" y="-134" type="line"/>
			<point x="-48" y="-153"/>
			<point x="-55" y="-164"/>
			<point x="-55" y="-183" type="curve" smooth="yes"/>
			<point x="-55" y="-209"/>
			<point x="-31" y="-229"/>
			<point x="4" y="-229" type="curve" smooth="yes"/>
			<point x="38" y="-229"/>
			<point x="69" y="-213"/>
			<point x="93" y="-184" type="curve" smooth="yes"/>
			<point x="143" y="-124"/>
			<point x="176" y="14"/>
			<point x="180" y="122" type="curve" smooth="yes"/>
			<point x="200" y="602" type="line" smooth="yes"/>
			<point x="204" y="708"/>
			<point x="248" y="765"/>
			<point x="342" y="765" type="curve" smooth="yes"/>
			<point x="400" y="765"/>
			<point x="450" y="737"/>
			<point x="450" y="648" type="curve" smooth="yes"/>
			<point x="450" y="484"/>
			<point x="300" y="490"/>
			<point x="300" y="363" type="curve" smooth="yes"/>
			<point x="300" y="234"/>
			<point x="524" y="241"/>
			<point x="521" y="122" type="curve" smooth="yes"/>
			<point x="519" y="39"/>
			<point x="466" y="4"/>
		</contour>
	</outline>
</glyph>
<glyph name="thorn" format="2">
	<unicode hex="00FE"/>
	<advance width="567"/>
	<outline>
		<contour>
			<point x="76" y="-228" type="line"/>
			<point x="241" y="-224" type="line"/>
			<point x="244" y="-207" type="line"/>
			<point x="151" y="-189" type="line"/>
			<point x="166" y="12" type="line"/>
			<point x="190" y="0"/>
			<point x="241" y="-14"/>
			<point x="281" y="-14" type="curve" smooth="yes"/>
			<point x="422" y="-14"/>
			<point x="520" y="120"/>
			<point x="520" y="307" type="curve" smooth="yes"/>
			<point x="520" y="440"/>
			<point x="472" y="527"/>
			<point x="370" y="527" type="curve" smooth="yes"/>
			<point x="265" y="527"/>
			<point x="226" y="442"/>
			<point x="198" y="324" type="curve" smooth="yes"/>
			<point x="166" y="188" type="line"/>
			<point x="160" y="189" type="line"/>
			<point x="182" y="426" type="line"/>
			<point x="194" y="756" type="line"/>
			<point x="185" y="767" type="line"/>
			<point x="22" y="767" type="line"/>
			<point x="20" y="749" type="line"/>
			<point x="111" y="728" type="line"/>
			<point x="87" y="57" type="line"/>
			<point x="69" y="-219" type="line"/>
		</contour>
		<contour>
			<point x="335" y="473" type="curve" smooth="yes"/>
			<point x="400" y="473"/>
			<point x="430" y="421"/>
			<point x="430" y="307" type="curve" smooth="yes"/>
			<point x="430" y="116"/>
			<point x="367" y="4"/>
			<point x="273" y="4" type="curve" smooth="yes"/>
			<point x="235" y="4"/>
			<point x="194" y="16"/>
			<point x="152" y="39" type="curve"/>
			<point x="203" y="251" type="line" smooth="yes"/>
			<point x="244" y="421"/>
			<point x="273" y="473"/>
		</contour>
	</outline>
</glyph>
<glyph name="Aogonek" format="2">
	<unicode hex="0104"/>
	<advance width="691"/>
	<outline>
		<contour>
			<point x="493" y="-229" type="curve" smooth="yes"/>
			<point x="536" y="-229"/>
			<point x="575" y="-208"/>
			<point x="611" y="-147" type="curve"/>
			<point x="603" y="-142" type="line"/>
			<point x="580" y="-172"/>
			<point x="557" y="-181"/>
			<point x="538" y="-181" type="curve" smooth="yes"/>
			<point x="514" y="-181"/>
			<point x="498" y="-170"/>
			<point x="498" y="-138" type="curve" smooth="yes"/>
			<point x="498" y="-81"/>
			<point x="540" y="-33"/>
			<point x="579" y="0" type="curve"/>
			<point x="686" y="0" type="line"/>
			<point x="689" y="19" type="line"/>
			<point x="606" y="30" type="line"/>
			<point x="426" y="736" type="line"/>
			<point x="344" y="725" type="line"/>
			<point x="98" y="30" type="line"/>
			<point x="19" y="19" type="line"/>
			<point x="16" y="0" type="line"/>
			<point x="215" y="0" type="line"/>
			<point x="218" y="19" type="line"/>
			<point x="126" y="30" type="line"/>
			<point x="205" y="263" type="line"/>
			<point x="450" y="263" type="line"/>
			<point x="506" y="31" type="line"/>
			<point x="423" y="19" type="line"/>
			<point x="420" y="0" type="line"/>
			<point x="551" y="0" type="line"/>
			<point x="476" y="-45"/>
			<point x="419" y="-102"/>
			<point x="419" y="-157" type="curve" smooth="yes"/>
			<point x="419" y="-204"/>
			<point x="450" y="-229"/>
		</contour>
		<contour>
			<point x="213" y="285" type="line"/>
			<point x="349" y="679" type="line"/>
			<point x="352" y="679" type="line"/>
			<point x="445" y="285" type="line"/>
		</contour>
	</outline>
</glyph>
<glyph name="aogonek" format="2">
	<unicode hex="0105"/>
	<advance width="572"/>
	<outline>
		<contour>
			<point x="198" y="-14" type="curve" smooth="yes"/>
			<point x="298" y="-14"/>
			<point x="331" y="71"/>
			<point x="361" y="178" type="curve" smooth="yes"/>
			<point x="388" y="275" type="line"/>
			<point x="393" y="274" type="line"/>
			<point x="378" y="86" type="line" smooth="yes"/>
			<point x="372" y="16"/>
			<point x="411" y="-14"/>
			<point x="476" y="-13" type="curve"/>
			<point x="412" y="-66"/>
			<point x="357" y="-107"/>
			<point x="357" y="-157" type="curve" smooth="yes"/>
			<point x="357" y="-204"/>
			<point x="388" y="-229"/>
			<point x="431" y="-229" type="curve" smooth="yes"/>
			<point x="474" y="-229"/>
			<point x="513" y="-208"/>
			<point x="549" y="-147" type="curve"/>
			<point x="541" y="-142" type="line"/>
			<point x="518" y="-172"/>
			<point x="495" y="-181"/>
			<point x="476" y="-181" type="curve" smooth="yes"/>
			<point x="452" y="-181"/>
			<point x="436" y="-170"/>
			<point x="436" y="-138" type="curve" smooth="yes"/>
			<point x="436" y="-81"/>
			<point x="485" y="-28"/>
			<point x="571" y="37" type="curve"/>
			<point x="562" y="49" type="line"/>
			<point x="542" y="34"/>
			<point x="515" y="18"/>
			<point x="491" y="18" type="curve" smooth="yes"/>
			<point x="469" y="18"/>
			<point x="464" y="28"/>
			<point x="465" y="58" type="curve" smooth="yes"/>
			<point x="480" y="513" type="line"/>
			<point x="471" y="522" type="line"/>
			<point x="406" y="498" type="line"/>
			<point x="382" y="510"/>
			<point x="332" y="527"/>
			<point x="282" y="527" type="curve" smooth="yes"/>
			<point x="141" y="527"/>
			<point x="47" y="393"/>
			<point x="47" y="206" type="curve" smooth="yes"/>
			<point x="47" y="87"/>
			<point x="91" y="-14"/>
		</contour>
		<contour>
			<point x="224" y="44" type="curve" smooth="yes"/>
			<point x="163" y="44"/>
			<point x="137" y="97"/>
			<point x="137" y="211" type="curve" smooth="yes"/>
			<point x="137" y="397"/>
			<point x="196" y="509"/>
			<point x="290" y="509" type="curve" smooth="yes"/>
			<point x="332" y="509"/>
			<point x="369" y="497"/>
			<point x="411" y="474" type="curve"/>
			<point x="363" y="274" type="line" smooth="yes"/>
			<point x="319" y="91"/>
			<point x="290" y="44"/>
		</contour>
	</outline>
</glyph>
<glyph name="Eogonek" format="2">
	<unicode hex="0118"/>
	<advance width="583"/>
	<outline>
		<contour>
			<point x="55" y="0" type="line"/>
			<point x="468" y="0" type="line"/>
			<point x="347" y="-62"/>
			<point x="307" y="-102"/>
			<point x="307" y="-157" type="curve" smooth="yes"/>
			<point x="307" y="-204"/>
			<point x="338" y="-229"/>
			<point x="381" y="-229" type="curve" smooth="yes"/>
			<point x="424" y="-229"/>
			<point x="463" y="-208"/>
			<point x="499" y="-147" type="curve"/>
			<point x="491" y="-142" type="line"/>
			<point x="468" y="-172"/>
			<point x="445" y="-181"/>
			<point x="426" y="-181" type="curve" smooth="yes"/>
			<point x="402" y="-181"/>
			<point x="386" y="-170"/>
			<point x="386" y="-138" type="curve" smooth="yes"/>
			<point x="386" y="-68"/>
			<point x="458" y="-22"/>
			<point x="514" y="0" type="curve"/>
			<point x="540" y="171" type="line"/>
			<point x="521" y="171" type="line"/>
			<point x="501" y="106" type="line" smooth="yes"/>
			<point x="481" y="41"/>
			<point x="448" y="23"/>
			<point x="384" y="23" type="curve" smooth="yes"/>
			<point x="227" y="23" type="line"/>
			<point x="243" y="368" type="line"/>
			<point x="472" y="368" type="line"/>
			<point x="473" y="391" type="line"/>
			<point x="243" y="391" type="line"/>
			<point x="255" y="707" type="line"/>
			<point x="393" y="707" type="line" smooth="yes"/>
			<point x="451" y="707"/>
			<point x="477" y="694"/>
			<point x="498" y="624" type="curve" smooth="yes"/>
			<point x="518" y="556" type="line"/>
			<point x="536" y="558" type="line"/>
			<point x="520" y="730" type="line"/>
			<point x="88" y="730" type="line"/>
			<point x="86" y="713" type="line"/>
			<point x="168" y="698" type="line"/>
			<point x="141" y="30" type="line"/>
			<point x="57" y="18" type="line"/>
		</contour>
	</outline>
</glyph>
<glyph name="idotless" format="2">
	<unicode hex="0131"/>
	<advance width="306"/>
	<outline>
		<contour>
			<point x="125" y="458" type="curve" smooth="yes"/>
			<point x="97" y="77" type="line" smooth="yes"/>
			<point x="93" y="29"/>
			<point x="109" y="-14"/>
			<point x="172" y="-14" type="curve" smooth="yes"/>
			<point x="230" y="-14"/>
			<point x="274" y="22"/>
			<point x="295" y="43" type="curve"/>
			<point x="285" y="55" type="line"/>
			<point x="260" y="32"/>
			<point x="233" y="16"/>
			<point x="211" y="16" type="curve" smooth="yes"/>
			<point x="189" y="16"/>
			<point x="182" y="29"/>
			<point x="184" y="59" type="curve" smooth="yes"/>
			<point x="209" y="433" type="line" smooth="yes"/>
			<point x="213" y="496"/>
			<point x="189" y="527"/>
			<point x="135" y="527" type="curve" smooth="yes"/>
			<point x="91" y="527"/>
			<point x="44" y="507"/>
			<point x="19" y="492" type="curve"/>
			<point x="24" y="479" type="line"/>
			<point x="52" y="491"/>
			<point x="81" y="499"/>
			<point x="98" y="499" type="curve" smooth="yes"/>
			<point x="119" y="499"/>
			<point x="127" y="489"/>
		</contour>
	</outline>
	<anchor name="bottom" x="164" y="-30"/>
	<anchor name="top" x="133" y="550"/>
</glyph>
<glyph name="lslash" format="2">
	<unicode hex="0142"/>
	<advance width="281"/>
	<outline>
		<contour>
			<point x="157" y="-14" type="curve" smooth="yes"/>
			<point x="215" y="-14"/>
			<point x="256" y="22"/>
			<point x="277" y="43" type="curve"/>
			<point x="267" y="55" type="line"/>
			<point x="234" y="26"/>
			<point x="213" y="16"/>
			<point x="191" y="16" type="curve" smooth="yes"/>
			<point x="172" y="16"/>
			<point x="165" y="28"/>
			<point x="166" y="58" type="curve" smooth="yes"/>
			<point x="180" y="412" type="line"/>
			<point x="294" y="477" type="line"/>
			<point x="297" y="507" type="line"/>
			<point x="181" y="441" type="line"/>
			<point x="194" y="758" type="line"/>
			<point x="185" y="767" type="line"/>
			<point x="22" y="767" type="line"/>
			<point x="20" y="749" type="line"/>
			<point x="111" y="728" type="line"/>
			<point x="96" y="403" type="line"/>
			<point x="8" y="356" type="line"/>
			<point x="5" y="326" type="line"/>
			<point x="94" y="374" type="line"/>
			<point x="80" y="77" type="line" smooth="yes"/>
			<point x="77" y="23"/>
			<point x="94" y="-14"/>
		</contour>
	</outline>
</glyph>
<glyph name="OE" format="2">
	<unicode hex="0152"/>
	<advance width="996"/>
	<outline>
		<contour>
			<point x="63" y="343" type="curve" smooth="yes"/>
			<point x="63" y="114"/>
			<point x="178" y="-14"/>
			<point x="357" y="-14" type="curve" smooth="yes"/>
			<point x="391" y="-14"/>
			<point x="423" y="-9"/>
			<point x="453" y="0" type="curve"/>
			<point x="927" y="0" type="line"/>
			<point x="953" y="171" type="line"/>
			<point x="934" y="171" type="line"/>
			<point x="914" y="106" type="line" smooth="yes"/>
			<point x="894" y="41"/>
			<point x="861" y="23"/>
			<point x="797" y="23" type="curve" smooth="yes"/>
			<point x="507" y="23" type="line"/>
			<point x="608" y="80"/>
			<point x="671" y="199"/>
			<point x="677" y="368" type="curve"/>
			<point x="885" y="368" type="line"/>
			<point x="886" y="391" type="line"/>
			<point x="678" y="391" type="line"/>
			<point x="678" y="541"/>
			<point x="633" y="651"/>
			<point x="540" y="707" type="curve"/>
			<point x="806" y="707" type="line" smooth="yes"/>
			<point x="864" y="707"/>
			<point x="890" y="694"/>
			<point x="911" y="624" type="curve" smooth="yes"/>
			<point x="931" y="556" type="line"/>
			<point x="949" y="558" type="line"/>
			<point x="933" y="730" type="line"/>
			<point x="489" y="730" type="line"/>
			<point x="459" y="740"/>
			<point x="426" y="745"/>
			<point x="390" y="745" type="curve" smooth="yes"/>
			<point x="190" y="745"/>
			<point x="63" y="601"/>
		</contour>
		<contour>
			<point x="158" y="364" type="curve" smooth="yes"/>
			<point x="158" y="622"/>
			<point x="239" y="728"/>
			<point x="376" y="728" type="curve" smooth="yes"/>
			<point x="506" y="728"/>
			<point x="580" y="628"/>
			<point x="580" y="385" type="curve" smooth="yes"/>
			<point x="580" y="112"/>
			<point x="504" y="4"/>
			<point x="370" y="4" type="curve" smooth="yes"/>
			<point x="239" y="4"/>
			<point x="158" y="112"/>
		</contour>
	</outline>
</glyph>
<glyph name="oe" format="2">
	<unicode hex="0153"/>
	<advance width="813"/>
	<outline>
		<contour>
			<point x="627" y="527" type="curve" smooth="yes"/>
			<point x="544" y="527"/>
			<point x="483" y="476"/>
			<point x="446" y="407" type="curve"/>
			<point x="420" y="476"/>
			<point x="368" y="527"/>
			<point x="283" y="527" type="curve" smooth="yes"/>
			<point x="112" y="527"/>
			<point x="48" y="390"/>
			<point x="48" y="236" type="curve" smooth="yes"/>
			<point x="48" y="89"/>
			<point x="122" y="-14"/>
			<point x="254" y="-14" type="curve" smooth="yes"/>
			<point x="344" y="-14"/>
			<point x="398" y="35"/>
			<point x="429" y="95" type="curve"/>
			<point x="456" y="34"/>
			<point x="506" y="-14"/>
			<point x="585" y="-14" type="curve" smooth="yes"/>
			<point x="684" y="-14"/>
			<point x="746" y="51"/>
			<point x="769" y="80" type="curve"/>
			<point x="759" y="91" type="line"/>
			<point x="706" y="36"/>
			<point x="663" y="12"/>
			<point x="605" y="12" type="curve" smooth="yes"/>
			<point x="522" y="12"/>
			<point x="477" y="74"/>
			<point x="477" y="240" type="curve"/>
			<point x="588" y="267" type="line" smooth="yes"/>
			<point x="673" y="288"/>
			<point x="772" y="304"/>
			<point x="772" y="415" type="curve" smooth="yes"/>
			<point x="772" y="477"/>
			<point x="727" y="527"/>
		</contour>
		<contour>
			<point x="260" y="5" type="curve" smooth="yes"/>
			<point x="179" y="5"/>
			<point x="143" y="85"/>
			<point x="143" y="236" type="curve" smooth="yes"/>
			<point x="143" y="397"/>
			<point x="172" y="509"/>
			<point x="279" y="509" type="curve" smooth="yes"/>
			<point x="370" y="509"/>
			<point x="397" y="429"/>
			<point x="397" y="280" type="curve" smooth="yes"/>
			<point x="397" y="119"/>
			<point x="367" y="5"/>
		</contour>
		<contour>
			<point x="683" y="412" type="curve" smooth="yes"/>
			<point x="683" y="332"/>
			<point x="649" y="300"/>
			<point x="579" y="282" type="curve" smooth="yes"/>
			<point x="477" y="256" type="line"/>
			<point x="484" y="432"/>
			<point x="537" y="510"/>
			<point x="617" y="510" type="curve" smooth="yes"/>
			<point x="666" y="510"/>
			<point x="683" y="475"/>
		</contour>
	</outline>
</glyph>
<glyph name="Scedilla" format="2">
	<unicode hex="015E"/>
	<advance width="524"/>
	<outline>
		<contour>
			<point x="239" y="-222" type="curve" smooth="yes"/>
			<point x="298" y="-222"/>
			<point x="346" y="-190"/>
			<point x="346" y="-136" type="curve" smooth="yes"/>
			<point x="346" y="-81"/>
			<point x="291" y="-55"/>
			<point x="233" y="-66" type="curve"/>
			<point x="255" y="-14" type="line"/>
			<point x="389" y="-8"/>
			<point x="481" y="77"/>
			<point x="481" y="187" type="curve" smooth="yes"/>
			<point x="481" y="288"/>
			<point x="437" y="341"/>
			<point x="312" y="407" type="curve" smooth="yes"/>
			<point x="185" y="474"/>
			<point x="149" y="522"/>
			<point x="149" y="590" type="curve" smooth="yes"/>
			<point x="149" y="670"/>
			<point x="206" y="722"/>
			<point x="300" y="722" type="curve" smooth="yes"/>
			<point x="393" y="722"/>
			<point x="412" y="681"/>
			<point x="380" y="619" type="curve" smooth="yes"/>
			<point x="361" y="582" type="line"/>
			<point x="375" y="568"/>
			<point x="402" y="558"/>
			<point x="426" y="558" type="curve" smooth="yes"/>
			<point x="462" y="558"/>
			<point x="486" y="584"/>
			<point x="486" y="622" type="curve" smooth="yes"/>
			<point x="486" y="697"/>
			<point x="407" y="745"/>
			<point x="305" y="745" type="curve" smooth="yes"/>
			<point x="173" y="745"/>
			<point x="79" y="676"/>
			<point x="79" y="551" type="curve" smooth="yes"/>
			<point x="79" y="466"/>
			<point x="125" y="409"/>
			<point x="261" y="337" type="curve" smooth="yes"/>
			<point x="377" y="276"/>
			<point x="410" y="232"/>
			<point x="410" y="159" type="curve" smooth="yes"/>
			<point x="410" y="66"/>
			<point x="343" y="9"/>
			<point x="248" y="9" type="curve" smooth="yes"/>
			<point x="160" y="9"/>
			<point x="124" y="51"/>
			<point x="159" y="123" type="curve" smooth="yes"/>
			<point x="175" y="156" type="line"/>
			<point x="159" y="172"/>
			<point x="133" y="182"/>
			<point x="108" y="182" type="curve" smooth="yes"/>
			<point x="71" y="182"/>
			<point x="45" y="152"/>
			<point x="45" y="110" type="curve" smooth="yes"/>
			<point x="45" y="36"/>
			<point x="127" y="-12"/>
			<point x="235" y="-14" type="curve"/>
			<point x="208" y="-77" type="line"/>
			<point x="215" y="-88" type="line"/>
			<point x="248" y="-80"/>
			<point x="283" y="-93"/>
			<point x="283" y="-137" type="curve" smooth="yes"/>
			<point x="283" y="-180"/>
			<point x="248" y="-198"/>
			<point x="218" y="-198" type="curve" smooth="yes"/>
			<point x="198" y="-198"/>
			<point x="189" y="-197"/>
			<point x="162" y="-188" type="curve"/>
			<point x="158" y="-197" type="line"/>
			<point x="186" y="-216"/>
			<point x="211" y="-222"/>
		</contour>
	</outline>
</glyph>
<glyph name="scedilla" format="2">
	<unicode hex="015F"/>
	<advance width="439"/>
	<outline>
		<contour>
			<point x="195" y="-220" type="curve" smooth="yes"/>
			<point x="254" y="-220"/>
			<point x="302" y="-188"/>
			<point x="302" y="-134" type="curve" smooth="yes"/>
			<point x="302" y="-79"/>
			<point x="247" y="-53"/>
			<point x="189" y="-64" type="curve"/>
			<point x="210" y="-14" type="line"/>
			<point x="324" y="-10"/>
			<point x="392" y="56"/>
			<point x="392" y="146" type="curve" smooth="yes"/>
			<point x="392" y="241"/>
			<point x="327" y="274"/>
			<point x="246" y="311" type="curve" smooth="yes"/>
			<point x="196" y="334"/>
			<point x="142" y="360"/>
			<point x="142" y="421" type="curve" smooth="yes"/>
			<point x="142" y="475"/>
			<point x="176" y="511"/>
			<point x="251" y="511" type="curve" smooth="yes"/>
			<point x="303" y="511"/>
			<point x="322" y="492"/>
			<point x="316" y="460" type="curve" smooth="yes"/>
			<point x="305" y="403" type="line"/>
			<point x="314" y="395"/>
			<point x="329" y="386"/>
			<point x="352" y="386" type="curve" smooth="yes"/>
			<point x="380" y="386"/>
			<point x="400" y="404"/>
			<point x="400" y="431" type="curve" smooth="yes"/>
			<point x="400" y="486"/>
			<point x="335" y="527"/>
			<point x="255" y="527" type="curve" smooth="yes"/>
			<point x="119" y="527"/>
			<point x="75" y="439"/>
			<point x="75" y="381" type="curve" smooth="yes"/>
			<point x="75" y="293"/>
			<point x="147" y="258"/>
			<point x="213" y="231" type="curve" smooth="yes"/>
			<point x="286" y="201"/>
			<point x="329" y="182"/>
			<point x="329" y="116" type="curve" smooth="yes"/>
			<point x="329" y="44"/>
			<point x="277" y="4"/>
			<point x="211" y="4" type="curve" smooth="yes"/>
			<point x="157" y="4"/>
			<point x="135" y="19"/>
			<point x="137" y="56" type="curve" smooth="yes"/>
			<point x="141" y="119" type="line"/>
			<point x="131" y="125"/>
			<point x="113" y="130"/>
			<point x="97" y="130" type="curve" smooth="yes"/>
			<point x="68" y="130"/>
			<point x="41" y="113"/>
			<point x="41" y="79" type="curve" smooth="yes"/>
			<point x="41" y="26"/>
			<point x="102" y="-11"/>
			<point x="190" y="-14" type="curve"/>
			<point x="164" y="-75" type="line"/>
			<point x="171" y="-86" type="line"/>
			<point x="204" y="-78"/>
			<point x="239" y="-91"/>
			<point x="239" y="-135" type="curve" smooth="yes"/>
			<point x="239" y="-178"/>
			<point x="204" y="-196"/>
			<point x="174" y="-196" type="curve" smooth="yes"/>
			<point x="154" y="-196"/>
			<point x="145" y="-195"/>
			<point x="118" y="-186" type="curve"/>
			<point x="114" y="-195" type="line"/>
			<point x="142" y="-214"/>
			<point x="167" y="-220"/>
		</contour>
	</outline>
</glyph>
<glyph name="Tcedilla" format="2">
	<unicode hex="0162"/>
	<advance width="622"/>
	<outline>
		<contour>
			<point x="299" y="-220" type="curve" smooth="yes"/>
			<point x="358" y="-220"/>
			<point x="406" y="-188"/>
			<point x="406" y="-134" type="curve" smooth="yes"/>
			<point x="406" y="-79"/>
			<point x="351" y="-53"/>
			<point x="293" y="-64" type="curve"/>
			<point x="320" y="0" type="line"/>
			<point x="457" y="0" type="line"/>
			<point x="459" y="18" type="line"/>
			<point x="357" y="30" type="line"/>
			<point x="382" y="707" type="line"/>
			<point x="462" y="707" type="line" smooth="yes"/>
			<point x="523" y="707"/>
			<point x="547" y="692"/>
			<point x="569" y="615" type="curve" smooth="yes"/>
			<point x="588" y="548" type="line"/>
			<point x="610" y="553" type="line"/>
			<point x="596" y="730" type="line"/>
			<point x="82" y="730" type="line"/>
			<point x="58" y="554" type="line"/>
			<point x="80" y="549" type="line"/>
			<point x="103" y="618" type="line" smooth="yes"/>
			<point x="131" y="702"/>
			<point x="158" y="707"/>
			<point x="209" y="707" type="curve" smooth="yes"/>
			<point x="297" y="707" type="line"/>
			<point x="269" y="30" type="line"/>
			<point x="161" y="18" type="line"/>
			<point x="159" y="0" type="line"/>
			<point x="300" y="0" type="line"/>
			<point x="268" y="-75" type="line"/>
			<point x="275" y="-86" type="line"/>
			<point x="308" y="-78"/>
			<point x="343" y="-91"/>
			<point x="343" y="-135" type="curve" smooth="yes"/>
			<point x="343" y="-178"/>
			<point x="308" y="-196"/>
			<point x="278" y="-196" type="curve" smooth="yes"/>
			<point x="258" y="-196"/>
			<point x="249" y="-195"/>
			<point x="222" y="-186" type="curve"/>
			<point x="218" y="-195" type="line"/>
			<point x="246" y="-214"/>
			<point x="271" y="-220"/>
		</contour>
	</outline>
</glyph>
<glyph name="tcedilla" format="2">
	<unicode hex="0163"/>
	<advance width="386"/>
	<outline>
		<contour>
			<point x="211" y="-220" type="curve" smooth="yes"/>
			<point x="270" y="-220"/>
			<point x="318" y="-188"/>
			<point x="318" y="-134" type="curve" smooth="yes"/>
			<point x="318" y="-79"/>
			<point x="263" y="-53"/>
			<point x="205" y="-64" type="curve"/>
			<point x="226" y="-14" type="line"/>
			<point x="293" y="-14"/>
			<point x="341" y="18"/>
			<point x="374" y="62" type="curve"/>
			<point x="362" y="73" type="line"/>
			<point x="327" y="35"/>
			<point x="295" y="13"/>
			<point x="246" y="13" type="curve" smooth="yes"/>
			<point x="200" y="13"/>
			<point x="180" y="41"/>
			<point x="183" y="107" type="curve" smooth="yes"/>
			<point x="202" y="488" type="line"/>
			<point x="353" y="488" type="line"/>
			<point x="354" y="513" type="line"/>
			<point x="202" y="513" type="line"/>
			<point x="210" y="653" type="line"/>
			<point x="165" y="653" type="line"/>
			<point x="126" y="515" type="line"/>
			<point x="41" y="507" type="line"/>
			<point x="38" y="488" type="line"/>
			<point x="115" y="488" type="line"/>
			<point x="97" y="133" type="line" smooth="yes"/>
			<point x="92" y="41"/>
			<point x="124" y="-7"/>
			<point x="207" y="-13" type="curve"/>
			<point x="180" y="-75" type="line"/>
			<point x="187" y="-86" type="line"/>
			<point x="220" y="-78"/>
			<point x="255" y="-91"/>
			<point x="255" y="-135" type="curve" smooth="yes"/>
			<point x="255" y="-178"/>
			<point x="220" y="-196"/>
			<point x="190" y="-196" type="curve" smooth="yes"/>
			<point x="170" y="-196"/>
			<point x="161" y="-195"/>
			<point x="134" y="-186" type="curve"/>
			<point x="130" y="-195" type="line"/>
			<point x="158" y="-214"/>
			<point x="183" y="-220"/>
		</contour>
	</outline>
</glyph>
<glyph name="Tbar" format="2">
	<unicode hex="0166"/>
	<advance width="622"/>
	<outline>
		<contour>
			<point x="159" y="0" type="line"/>
			<point x="457" y="0" type="line"/>
			<point x="459" y="18" type="line"/>
			<point x="357" y="30" type="line"/>
			<point x="369" y="354" type="line"/>
			<point x="521" y="354" type="line"/>
			<point x="523" y="379" type="line"/>
			<point x="370" y="379" type="line"/>
			<point x="382" y="707" type="line"/>
			<point x="462" y="707" type="line" smooth="yes"/>
			<point x="523" y="707"/>
			<point x="547" y="692"/>
			<point x="569" y="615" type="curve" smooth="yes"/>
			<point x="588" y="548" type="line"/>
			<point x="610" y="553" type="line"/>
			<point x="596" y="730" type="line"/>
			<point x="82" y="730" type="line"/>
			<point x="58" y="554" type="line"/>
			<point x="80" y="549" type="line"/>
			<point x="103" y="618" type="line" smooth="yes"/>
			<point x="131" y="702"/>
			<point x="158" y="707"/>
			<point x="209" y="707" type="curve" smooth="yes"/>
			<point x="297" y="707" type="line"/>
			<point x="283" y="379" type="line"/>
			<point x="121" y="379" type="line"/>
			<point x="118" y="354" type="line"/>
			<point x="282" y="354" type="line"/>
			<point x="269" y="30" type="line"/>
			<point x="161" y="18" type="line"/>
		</contour>
	</outline>
</glyph>
<glyph name="tbar" format="2">
	<unicode hex="0167"/>
	<advance width="386"/>
	<outline>
		<contour>
			<point x="225" y="-14" type="curve" smooth="yes"/>
			<point x="292" y="-14"/>
			<point x="341" y="18"/>
			<point x="374" y="62" type="curve"/>
			<point x="362" y="73" type="line"/>
			<point x="327" y="35"/>
			<point x="295" y="13"/>
			<point x="246" y="13" type="curve" smooth="yes"/>
			<point x="200" y="13"/>
			<point x="180" y="41"/>
			<point x="183" y="107" type="curve" smooth="yes"/>
			<point x="192" y="289" type="line"/>
			<point x="339" y="289" type="line"/>
			<point x="340" y="314" type="line"/>
			<point x="193" y="314" type="line"/>
			<point x="202" y="488" type="line"/>
			<point x="353" y="488" type="line"/>
			<point x="354" y="513" type="line"/>
			<point x="202" y="513" type="line"/>
			<point x="210" y="653" type="line"/>
			<point x="165" y="653" type="line"/>
			<point x="126" y="515" type="line"/>
			<point x="41" y="507" type="line"/>
			<point x="38" y="488" type="line"/>
			<point x="115" y="488" type="line"/>
			<point x="106" y="314" type="line"/>
			<point x="34" y="314" type="line"/>
			<point x="30" y="289" type="line"/>
			<point x="105" y="289" type="line"/>
			<point x="97" y="133" type="line" smooth="yes"/>
			<point x="92" y="34"/>
			<point x="129" y="-14"/>
		</contour>
	</outline>
</glyph>
<glyph name="florin" format="2">
	<unicode hex="0192"/>
	<advance width="602"/>
	<outline>
		<contour>
			<point x="78" y="-176" type="curve" smooth="yes"/>
			<point x="19" y="-176"/>
			<point x="-5" y="-136"/>
			<point x="27" y="-84" type="curve" smooth="yes"/>
			<point x="45" y="-55" type="line"/>
			<point x="34" y="-40"/>
			<point x="13" y="-24"/>
			<point x="-9" y="-24" type="curve" smooth="yes"/>
			<point x="-44" y="-24"/>
			<point x="-67" y="-46"/>
			<point x="-67" y="-81" type="curve" smooth="yes"/>
			<point x="-67" y="-156"/>
			<point x="2" y="-193"/>
			<point x="72" y="-193" type="curve" smooth="yes"/>
			<point x="183" y="-193"/>
			<point x="248" y="-105"/>
			<point x="271" y="45" type="curve" smooth="yes"/>
			<point x="328" y="422" type="line"/>
			<point x="472" y="422" type="line"/>
			<point x="474" y="444" type="line"/>
			<point x="330" y="444" type="line"/>
			<point x="345" y="561" type="line" smooth="yes"/>
			<point x="361" y="681"/>
			<point x="383" y="727"/>
			<point x="449" y="727" type="curve" smooth="yes"/>
			<point x="504" y="727"/>
			<point x="528" y="687"/>
			<point x="496" y="635" type="curve" smooth="yes"/>
			<point x="478" y="606" type="line"/>
			<point x="489" y="591"/>
			<point x="510" y="575"/>
			<point x="532" y="575" type="curve" smooth="yes"/>
			<point x="567" y="575"/>
			<point x="590" y="597"/>
			<point x="590" y="632" type="curve" smooth="yes"/>
			<point x="590" y="707"/>
			<point x="521" y="744"/>
			<point x="451" y="744" type="curve" smooth="yes"/>
			<point x="338" y="744"/>
			<point x="270" y="648"/>
			<point x="251" y="502" type="curve" smooth="yes"/>
			<point x="244" y="444" type="line"/>
			<point x="167" y="444" type="line"/>
			<point x="165" y="422" type="line"/>
			<point x="242" y="422" type="line"/>
			<point x="179" y="-10" type="line" smooth="yes"/>
			<point x="163" y="-117"/>
			<point x="143" y="-176"/>
		</contour>
	</outline>
</glyph>
<glyph name="Uhorn" format="2">
	<unicode hex="01AF"/>
	<advance width="836"/>
	<outline>
		<contour>
			<point x="299" y="-14" type="curve" smooth="yes"/>
			<point x="428" y="-14"/>
			<point x="505" y="99"/>
			<point x="564" y="365" type="curve"/>
			<point x="566" y="365" type="line"/>
			<point x="534" y="12" type="line"/>
			<point x="541" y="0" type="line"/>
			<point x="699" y="0" type="line"/>
			<point x="701" y="18" type="line"/>
			<point x="615" y="31" type="line"/>
			<point x="643" y="470" type="line"/>
			<point x="803" y="511"/>
			<point x="851" y="599"/>
			<point x="851" y="684" type="curve" smooth="yes"/>
			<point x="851" y="727"/>
			<point x="823" y="759"/>
			<point x="784" y="759" type="curve" smooth="yes"/>
			<point x="741" y="759"/>
			<point x="720" y="734"/>
			<point x="720" y="699" type="curve" smooth="yes"/>
			<point x="720" y="686"/>
			<point x="725" y="670"/>
			<point x="732" y="660" type="curve"/>
			<point x="782" y="652" type="line" smooth="yes"/>
			<point x="798" y="649"/>
			<point x="802" y="645"/>
			<point x="802" y="630" type="curve" smooth="yes"/>
			<point x="802" y="587"/>
			<point x="776" y="527"/>
			<point x="644" y="490" type="curve"/>
			<point x="659" y="730" type="line"/>
			<point x="499" y="730" type="line"/>
			<point x="497" y="712" type="line"/>
			<point x="580" y="695" type="line"/>
			<point x="562" y="510" type="line" smooth="yes"/>
			<point x="548" y="368"/>
			<point x="515" y="223"/>
			<point x="459" y="129" type="curve" smooth="yes"/>
			<point x="422" y="67"/>
			<point x="374" y="28"/>
			<point x="316" y="28" type="curve" smooth="yes"/>
			<point x="237" y="28"/>
			<point x="208" y="73"/>
			<point x="217" y="230" type="curve" smooth="yes"/>
			<point x="243" y="695" type="line"/>
			<point x="328" y="712" type="line"/>
			<point x="330" y="730" type="line"/>
			<point x="82" y="730" type="line"/>
			<point x="80" y="712" type="line"/>
			<point x="156" y="697" type="line"/>
			<point x="129" y="222" type="line" smooth="yes"/>
			<point x="120" y="67"/>
			<point x="180" y="-14"/>
		</contour>
	</outline>
	<anchor name="bottom" x="362" y="-30"/>
	<anchor name="top" x="417" y="730"/>
</glyph>
<glyph name="Aringacute" format="2">
	<unicode hex="01FA"/>
	<advance width="691"/>
	<outline>
		<contour>
			<point x="16" y="0" type="line"/>
			<point x="215" y="0" type="line"/>
			<point x="218" y="19" type="line"/>
			<point x="126" y="30" type="line"/>
			<point x="205" y="263" type="line"/>
			<point x="450" y="263" type="line"/>
			<point x="506" y="31" type="line"/>
			<point x="423" y="19" type="line"/>
			<point x="420" y="0" type="line"/>
			<point x="686" y="0" type="line"/>
			<point x="689" y="19" type="line"/>
			<point x="606" y="30" type="line"/>
			<point x="429" y="724" type="line"/>
			<point x="470" y="739"/>
			<point x="493" y="776"/>
			<point x="493" y="824" type="curve" smooth="yes"/>
			<point x="493" y="885"/>
			<point x="460" y="921"/>
			<point x="393" y="921" type="curve" smooth="yes"/>
			<point x="322" y="921"/>
			<point x="285" y="873"/>
			<point x="285" y="816" type="curve" smooth="yes"/>
			<point x="285" y="767"/>
			<point x="302" y="734"/>
			<point x="343" y="722" type="curve"/>
			<point x="98" y="30" type="line"/>
			<point x="19" y="19" type="line"/>
		</contour>
		<contour>
			<point x="213" y="285" type="line"/>
			<point x="349" y="679" type="line"/>
			<point x="352" y="679" type="line"/>
			<point x="445" y="285" type="line"/>
		</contour>
		<contour>
			<point x="386" y="731" type="curve" smooth="yes"/>
			<point x="352" y="731"/>
			<point x="342" y="754"/>
			<point x="342" y="817" type="curve" smooth="yes"/>
			<point x="342" y="874"/>
			<point x="358" y="906"/>
			<point x="391" y="906" type="curve" smooth="yes"/>
			<point x="423" y="906"/>
			<point x="435" y="886"/>
			<point x="435" y="821" type="curve" smooth="yes"/>
			<point x="435" y="759"/>
			<point x="420" y="731"/>
		</contour>
		<contour>
			<point x="296" y="946" type="line"/>
			<point x="486" y="1023" type="line"/>
			<point x="491" y="1035"/>
			<point x="494" y="1049"/>
			<point x="494" y="1060" type="curve" smooth="yes"/>
			<point x="494" y="1079"/>
			<point x="478" y="1099"/>
			<point x="454" y="1099" type="curve" smooth="yes"/>
			<point x="440" y="1099"/>
			<point x="428" y="1092"/>
			<point x="413" y="1077" type="curve" smooth="yes"/>
			<point x="289" y="956" type="line"/>
		</contour>
	</outline>
</glyph>
<glyph name="commaturnedmod" format="2">
	<unicode hex="02BB"/>
	<outline>
		<contour>
			<point x="53" y="797" type="line"/>
			<point x="-19" y="755"/>
			<point x="-47" y="709"/>
			<point x="-47" y="652" type="curve" smooth="yes"/>
			<point x="-47" y="618"/>
			<point x="-30" y="588"/>
			<point x="12" y="588" type="curve" smooth="yes"/>
			<point x="61" y="588"/>
			<point x="79" y="634"/>
			<point x="62" y="667" type="curve"/>
			<point x="17" y="684" type="line" smooth="yes"/>
			<point x="5" y="688"/>
			<point x="2" y="693"/>
			<point x="2" y="702" type="curve" smooth="yes"/>
			<point x="2" y="728"/>
			<point x="20" y="754"/>
			<point x="61" y="784" type="curve"/>
		</contour>
	</outline>
	<anchor name="_top" x="10" y="550"/>
</glyph>
<glyph name="ringhalfright" format="2">
	<unicode hex="02BE"/>
	<advance width="500"/>
	<outline>
		<contour>
			<point x="240" y="787" type="curve" smooth="yes"/>
			<point x="235" y="787" type="line"/>
			<point x="234" y="772" type="line"/>
			<point x="238" y="772" type="line" smooth="yes"/>
			<point x="273" y="772"/>
			<point x="286" y="748"/>
			<point x="286" y="696" type="curve" smooth="yes"/>
			<point x="286" y="629"/>
			<point x="272" y="597"/>
			<point x="234" y="597" type="curve" smooth="yes"/>
			<point x="228" y="597" type="line"/>
			<point x="227" y="582" type="line"/>
			<point x="230" y="582" type="line" smooth="yes"/>
			<point x="306" y="582"/>
			<point x="344" y="631"/>
			<point x="344" y="690" type="curve" smooth="yes"/>
			<point x="344" y="748"/>
			<point x="313" y="787"/>
		</contour>
	</outline>
	<anchor name="_top" x="268" y="550"/>
</glyph>
<glyph name="ringhalfleft" format="2">
	<unicode hex="02BF"/>
	<advance width="500"/>
	<outline>
		<contour>
			<point x="296" y="582" type="curve" smooth="yes"/>
			<point x="301" y="582" type="line"/>
			<point x="302" y="597" type="line"/>
			<point x="298" y="597" type="line" smooth="yes"/>
			<point x="263" y="597"/>
			<point x="250" y="621"/>
			<point x="250" y="673" type="curve" smooth="yes"/>
			<point x="250" y="740"/>
			<point x="264" y="772"/>
			<point x="302" y="772" type="curve" smooth="yes"/>
			<point x="308" y="772" type="line"/>
			<point x="309" y="787" type="line"/>
			<point x="306" y="787" type="line" smooth="yes"/>
			<point x="230" y="787"/>
			<point x="192" y="738"/>
			<point x="192" y="679" type="curve" smooth="yes"/>
			<point x="192" y="621"/>
			<point x="223" y="582"/>
		</contour>
	</outline>
	<anchor name="_top" x="268" y="550"/>
</glyph>
<glyph name="caron" format="2">
	<unicode hex="02C7"/>
	<advance width="500"/>
	<outline>
		<contour>
			<point x="131" y="764" type="line"/>
			<point x="240" y="593" type="line"/>
			<point x="249" y="588"/>
			<point x="260" y="585"/>
			<point x="269" y="585" type="curve" smooth="yes"/>
			<point x="291" y="585"/>
			<point x="304" y="602"/>
			<point x="313" y="615" type="curve" smooth="yes"/>
			<point x="416" y="762" type="line"/>
			<point x="409" y="770" type="line"/>
			<point x="272" y="671" type="line"/>
			<point x="138" y="771" type="line"/>
		</contour>
	</outline>
	<anchor name="_top" x="268" y="550"/>
</glyph>
<glyph name="dotaccent" format="2">
	<unicode hex="02D9"/>
	<advance width="500"/>
	<outline>
		<contour>
			<point x="206" y="686" type="curve" smooth="yes"/>
			<point x="206" y="647"/>
			<point x="232" y="620"/>
			<point x="271" y="620" type="curve" smooth="yes"/>
			<point x="309" y="620"/>
			<point x="335" y="648"/>
			<point x="335" y="687" type="curve" smooth="yes"/>
			<point x="335" y="726"/>
			<point x="309" y="753"/>
			<point x="271" y="753" type="curve" smooth="yes"/>
			<point x="232" y="753"/>
			<point x="206" y="725"/>
		</contour>
	</outline>
	<anchor name="_top" x="268" y="550"/>
</glyph>
<glyph name="ring" format="2">
	<unicode hex="02DA"/>
	<advance width="500"/>
	<outline>
		<contour>
			<point x="274" y="582" type="curve" smooth="yes"/>
			<point x="341" y="582"/>
			<point x="382" y="627"/>
			<point x="382" y="690" type="curve" smooth="yes"/>
			<point x="382" y="751"/>
			<point x="349" y="787"/>
			<point x="282" y="787" type="curve" smooth="yes"/>
			<point x="211" y="787"/>
			<point x="174" y="739"/>
			<point x="174" y="682" type="curve" smooth="yes"/>
			<point x="174" y="619"/>
			<point x="202" y="582"/>
		</contour>
		<contour>
			<point x="277" y="597" type="curve" smooth="yes"/>
			<point x="242" y="597"/>
			<point x="231" y="620"/>
			<point x="231" y="683" type="curve" smooth="yes"/>
			<point x="231" y="740"/>
			<point x="247" y="772"/>
			<point x="280" y="772" type="curve" smooth="yes"/>
			<point x="312" y="772"/>
			<point x="324" y="752"/>
			<point x="324" y="687" type="curve" smooth="yes"/>
			<point x="324" y="632"/>
			<point x="311" y="597"/>
		</contour>
	</outline>
	<anchor name="_top" x="268" y="550"/>
</glyph>
<glyph name="tilde" format="2">
	<unicode hex="02DC"/>
	<advance width="500"/>
	<outline>
		<contour>
			<point x="342" y="623" type="curve" smooth="yes"/>
			<point x="376" y="623"/>
			<point x="398" y="644"/>
			<point x="420" y="716" type="curve"/>
			<point x="408" y="721" type="line"/>
			<point x="390" y="690"/>
			<point x="379" y="684"/>
			<point x="362" y="684" type="curve" smooth="yes"/>
			<point x="350" y="684"/>
			<point x="325" y="692"/>
			<point x="289" y="711" type="curve" smooth="yes"/>
			<point x="240" y="737"/>
			<point x="217" y="739"/>
			<point x="203" y="739" type="curve" smooth="yes"/>
			<point x="169" y="739"/>
			<point x="146" y="718"/>
			<point x="127" y="646" type="curve"/>
			<point x="137" y="641" type="line"/>
			<point x="155" y="672"/>
			<point x="166" y="678"/>
			<point x="183" y="678" type="curve" smooth="yes"/>
			<point x="195" y="678"/>
			<point x="223" y="671"/>
			<point x="261" y="651" type="curve" smooth="yes"/>
			<point x="295" y="633"/>
			<point x="320" y="623"/>
		</contour>
	</outline>
	<anchor name="_top" x="268" y="550"/>
</glyph>
<glyph name="dblgravecomb" format="2">
	<unicode hex="030F"/>
	<outline>
		<contour>
			<point x="-25" y="687" type="curve" smooth="yes"/>
			<point x="95" y="585" type="line"/>
			<point x="105" y="595" type="line"/>
			<point x="16" y="768" type="line"/>
			<point x="-17" y="778"/>
			<point x="-49" y="766"/>
			<point x="-49" y="729" type="curve" smooth="yes"/>
			<point x="-49" y="712"/>
			<point x="-41" y="700"/>
		</contour>
		<contour>
			<point x="-178" y="682" type="curve" smooth="yes"/>
			<point x="-46" y="585" type="line"/>
			<point x="-37" y="595" type="line"/>
			<point x="-142" y="765" type="line"/>
			<point x="-177" y="773"/>
			<point x="-206" y="762"/>
			<point x="-206" y="728" type="curve" smooth="yes"/>
			<point x="-206" y="710"/>
			<point x="-197" y="696"/>
		</contour>
	</outline>
	<anchor name="_top" x="14" y="550"/>
</glyph>
<glyph name="ypogegrammeni" format="2">
	<unicode hex="037A"/>
	<advance width="241"/>
	<outline>
		<contour>
			<point x="95" y="-229" type="curve" smooth="yes"/>
			<point x="140" y="-229"/>
			<point x="177" y="-192"/>
			<point x="193" y="-168" type="curve"/>
			<point x="189" y="-161" type="line"/>
			<point x="171" y="-167"/>
			<point x="158" y="-169"/>
			<point x="150" y="-169" type="curve" smooth="yes"/>
			<point x="116" y="-169"/>
			<point x="102" y="-154"/>
			<point x="104" y="-123" type="curve" smooth="yes"/>
			<point x="105" y="-99"/>
			<point x="108" y="-78"/>
			<point x="113" y="-48" type="curve"/>
			<point x="108" y="-44" type="line"/>
			<point x="29" y="-51" type="line"/>
			<point x="25" y="-136" type="line" smooth="yes"/>
			<point x="22" y="-203"/>
			<point x="44" y="-229"/>
		</contour>
	</outline>
	<anchor name="_bottom" x="72" y="-30"/>
</glyph>
<glyph name="dieresistonos" format="2">
	<unicode hex="0385"/>
	<advance width="593"/>
	<outline>
		<contour>
			<point x="260" y="573" type="line"/>
			<point x="392" y="750" type="line"/>
			<point x="392" y="757" type="line"/>
			<point x="379" y="777"/>
			<point x="363" y="790"/>
			<point x="344" y="790" type="curve" smooth="yes"/>
			<point x="320" y="790"/>
			<point x="313" y="776"/>
			<point x="303" y="743" type="curve" smooth="yes"/>
			<point x="251" y="577" type="line"/>
		</contour>
		<contour>
			<point x="174" y="616" type="curve" smooth="yes"/>
			<point x="208" y="616"/>
			<point x="233" y="644"/>
			<point x="233" y="677" type="curve" smooth="yes"/>
			<point x="233" y="710"/>
			<point x="211" y="731"/>
			<point x="180" y="731" type="curve" smooth="yes"/>
			<point x="144" y="731"/>
			<point x="119" y="703"/>
			<point x="119" y="670" type="curve" smooth="yes"/>
			<point x="119" y="637"/>
			<point x="141" y="616"/>
		</contour>
		<contour>
			<point x="460" y="616" type="curve" smooth="yes"/>
			<point x="494" y="616"/>
			<point x="519" y="644"/>
			<point x="519" y="677" type="curve" smooth="yes"/>
			<point x="519" y="710"/>
			<point x="497" y="731"/>
			<point x="466" y="731" type="curve" smooth="yes"/>
			<point x="430" y="731"/>
			<point x="405" y="703"/>
			<point x="405" y="670" type="curve" smooth="yes"/>
			<point x="405" y="637"/>
			<point x="427" y="616"/>
		</contour>
	</outline>
	<anchor name="_top" x="272" y="550"/>
</glyph>
<glyph name="Gamma" format="2">
	<unicode hex="0393"/>
	<advance width="555"/>
	<outline>
		<contour>
			<point x="55" y="0" type="line"/>
			<point x="340" y="0" type="line"/>
			<point x="342" y="18" type="line"/>
			<point x="227" y="30" type="line"/>
			<point x="255" y="707" type="line"/>
			<point x="383" y="707" type="line" smooth="yes"/>
			<point x="445" y="707"/>
			<point x="468" y="691"/>
			<point x="488" y="624" type="curve" smooth="yes"/>
			<point x="508" y="556" type="line"/>
			<point x="526" y="558" type="line"/>
			<point x="510" y="730" type="line"/>
			<point x="88" y="730" type="line"/>
			<point x="86" y="713" type="line"/>
			<point x="168" y="698" type="line"/>
			<point x="141" y="30" type="line"/>
			<point x="57" y="18" type="line"/>
		</contour>
	</outline>
</glyph>
<glyph name="Delta" format="2">
	<unicode hex="0394"/>
	<advance width="574"/>
	<outline>
		<contour>
			<point x="34" y="0" type="line"/>
			<point x="559" y="0" type="line"/>
			<point x="562" y="19" type="line"/>
			<point x="369" y="736" type="line"/>
			<point x="287" y="725" type="line"/>
			<point x="27" y="19" type="line"/>
		</contour>
		<contour>
			<point x="66" y="50" type="line"/>
			<point x="292" y="679" type="line"/>
			<point x="295" y="679" type="line"/>
			<point x="454" y="50" type="line"/>
		</contour>
	</outline>
</glyph>
<glyph name="Lambda" format="2">
	<unicode hex="039B"/>
	<advance width="671"/>
	<outline>
		<contour>
			<point x="16" y="0" type="line"/>
			<point x="215" y="0" type="line"/>
			<point x="218" y="19" type="line"/>
			<point x="126" y="30" type="line"/>
			<point x="339" y="679" type="line"/>
			<point x="342" y="679" type="line"/>
			<point x="486" y="31" type="line"/>
			<point x="403" y="19" type="line"/>
			<point x="400" y="0" type="line"/>
			<point x="666" y="0" type="line"/>
			<point x="669" y="19" type="line"/>
			<point x="586" y="30" type="line"/>
			<point x="416" y="736" type="line"/>
			<point x="334" y="725" type="line"/>
			<point x="98" y="30" type="line"/>
			<point x="19" y="19" type="line"/>
		</contour>
	</outline>
</glyph>
<glyph name="Xi" format="2">
	<unicode hex="039E"/>
	<advance width="585"/>
	<outline>
		<contour>
			<point x="39" y="0" type="line"/>
			<point x="516" y="0" type="line"/>
			<point x="542" y="171" type="line"/>
			<point x="523" y="171" type="line"/>
			<point x="518" y="152" type="line" smooth="yes"/>
			<point x="496" y="67"/>
			<point x="468" y="63"/>
			<point x="386" y="63" type="curve" smooth="yes"/>
			<point x="175" y="63" type="line" smooth="yes"/>
			<point x="92" y="63"/>
			<point x="68" y="66"/>
			<point x="58" y="153" type="curve" smooth="yes"/>
			<point x="56" y="171" type="line"/>
			<point x="37" y="171" type="line"/>
		</contour>
		<contour>
			<point x="130" y="346" type="line"/>
			<point x="472" y="346" type="line"/>
			<point x="473" y="383" type="line"/>
			<point x="131" y="383" type="line"/>
		</contour>
		<contour>
			<point x="104" y="556" type="line"/>
			<point x="110" y="571" type="line" smooth="yes"/>
			<point x="146" y="662"/>
			<point x="173" y="667"/>
			<point x="273" y="667" type="curve" smooth="yes"/>
			<point x="403" y="667" type="line" smooth="yes"/>
			<point x="479" y="667"/>
			<point x="506" y="652"/>
			<point x="525" y="576" type="curve" smooth="yes"/>
			<point x="530" y="556" type="line"/>
			<point x="548" y="558" type="line"/>
			<point x="532" y="730" type="line"/>
			<point x="130" y="730" type="line"/>
			<point x="87" y="558" type="line"/>
		</contour>
	</outline>
</glyph>
<glyph name="Pi" format="2">
	<unicode hex="03A0"/>
	<advance width="753"/>
	<outline>
		<contour>
			<point x="55" y="0" type="line"/>
			<point x="320" y="0" type="line"/>
			<point x="322" y="18" type="line"/>
			<point x="229" y="30" type="line"/>
			<point x="256" y="707" type="line"/>
			<point x="560" y="707" type="line"/>
			<point x="532" y="30" type="line"/>
			<point x="448" y="18" type="line"/>
			<point x="446" y="0" type="line"/>
			<point x="711" y="0" type="line"/>
			<point x="713" y="18" type="line"/>
			<point x="620" y="30" type="line"/>
			<point x="646" y="698" type="line"/>
			<point x="735" y="713" type="line"/>
			<point x="737" y="730" type="line"/>
			<point x="88" y="730" type="line"/>
			<point x="86" y="713" type="line"/>
			<point x="168" y="698" type="line"/>
			<point x="141" y="30" type="line"/>
			<point x="57" y="18" type="line"/>
		</contour>
	</outline>
</glyph>
<glyph name="Psi" format="2">
	<unicode hex="03A8"/>
	<advance width="916"/>
	<outline>
		<contour>
			<point x="313" y="0" type="line"/>
			<point x="579" y="0" type="line"/>
			<point x="581" y="18" type="line"/>
			<point x="488" y="30" type="line"/>
			<point x="494" y="189" type="line"/>
			<point x="698" y="195"/>
			<point x="784" y="285"/>
			<point x="790" y="435" type="curve" smooth="yes"/>
			<point x="801" y="697" type="line"/>
			<point x="868" y="712" type="line"/>
			<point x="868" y="730" type="line"/>
			<point x="715" y="730" type="line"/>
			<point x="703" y="443" type="line" smooth="yes"/>
			<point x="697" y="292"/>
			<point x="645" y="228"/>
			<point x="496" y="223" type="curve"/>
			<point x="514" y="698" type="line"/>
			<point x="603" y="713" type="line"/>
			<point x="605" y="730" type="line"/>
			<point x="347" y="730" type="line"/>
			<point x="345" y="713" type="line"/>
			<point x="427" y="698" type="line"/>
			<point x="408" y="224" type="line"/>
			<point x="276" y="233"/>
			<point x="217" y="297"/>
			<point x="223" y="443" type="curve" smooth="yes"/>
			<point x="234" y="730" type="line"/>
			<point x="81" y="730" type="line"/>
			<point x="80" y="712" type="line"/>
			<point x="146" y="697" type="line"/>
			<point x="135" y="435" type="line" smooth="yes"/>
			<point x="129" y="289"/>
			<point x="222" y="200"/>
			<point x="406" y="190" type="curve"/>
			<point x="400" y="30" type="line"/>
			<point x="316" y="18" type="line"/>
		</contour>
	</outline>
</glyph>
<glyph name="beta" format="2">
	<unicode hex="03B2"/>
	<advance width="558"/>
	<outline>
		<contour>
			<point x="269" y="-14" type="curve" smooth="yes"/>
			<point x="449" y="-14"/>
			<point x="485" y="140"/>
			<point x="485" y="204" type="curve" smooth="yes"/>
			<point x="485" y="290"/>
			<point x="432" y="367"/>
			<point x="363" y="396" type="curve"/>
			<point x="454" y="440"/>
			<point x="523" y="525"/>
			<point x="523" y="631" type="curve" smooth="yes"/>
			<point x="523" y="717"/>
			<point x="473" y="782"/>
			<point x="352" y="782" type="curve" smooth="yes"/>
			<point x="175" y="782"/>
			<point x="51" y="545"/>
			<point x="51" y="309" type="curve" smooth="yes"/>
			<point x="51" y="155"/>
			<point x="95" y="-14"/>
		</contour>
		<contour>
			<point x="280" y="5" type="curve" smooth="yes"/>
			<point x="178" y="5"/>
			<point x="145" y="150"/>
			<point x="145" y="337" type="curve"/>
			<point x="197" y="342"/>
			<point x="269" y="356"/>
			<point x="333" y="383" type="curve"/>
			<point x="366" y="341"/>
			<point x="392" y="268"/>
			<point x="392" y="197" type="curve" smooth="yes"/>
			<point x="392" y="71"/>
			<point x="359" y="5"/>
		</contour>
		<contour>
			<point x="146" y="356" type="curve"/>
			<point x="158" y="558"/>
			<point x="243" y="765"/>
			<point x="350" y="765" type="curve" smooth="yes"/>
			<point x="400" y="765"/>
			<point x="430" y="733"/>
			<point x="430" y="655" type="curve" smooth="yes"/>
			<point x="430" y="525"/>
			<point x="343" y="405"/>
		</contour>
	</outline>
</glyph>
<glyph name="gamma" format="2">
	<unicode hex="03B3"/>
	<advance width="513"/>
	<outline>
		<contour>
			<point x="182" y="-186" type="curve" smooth="yes"/>
			<point x="188" y="-186"/>
			<point x="208" y="-184"/>
			<point x="224" y="-181" type="curve"/>
			<point x="238" y="-157"/>
			<point x="238" y="-125"/>
			<point x="238" y="-84" type="curve" smooth="yes"/>
			<point x="238" y="-67"/>
			<point x="236" y="-31"/>
			<point x="233" y="-10" type="curve"/>
			<point x="336" y="88"/>
			<point x="461" y="252"/>
			<point x="461" y="431" type="curve" smooth="yes"/>
			<point x="461" y="484"/>
			<point x="445" y="527"/>
			<point x="394" y="527" type="curve" smooth="yes"/>
			<point x="354" y="527"/>
			<point x="333" y="498"/>
			<point x="336" y="452" type="curve"/>
			<point x="380" y="440" type="line" smooth="yes"/>
			<point x="412" y="431"/>
			<point x="432" y="429"/>
			<point x="432" y="382" type="curve" smooth="yes"/>
			<point x="432" y="308"/>
			<point x="361" y="141"/>
			<point x="233" y="24" type="curve"/>
			<point x="233" y="151"/>
			<point x="232" y="239"/>
			<point x="226" y="346" type="curve" smooth="yes"/>
			<point x="218" y="485"/>
			<point x="196" y="527"/>
			<point x="125" y="527" type="curve" smooth="yes"/>
			<point x="89" y="527"/>
			<point x="39" y="504"/>
			<point x="8" y="478" type="curve"/>
			<point x="16" y="467" type="line"/>
			<point x="33" y="482"/>
			<point x="62" y="496"/>
			<point x="87" y="496" type="curve" smooth="yes"/>
			<point x="116" y="496"/>
			<point x="127" y="462"/>
			<point x="143" y="277" type="curve" smooth="yes"/>
			<point x="156" y="125"/>
			<point x="155" y="92"/>
			<point x="162" y="-14" type="curve"/>
			<point x="147" y="-37"/>
			<point x="135" y="-70"/>
			<point x="135" y="-103" type="curve" smooth="yes"/>
			<point x="135" y="-149"/>
			<point x="149" y="-186"/>
		</contour>
	</outline>
</glyph>
<glyph name="delta" format="2">
	<unicode hex="03B4"/>
	<advance width="523"/>
	<outline>
		<contour>
			<point x="247" y="-14" type="curve" smooth="yes"/>
			<point x="399" y="-14"/>
			<point x="469" y="112"/>
			<point x="469" y="234" type="curve" smooth="yes"/>
			<point x="469" y="341"/>
			<point x="431" y="411"/>
			<point x="318" y="514" type="curve" smooth="yes"/>
			<point x="222" y="601"/>
			<point x="201" y="630"/>
			<point x="201" y="678" type="curve" smooth="yes"/>
			<point x="201" y="736"/>
			<point x="257" y="767"/>
			<point x="309" y="767" type="curve" smooth="yes"/>
			<point x="390" y="767"/>
			<point x="416" y="731"/>
			<point x="416" y="698" type="curve" smooth="yes"/>
			<point x="416" y="678"/>
			<point x="408" y="663"/>
			<point x="383" y="625" type="curve"/>
			<point x="397" y="607"/>
			<point x="417" y="594"/>
			<point x="436" y="594" type="curve" smooth="yes"/>
			<point x="472" y="594"/>
			<point x="494" y="625"/>
			<point x="494" y="655" type="curve" smooth="yes"/>
			<point x="494" y="750"/>
			<point x="400" y="782"/>
			<point x="316" y="782" type="curve" smooth="yes"/>
			<point x="228" y="782"/>
			<point x="134" y="735"/>
			<point x="134" y="633" type="curve" smooth="yes"/>
			<point x="134" y="582"/>
			<point x="155" y="545"/>
			<point x="260" y="454" type="curve"/>
			<point x="125" y="431"/>
			<point x="36" y="343"/>
			<point x="36" y="202" type="curve" smooth="yes"/>
			<point x="36" y="74"/>
			<point x="110" y="-14"/>
		</contour>
		<contour>
			<point x="254" y="5" type="curve" smooth="yes"/>
			<point x="160" y="5"/>
			<point x="131" y="110"/>
			<point x="131" y="204" type="curve" smooth="yes"/>
			<point x="131" y="350"/>
			<point x="206" y="416"/>
			<point x="270" y="445" type="curve"/>
			<point x="328" y="394"/>
			<point x="375" y="330"/>
			<point x="375" y="209" type="curve" smooth="yes"/>
			<point x="375" y="91"/>
			<point x="329" y="5"/>
		</contour>
	</outline>
</glyph>
<glyph name="zeta" format="2">
	<unicode hex="03B6"/>
	<advance width="431"/>
	<outline>
		<contour>
			<point x="279" y="-231" type="line"/>
			<point x="320" y="-189"/>
			<point x="375" y="-126"/>
			<point x="375" y="-67" type="curve" smooth="yes"/>
			<point x="375" y="-4"/>
			<point x="352" y="19"/>
			<point x="255" y="66" type="curve" smooth="yes"/>
			<point x="160" y="113"/>
			<point x="96" y="155"/>
			<point x="96" y="243" type="curve" smooth="yes"/>
			<point x="96" y="406"/>
			<point x="243" y="561"/>
			<point x="291" y="608" type="curve"/>
			<point x="390" y="598"/>
			<point x="451" y="656"/>
			<point x="451" y="697" type="curve" smooth="yes"/>
			<point x="451" y="729"/>
			<point x="432" y="739"/>
			<point x="413" y="749" type="curve"/>
			<point x="386" y="739"/>
			<point x="342" y="697"/>
			<point x="279" y="631" type="curve"/>
			<point x="205" y="648"/>
			<point x="176" y="677"/>
			<point x="176" y="725" type="curve" smooth="yes"/>
			<point x="176" y="739"/>
			<point x="178" y="752"/>
			<point x="184" y="769" type="curve"/>
			<point x="173" y="777"/>
			<point x="157" y="782"/>
			<point x="141" y="782" type="curve" smooth="yes"/>
			<point x="105" y="782"/>
			<point x="79" y="761"/>
			<point x="79" y="719" type="curve" smooth="yes"/>
			<point x="79" y="641"/>
			<point x="157" y="608"/>
			<point x="261" y="608" type="curve"/>
			<point x="147" y="496"/>
			<point x="46" y="335"/>
			<point x="46" y="195" type="curve" smooth="yes"/>
			<point x="46" y="125"/>
			<point x="59" y="64"/>
			<point x="209" y="-12" type="curve" smooth="yes"/>
			<point x="296" y="-56"/>
			<point x="311" y="-71"/>
			<point x="311" y="-112" type="curve" smooth="yes"/>
			<point x="311" y="-147"/>
			<point x="300" y="-178"/>
			<point x="267" y="-222" type="curve"/>
		</contour>
	</outline>
</glyph>
<glyph name="kappa" format="2">
	<unicode hex="03BA"/>
	<advance width="595"/>
	<outline>
		<contour>
			<point x="435" y="-14" type="curve" smooth="yes"/>
			<point x="476" y="-14"/>
			<point x="521" y="7"/>
			<point x="551" y="35" type="curve"/>
			<point x="542" y="47" type="line"/>
			<point x="523" y="33"/>
			<point x="502" y="18"/>
			<point x="470" y="18" type="curve" smooth="yes"/>
			<point x="406" y="18"/>
			<point x="375" y="74"/>
			<point x="375" y="185" type="curve" smooth="yes"/>
			<point x="375" y="259"/>
			<point x="384" y="342"/>
			<point x="397" y="375" type="curve"/>
			<point x="449" y="428"/>
			<point x="516" y="440"/>
			<point x="562" y="442" type="curve"/>
			<point x="567" y="453" type="line"/>
			<point x="543" y="521" type="line"/>
			<point x="419" y="521"/>
			<point x="311" y="436"/>
			<point x="180" y="152" type="curve"/>
			<point x="178" y="153" type="line"/>
			<point x="222" y="345"/>
			<point x="243" y="429"/>
			<point x="243" y="459" type="curve" smooth="yes"/>
			<point x="243" y="511"/>
			<point x="205" y="527"/>
			<point x="168" y="527" type="curve" smooth="yes"/>
			<point x="125" y="527"/>
			<point x="78" y="507"/>
			<point x="52" y="494" type="curve"/>
			<point x="58" y="480" type="line"/>
			<point x="74" y="487"/>
			<point x="102" y="499"/>
			<point x="127" y="499" type="curve" smooth="yes"/>
			<point x="145" y="499"/>
			<point x="157" y="494"/>
			<point x="157" y="463" type="curve" smooth="yes"/>
			<point x="157" y="428"/>
			<point x="99" y="132"/>
			<point x="74" y="0" type="curve"/>
			<point x="146" y="0" type="line"/>
			<point x="146" y="0"/>
			<point x="203" y="203"/>
			<point x="363" y="355" type="curve"/>
			<point x="320" y="270"/>
			<point x="306" y="203"/>
			<point x="306" y="141" type="curve" smooth="yes"/>
			<point x="306" y="26"/>
			<point x="356" y="-14"/>
		</contour>
	</outline>
</glyph>
<glyph name="lambda" format="2">
	<unicode hex="03BB"/>
	<advance width="529"/>
	<outline>
		<contour>
			<point x="353" y="-14" type="curve" smooth="yes"/>
			<point x="400" y="-14"/>
			<point x="444" y="14"/>
			<point x="469" y="37" type="curve"/>
			<point x="460" y="49" type="line"/>
			<point x="438" y="32"/>
			<point x="411" y="18"/>
			<point x="389" y="18" type="curve" smooth="yes"/>
			<point x="362" y="18"/>
			<point x="356" y="33"/>
			<point x="350" y="87" type="curve" smooth="yes"/>
			<point x="290" y="614" type="line" smooth="yes"/>
			<point x="276" y="740"/>
			<point x="237" y="782"/>
			<point x="141" y="782" type="curve" smooth="yes"/>
			<point x="55" y="782"/>
			<point x="0" y="736"/>
			<point x="0" y="676" type="curve" smooth="yes"/>
			<point x="0" y="628"/>
			<point x="31" y="613"/>
			<point x="57" y="613" type="curve" smooth="yes"/>
			<point x="85" y="613"/>
			<point x="103" y="630"/>
			<point x="111" y="639" type="curve"/>
			<point x="106" y="653" type="line" smooth="yes"/>
			<point x="96" y="682"/>
			<point x="95" y="690"/>
			<point x="95" y="713" type="curve" smooth="yes"/>
			<point x="95" y="742"/>
			<point x="111" y="766"/>
			<point x="143" y="766" type="curve" smooth="yes"/>
			<point x="183" y="766"/>
			<point x="196" y="742"/>
			<point x="208" y="634" type="curve" smooth="yes"/>
			<point x="223" y="495" type="line"/>
			<point x="-31" y="5" type="line"/>
			<point x="-20" y="0" type="line"/>
			<point x="64" y="0" type="line"/>
			<point x="231" y="407" type="line"/>
			<point x="234" y="407" type="line"/>
			<point x="270" y="88" type="line" smooth="yes"/>
			<point x="279" y="7"/>
			<point x="310" y="-14"/>
		</contour>
	</outline>
</glyph>
<glyph name="nu" format="2">
	<unicode hex="03BD"/>
	<advance width="514"/>
	<outline>
		<contour>
			<point x="208" y="-35" type="line"/>
			<point x="340" y="88"/>
			<point x="462" y="252"/>
			<point x="462" y="431" type="curve" smooth="yes"/>
			<point x="462" y="484"/>
			<point x="446" y="527"/>
			<point x="395" y="527" type="curve" smooth="yes"/>
			<point x="355" y="527"/>
			<point x="334" y="498"/>
			<point x="337" y="452" type="curve"/>
			<point x="381" y="440" type="line" smooth="yes"/>
			<point x="413" y="431"/>
			<point x="433" y="429"/>
			<point x="433" y="382" type="curve" smooth="yes"/>
			<point x="433" y="308"/>
			<point x="365" y="141"/>
			<point x="233" y="24" type="curve"/>
			<point x="237" y="151"/>
			<point x="234" y="239"/>
			<point x="227" y="346" type="curve" smooth="yes"/>
			<point x="218" y="485"/>
			<point x="197" y="527"/>
			<point x="126" y="527" type="curve" smooth="yes"/>
			<point x="90" y="527"/>
			<point x="40" y="510"/>
			<point x="8" y="494" type="curve"/>
			<point x="14" y="480" type="line"/>
			<point x="34" y="489"/>
			<point x="63" y="499"/>
			<point x="85" y="499" type="curve" smooth="yes"/>
			<point x="117" y="499"/>
			<point x="132" y="462"/>
			<point x="144" y="277" type="curve" smooth="yes"/>
			<point x="154" y="125"/>
			<point x="156" y="92"/>
			<point x="162" y="-14" type="curve"/>
		</contour>
	</outline>
</glyph>
<glyph name="xi" format="2">
	<unicode hex="03BE"/>
	<advance width="426"/>
	<outline>
		<contour>
			<point x="264" y="-231" type="line"/>
			<point x="332" y="-158"/>
			<point x="360" y="-112"/>
			<point x="360" y="-65" type="curve" smooth="yes"/>
			<point x="360" y="0"/>
			<point x="329" y="21"/>
			<point x="234" y="69" type="curve" smooth="yes"/>
			<point x="92" y="141"/>
			<point x="71" y="151"/>
			<point x="71" y="196" type="curve" smooth="yes"/>
			<point x="71" y="266"/>
			<point x="173" y="313"/>
			<point x="234" y="339" type="curve"/>
			<point x="263" y="312"/>
			<point x="283" y="302"/>
			<point x="308" y="302" type="curve" smooth="yes"/>
			<point x="340" y="302"/>
			<point x="369" y="319"/>
			<point x="369" y="354" type="curve" smooth="yes"/>
			<point x="369" y="389"/>
			<point x="342" y="403"/>
			<point x="312" y="403" type="curve" smooth="yes"/>
			<point x="284" y="403"/>
			<point x="257" y="390"/>
			<point x="235" y="363" type="curve"/>
			<point x="130" y="397"/>
			<point x="94" y="430"/>
			<point x="94" y="464" type="curve" smooth="yes"/>
			<point x="94" y="544"/>
			<point x="210" y="620"/>
			<point x="392" y="659" type="curve" smooth="yes"/>
			<point x="406" y="662"/>
			<point x="416" y="678"/>
			<point x="416" y="697" type="curve" smooth="yes"/>
			<point x="416" y="725"/>
			<point x="393" y="742"/>
			<point x="364" y="734" type="curve" smooth="yes"/>
			<point x="317" y="721"/>
			<point x="261" y="692"/>
			<point x="188" y="643" type="curve"/>
			<point x="148" y="667"/>
			<point x="131" y="688"/>
			<point x="131" y="724" type="curve" smooth="yes"/>
			<point x="131" y="735"/>
			<point x="131" y="749"/>
			<point x="139" y="769" type="curve"/>
			<point x="128" y="777"/>
			<point x="114" y="782"/>
			<point x="93" y="782" type="curve" smooth="yes"/>
			<point x="56" y="782"/>
			<point x="34" y="755"/>
			<point x="34" y="719" type="curve" smooth="yes"/>
			<point x="34" y="666"/>
			<point x="79" y="633"/>
			<point x="167" y="627" type="curve"/>
			<point x="105" y="580"/>
			<point x="74" y="527"/>
			<point x="74" y="475" type="curve" smooth="yes"/>
			<point x="74" y="414"/>
			<point x="110" y="385"/>
			<point x="183" y="351" type="curve"/>
			<point x="183" y="349" type="line"/>
			<point x="96" y="321"/>
			<point x="31" y="239"/>
			<point x="31" y="161" type="curve" smooth="yes"/>
			<point x="31" y="61"/>
			<point x="98" y="41"/>
			<point x="224" y="-27" type="curve" smooth="yes"/>
			<point x="289" y="-62"/>
			<point x="296" y="-81"/>
			<point x="296" y="-117" type="curve" smooth="yes"/>
			<point x="296" y="-146"/>
			<point x="280" y="-188"/>
			<point x="252" y="-222" type="curve"/>
		</contour>
	</outline>
</glyph>
<glyph name="omicron" format="2">
	<unicode hex="03BF"/>
	<advance width="521"/>
	<outline>
		<contour>
			<point x="249" y="-14" type="curve" smooth="yes"/>
			<point x="408" y="-14"/>
			<point x="474" y="131"/>
			<point x="474" y="283" type="curve" smooth="yes"/>
			<point x="474" y="423"/>
			<point x="398" y="527"/>
			<point x="272" y="527" type="curve" smooth="yes"/>
			<point x="116" y="527"/>
			<point x="47" y="396"/>
			<point x="47" y="229" type="curve" smooth="yes"/>
			<point x="47" y="101"/>
			<point x="115" y="-14"/>
		</contour>
		<contour>
			<point x="249" y="5" type="curve" smooth="yes"/>
			<point x="194" y="5"/>
			<point x="142" y="62"/>
			<point x="142" y="223" type="curve" smooth="yes"/>
			<point x="142" y="405"/>
			<point x="174" y="509"/>
			<point x="267" y="509" type="curve" smooth="yes"/>
			<point x="335" y="509"/>
			<point x="380" y="454"/>
			<point x="380" y="294" type="curve" smooth="yes"/>
			<point x="380" y="75"/>
			<point x="329" y="5"/>
		</contour>
	</outline>
	<anchor name="top" x="271" y="550"/>
</glyph>
<glyph name="pi" format="2">
	<unicode hex="03C0"/>
	<advance width="645"/>
	<outline>
		<contour>
			<point x="444" y="-14" type="curve" smooth="yes"/>
			<point x="481" y="-14"/>
			<point x="533" y="10"/>
			<point x="562" y="37" type="curve"/>
			<point x="553" y="49" type="line"/>
			<point x="522" y="26"/>
			<point x="497" y="18"/>
			<point x="482" y="18" type="curve" smooth="yes"/>
			<point x="460" y="18"/>
			<point x="448" y="24"/>
			<point x="448" y="80" type="curve" smooth="yes"/>
			<point x="448" y="142"/>
			<point x="450" y="317"/>
			<point x="452" y="439" type="curve"/>
			<point x="497" y="436"/>
			<point x="535" y="433"/>
			<point x="555" y="433" type="curve" smooth="yes"/>
			<point x="591" y="433"/>
			<point x="618" y="455"/>
			<point x="618" y="493" type="curve" smooth="yes"/>
			<point x="618" y="515"/>
			<point x="605" y="529"/>
			<point x="591" y="540" type="curve"/>
			<point x="480" y="502" type="line"/>
			<point x="112" y="528" type="line" smooth="yes"/>
			<point x="51" y="532"/>
			<point x="15" y="510"/>
			<point x="15" y="464" type="curve" smooth="yes"/>
			<point x="15" y="423"/>
			<point x="45" y="401"/>
			<point x="90" y="407" type="curve"/>
			<point x="95" y="421" type="line" smooth="yes"/>
			<point x="108" y="457"/>
			<point x="120" y="460"/>
			<point x="139" y="460" type="curve" smooth="yes"/>
			<point x="159" y="460"/>
			<point x="185" y="459"/>
			<point x="213" y="457" type="curve"/>
			<point x="101" y="5" type="line"/>
			<point x="112" y="0" type="line"/>
			<point x="193" y="0" type="line"/>
			<point x="242" y="456" type="line"/>
			<point x="298" y="452"/>
			<point x="361" y="447"/>
			<point x="417" y="442" type="curve"/>
			<point x="379" y="248"/>
			<point x="365" y="119"/>
			<point x="365" y="75" type="curve" smooth="yes"/>
			<point x="365" y="23"/>
			<point x="389" y="-14"/>
		</contour>
	</outline>
</glyph>
<glyph name="upsilon" format="2">
	<unicode hex="03C5"/>
	<advance width="555"/>
	<outline>
		<contour>
			<point x="244" y="-14" type="curve" smooth="yes"/>
			<point x="418" y="-14"/>
			<point x="501" y="217"/>
			<point x="501" y="379" type="curve" smooth="yes"/>
			<point x="501" y="495"/>
			<point x="460" y="527"/>
			<point x="414" y="527" type="curve" smooth="yes"/>
			<point x="373" y="527"/>
			<point x="354" y="496"/>
			<point x="356" y="452" type="curve"/>
			<point x="403" y="439" type="line" smooth="yes"/>
			<point x="444" y="428"/>
			<point x="473" y="413"/>
			<point x="473" y="353" type="curve" smooth="yes"/>
			<point x="473" y="197"/>
			<point x="398" y="31"/>
			<point x="269" y="31" type="curve" smooth="yes"/>
			<point x="207" y="31"/>
			<point x="182" y="70"/>
			<point x="182" y="113" type="curve" smooth="yes"/>
			<point x="182" y="200"/>
			<point x="228" y="410"/>
			<point x="228" y="452" type="curve" smooth="yes"/>
			<point x="228" y="502"/>
			<point x="191" y="527"/>
			<point x="148" y="527" type="curve" smooth="yes"/>
			<point x="105" y="527"/>
			<point x="57" y="502"/>
			<point x="28" y="478" type="curve"/>
			<point x="36" y="467" type="line"/>
			<point x="62" y="487"/>
			<point x="86" y="496"/>
			<point x="107" y="496" type="curve" smooth="yes"/>
			<point x="125" y="496"/>
			<point x="142" y="488"/>
			<point x="142" y="459" type="curve" smooth="yes"/>
			<point x="142" y="409"/>
			<point x="97" y="198"/>
			<point x="97" y="121" type="curve" smooth="yes"/>
			<point x="97" y="54"/>
			<point x="133" y="-14"/>
		</contour>
	</outline>
	<anchor name="top" x="297" y="550"/>
</glyph>
<glyph name="chi" format="2">
	<unicode hex="03C7"/>
	<advance width="497"/>
	<outline>
		<contour>
			<point x="85" y="-230" type="curve" smooth="yes"/>
			<point x="130" y="-230"/>
			<point x="144" y="-201"/>
			<point x="144" y="-155" type="curve"/>
			<point x="105" y="-145" type="line" smooth="yes"/>
			<point x="71" y="-136"/>
			<point x="56" y="-123"/>
			<point x="56" y="-103" type="curve" smooth="yes"/>
			<point x="56" y="-53"/>
			<point x="125" y="23"/>
			<point x="224" y="117" type="curve"/>
			<point x="297" y="-153" type="line" smooth="yes"/>
			<point x="310" y="-201"/>
			<point x="337" y="-230"/>
			<point x="392" y="-230" type="curve" smooth="yes"/>
			<point x="437" y="-230"/>
			<point x="488" y="-203"/>
			<point x="512" y="-181" type="curve"/>
			<point x="504" y="-170" type="line"/>
			<point x="477" y="-193"/>
			<point x="450" y="-199"/>
			<point x="434" y="-199" type="curve" smooth="yes"/>
			<point x="404" y="-199"/>
			<point x="399" y="-178"/>
			<point x="393" y="-158" type="curve" smooth="yes"/>
			<point x="296" y="166" type="line"/>
			<point x="421" y="282"/>
			<point x="495" y="363"/>
			<point x="495" y="442" type="curve" smooth="yes"/>
			<point x="495" y="501"/>
			<point x="463" y="527"/>
			<point x="423" y="527" type="curve" smooth="yes"/>
			<point x="378" y="527"/>
			<point x="360" y="494"/>
			<point x="364" y="452" type="curve"/>
			<point x="403" y="442" type="line" smooth="yes"/>
			<point x="437" y="433"/>
			<point x="452" y="422"/>
			<point x="452" y="398" type="curve" smooth="yes"/>
			<point x="452" y="350"/>
			<point x="383" y="278"/>
			<point x="290" y="188" type="curve"/>
			<point x="221" y="448" type="line" smooth="yes"/>
			<point x="205" y="505"/>
			<point x="176" y="527"/>
			<point x="126" y="527" type="curve" smooth="yes"/>
			<point x="88" y="527"/>
			<point x="36" y="505"/>
			<point x="14" y="494" type="curve"/>
			<point x="20" y="480" type="line"/>
			<point x="48" y="491"/>
			<point x="65" y="499"/>
			<point x="88" y="499" type="curve" smooth="yes"/>
			<point x="110" y="499"/>
			<point x="114" y="485"/>
			<point x="123" y="456" type="curve" smooth="yes"/>
			<point x="218" y="139" type="line"/>
			<point x="86" y="17"/>
			<point x="13" y="-65"/>
			<point x="13" y="-147" type="curve" smooth="yes"/>
			<point x="13" y="-206"/>
			<point x="45" y="-230"/>
		</contour>
	</outline>
</glyph>
<glyph name="kaiSymbol" format="2">
	<unicode hex="03D7"/>
	<advance width="595"/>
	<outline>
		<contour>
			<point x="305" y="-219" type="curve" smooth="yes"/>
			<point x="461" y="-219"/>
			<point x="540" y="-134"/>
			<point x="540" y="-39" type="curve" smooth="yes"/>
			<point x="540" y="23"/>
			<point x="492" y="103"/>
			<point x="448" y="167" type="curve" smooth="yes"/>
			<point x="416" y="213"/>
			<point x="388" y="259"/>
			<point x="388" y="313" type="curve" smooth="yes"/>
			<point x="388" y="330"/>
			<point x="392" y="353"/>
			<point x="402" y="380" type="curve"/>
			<point x="449" y="431"/>
			<point x="516" y="440"/>
			<point x="562" y="442" type="curve"/>
			<point x="567" y="453" type="line"/>
			<point x="543" y="521" type="line"/>
			<point x="419" y="521"/>
			<point x="311" y="439"/>
			<point x="180" y="152" type="curve"/>
			<point x="178" y="153" type="line"/>
			<point x="222" y="345"/>
			<point x="243" y="429"/>
			<point x="243" y="459" type="curve" smooth="yes"/>
			<point x="243" y="511"/>
			<point x="205" y="527"/>
			<point x="168" y="527" type="curve" smooth="yes"/>
			<point x="125" y="527"/>
			<point x="78" y="507"/>
			<point x="52" y="494" type="curve"/>
			<point x="58" y="480" type="line"/>
			<point x="74" y="487"/>
			<point x="102" y="499"/>
			<point x="127" y="499" type="curve" smooth="yes"/>
			<point x="145" y="499"/>
			<point x="157" y="494"/>
			<point x="157" y="463" type="curve" smooth="yes"/>
			<point x="157" y="428"/>
			<point x="99" y="132"/>
			<point x="74" y="0" type="curve"/>
			<point x="148" y="0" type="line"/>
			<point x="192" y="130"/>
			<point x="245" y="233"/>
			<point x="345" y="339" type="curve"/>
			<point x="331" y="308"/>
			<point x="328" y="279"/>
			<point x="328" y="255" type="curve" smooth="yes"/>
			<point x="328" y="194"/>
			<point x="370" y="141"/>
			<point x="409" y="88" type="curve" smooth="yes"/>
			<point x="443" y="42"/>
			<point x="473" y="-15"/>
			<point x="473" y="-68" type="curve" smooth="yes"/>
			<point x="473" y="-156"/>
			<point x="396" y="-196"/>
			<point x="232" y="-196" type="curve"/>
			<point x="230" y="-209" type="line"/>
			<point x="246" y="-215"/>
			<point x="276" y="-219"/>
		</contour>
	</outline>
</glyph>
<glyph name="koppaArchaic" format="2">
	<unicode hex="03D9"/>
	<advance width="539"/>
	<outline>
		<contour>
			<point x="219" y="-161" type="line"/>
			<point x="282" y="-155" type="line"/>
			<point x="281" y="-101"/>
			<point x="280" y="-59"/>
			<point x="280" y="-13" type="curve"/>
			<point x="431" y="1"/>
			<point x="491" y="135"/>
			<point x="491" y="279" type="curve" smooth="yes"/>
			<point x="491" y="428"/>
			<point x="415" y="527"/>
			<point x="283" y="527" type="curve" smooth="yes"/>
			<point x="112" y="527"/>
			<point x="48" y="390"/>
			<point x="48" y="236" type="curve" smooth="yes"/>
			<point x="48" y="96"/>
			<point x="115" y="-4"/>
			<point x="234" y="-13" type="curve"/>
			<point x="227" y="-60"/>
			<point x="219" y="-105"/>
			<point x="209" y="-157" type="curve"/>
		</contour>
		<contour>
			<point x="280" y="6" type="curve"/>
			<point x="280" y="44"/>
			<point x="280" y="85"/>
			<point x="281" y="138" type="curve"/>
			<point x="270" y="143" type="line"/>
			<point x="259" y="142" type="line"/>
			<point x="251" y="91"/>
			<point x="245" y="48"/>
			<point x="238" y="7" type="curve"/>
			<point x="172" y="21"/>
			<point x="143" y="100"/>
			<point x="143" y="236" type="curve" smooth="yes"/>
			<point x="143" y="397"/>
			<point x="172" y="509"/>
			<point x="279" y="509" type="curve" smooth="yes"/>
			<point x="370" y="509"/>
			<point x="397" y="429"/>
			<point x="397" y="280" type="curve" smooth="yes"/>
			<point x="397" y="129"/>
			<point x="371" y="20"/>
		</contour>
	</outline>
</glyph>
<glyph name="stigma" format="2">
	<unicode hex="03DB"/>
	<advance width="459"/>
	<outline>
		<contour>
			<point x="280" y="-231" type="line"/>
			<point x="321" y="-189"/>
			<point x="376" y="-126"/>
			<point x="376" y="-67" type="curve" smooth="yes"/>
			<point x="376" y="-4"/>
			<point x="353" y="19"/>
			<point x="256" y="66" type="curve" smooth="yes"/>
			<point x="163" y="112"/>
			<point x="128" y="159"/>
			<point x="128" y="259" type="curve" smooth="yes"/>
			<point x="128" y="397"/>
			<point x="199" y="453"/>
			<point x="332" y="452" type="curve" smooth="yes"/>
			<point x="392" y="451"/>
			<point x="434" y="468"/>
			<point x="434" y="538" type="curve" smooth="yes"/>
			<point x="434" y="562"/>
			<point x="423" y="593"/>
			<point x="387" y="627" type="curve"/>
			<point x="380" y="622" type="line"/>
			<point x="385" y="607"/>
			<point x="390" y="592"/>
			<point x="390" y="575" type="curve" smooth="yes"/>
			<point x="390" y="528"/>
			<point x="359" y="527"/>
			<point x="334" y="527" type="curve" smooth="yes"/>
			<point x="161" y="527"/>
			<point x="48" y="417"/>
			<point x="48" y="244" type="curve" smooth="yes"/>
			<point x="48" y="135"/>
			<point x="83" y="53"/>
			<point x="210" y="-12" type="curve" smooth="yes"/>
			<point x="297" y="-56"/>
			<point x="312" y="-71"/>
			<point x="312" y="-112" type="curve" smooth="yes"/>
			<point x="312" y="-147"/>
			<point x="301" y="-178"/>
			<point x="268" y="-222" type="curve"/>
		</contour>
	</outline>
</glyph>
<glyph name="Koppa" format="2">
	<unicode hex="03DE"/>
	<advance width="566"/>
	<outline>
		<contour>
			<point x="309" y="-90" type="curve" smooth="yes"/>
			<point x="336" y="-90"/>
			<point x="369" y="-80"/>
			<point x="402" y="-43" type="curve"/>
			<point x="397" y="-36" type="line"/>
			<point x="378" y="-45"/>
			<point x="367" y="-50"/>
			<point x="351" y="-50" type="curve" smooth="yes"/>
			<point x="319" y="-50"/>
			<point x="306" y="-26"/>
			<point x="307" y="1" type="curve" smooth="yes"/>
			<point x="310" y="57"/>
			<point x="334" y="127"/>
			<point x="492" y="287" type="curve" smooth="yes"/>
			<point x="525" y="320" type="line"/>
			<point x="486" y="386" type="line"/>
			<point x="123" y="190" type="line"/>
			<point x="305" y="403"/>
			<point x="359" y="464"/>
			<point x="359" y="528" type="curve" smooth="yes"/>
			<point x="359" y="572"/>
			<point x="333" y="610"/>
			<point x="272" y="610" type="curve" smooth="yes"/>
			<point x="245" y="610"/>
			<point x="212" y="600"/>
			<point x="179" y="563" type="curve"/>
			<point x="184" y="556" type="line"/>
			<point x="203" y="565"/>
			<point x="214" y="570"/>
			<point x="230" y="570" type="curve" smooth="yes"/>
			<point x="261" y="570"/>
			<point x="274" y="548"/>
			<point x="274" y="522" type="curve" smooth="yes"/>
			<point x="274" y="465"/>
			<point x="226" y="398"/>
			<point x="94" y="218" type="curve" smooth="yes"/>
			<point x="43" y="149" type="line"/>
			<point x="59" y="124" type="line"/>
			<point x="419" y="285" type="line"/>
			<point x="258" y="109"/>
			<point x="222" y="51"/>
			<point x="222" y="-11" type="curve" smooth="yes"/>
			<point x="222" y="-54"/>
			<point x="250" y="-90"/>
		</contour>
	</outline>
</glyph>
<glyph name="sampi" format="2">
	<unicode hex="03E1"/>
	<advance width="600"/>
	<outline>
		<contour>
			<point x="452" y="-247" type="line"/>
			<point x="500" y="-144"/>
			<point x="532" y="-14"/>
			<point x="532" y="94" type="curve" smooth="yes"/>
			<point x="532" y="303"/>
			<point x="420" y="460"/>
			<point x="201" y="512" type="curve"/>
			<point x="184" y="470" type="line"/>
			<point x="277" y="446"/>
			<point x="346" y="402"/>
			<point x="394" y="346" type="curve"/>
			<point x="118" y="236" type="line" smooth="yes"/>
			<point x="89" y="224"/>
			<point x="76" y="219"/>
			<point x="64" y="241" type="curve" smooth="yes"/>
			<point x="40" y="283" type="line"/>
			<point x="16" y="274" type="line"/>
			<point x="80" y="91" type="line"/>
			<point x="104" y="100" type="line"/>
			<point x="97" y="148" type="line" smooth="yes"/>
			<point x="94" y="169"/>
			<point x="96" y="175"/>
			<point x="129" y="188" type="curve" smooth="yes"/>
			<point x="424" y="304" type="line"/>
			<point x="456" y="252"/>
			<point x="474" y="192"/>
			<point x="479" y="127" type="curve"/>
			<point x="196" y="14" type="line" smooth="yes"/>
			<point x="166" y="2"/>
			<point x="152" y="-2"/>
			<point x="141" y="19" type="curve"/>
			<point x="117" y="61" type="line"/>
			<point x="94" y="52" type="line"/>
			<point x="157" y="-131" type="line"/>
			<point x="182" y="-122" type="line"/>
			<point x="174" y="-74" type="line" smooth="yes"/>
			<point x="171" y="-53"/>
			<point x="174" y="-46"/>
			<point x="206" y="-34" type="curve" smooth="yes"/>
			<point x="481" y="74" type="line"/>
			<point x="479" y="-25"/>
			<point x="449" y="-140"/>
			<point x="402" y="-238" type="curve"/>
		</contour>
	</outline>
</glyph>
<glyph name="Dje-cy" format="2">
	<unicode hex="0402"/>
	<advance width="782"/>
	<outline>
		<contour>
			<point x="162" y="18" type="line"/>
			<point x="160" y="0" type="line"/>
			<point x="458" y="0" type="line"/>
			<point x="460" y="18" type="line"/>
			<point x="358" y="30" type="line"/>
			<point x="370" y="345" type="line"/>
			<point x="418" y="376"/>
			<point x="465" y="394"/>
			<point x="522" y="394" type="curve" smooth="yes"/>
			<point x="613" y="394"/>
			<point x="664" y="329"/>
			<point x="664" y="219" type="curve" smooth="yes"/>
			<point x="664" y="83"/>
			<point x="613" y="-6"/>
			<point x="532" y="-90" type="curve"/>
			<point x="544" y="-105" type="line"/>
			<point x="654" y="-37"/>
			<point x="755" y="79"/>
			<point x="755" y="233" type="curve" smooth="yes"/>
			<point x="755" y="352"/>
			<point x="666" y="420"/>
			<point x="549" y="420" type="curve" smooth="yes"/>
			<point x="478" y="420"/>
			<point x="421" y="399"/>
			<point x="370" y="370" type="curve"/>
			<point x="383" y="707" type="line"/>
			<point x="501" y="707" type="line" smooth="yes"/>
			<point x="562" y="707"/>
			<point x="586" y="692"/>
			<point x="608" y="615" type="curve" smooth="yes"/>
			<point x="627" y="548" type="line"/>
			<point x="649" y="553" type="line"/>
			<point x="635" y="730" type="line"/>
			<point x="85" y="730" type="line"/>
			<point x="61" y="554" type="line"/>
			<point x="83" y="549" type="line"/>
			<point x="106" y="618" type="line" smooth="yes"/>
			<point x="132" y="695"/>
			<point x="154" y="707"/>
			<point x="212" y="707" type="curve" smooth="yes"/>
			<point x="298" y="707" type="line"/>
			<point x="270" y="30" type="line"/>
		</contour>
	</outline>
</glyph>
<glyph name="E-cy" format="2">
	<unicode hex="0404"/>
	<advance width="614"/>
	<outline>
		<contour>
			<point x="490" y="604" type="curve" smooth="yes"/>
			<point x="472" y="566" type="line"/>
			<point x="491" y="550"/>
			<point x="520" y="540"/>
			<point x="542" y="540" type="curve" smooth="yes"/>
			<point x="571" y="540"/>
			<point x="595" y="565"/>
			<point x="595" y="600" type="curve" smooth="yes"/>
			<point x="595" y="688"/>
			<point x="489" y="745"/>
			<point x="376" y="745" type="curve" smooth="yes"/>
			<point x="182" y="745"/>
			<point x="60" y="596"/>
			<point x="60" y="341" type="curve" smooth="yes"/>
			<point x="60" y="119"/>
			<point x="163" y="-14"/>
			<point x="340" y="-14" type="curve" smooth="yes"/>
			<point x="434" y="-14"/>
			<point x="515" y="30"/>
			<point x="582" y="128" type="curve"/>
			<point x="569" y="139" type="line"/>
			<point x="502" y="57"/>
			<point x="444" y="25"/>
			<point x="359" y="25" type="curve" smooth="yes"/>
			<point x="238" y="25"/>
			<point x="154" y="125"/>
			<point x="154" y="350" type="curve"/>
			<point x="487" y="350" type="line"/>
			<point x="488" y="373" type="line"/>
			<point x="154" y="373" type="line"/>
			<point x="154" y="605"/>
			<point x="242" y="722"/>
			<point x="374" y="722" type="curve" smooth="yes"/>
			<point x="457" y="722"/>
			<point x="526" y="680"/>
		</contour>
	</outline>
	<anchor name="top" x="362" y="730"/>
</glyph>
<glyph name="Nje-cy" format="2">
	<unicode hex="040A"/>
	<advance width="998"/>
	<outline>
		<contour>
			<point x="552" y="363" type="line"/>
			<point x="539" y="30" type="line"/>
			<point x="455" y="18" type="line"/>
			<point x="453" y="0" type="line"/>
			<point x="675" y="0" type="line" smooth="yes"/>
			<point x="870" y="0"/>
			<point x="976" y="89"/>
			<point x="976" y="231" type="curve" smooth="yes"/>
			<point x="976" y="345"/>
			<point x="881" y="409"/>
			<point x="756" y="409" type="curve" smooth="yes"/>
			<point x="722" y="409"/>
			<point x="699" y="405"/>
			<point x="670" y="400" type="curve"/>
			<point x="669" y="378" type="line"/>
			<point x="693" y="382"/>
			<point x="709" y="384"/>
			<point x="735" y="384" type="curve" smooth="yes"/>
			<point x="821" y="384"/>
			<point x="880" y="337"/>
			<point x="880" y="226" type="curve" smooth="yes"/>
			<point x="880" y="94"/>
			<point x="816" y="20"/>
			<point x="684" y="20" type="curve" smooth="yes"/>
			<point x="625" y="20" type="line"/>
			<point x="652" y="695" type="line"/>
			<point x="741" y="713" type="line"/>
			<point x="743" y="730" type="line"/>
			<point x="485" y="730" type="line"/>
			<point x="483" y="713" type="line"/>
			<point x="565" y="698" type="line"/>
			<point x="553" y="386" type="line"/>
			<point x="245" y="386" type="line"/>
			<point x="257" y="698" type="line"/>
			<point x="346" y="713" type="line"/>
			<point x="348" y="730" type="line"/>
			<point x="90" y="730" type="line"/>
			<point x="88" y="713" type="line"/>
			<point x="170" y="698" type="line"/>
			<point x="143" y="30" type="line"/>
			<point x="59" y="18" type="line"/>
			<point x="57" y="0" type="line"/>
			<point x="322" y="0" type="line"/>
			<point x="324" y="18" type="line"/>
			<point x="231" y="30" type="line"/>
			<point x="245" y="363" type="line"/>
		</contour>
	</outline>
</glyph>
<glyph name="Tshe-cy" format="2">
	<unicode hex="040B"/>
	<advance width="861"/>
	<outline>
		<contour>
			<point x="370" y="368" type="curve"/>
			<point x="383" y="707" type="line"/>
			<point x="501" y="707" type="line" smooth="yes"/>
			<point x="562" y="707"/>
			<point x="586" y="692"/>
			<point x="608" y="615" type="curve" smooth="yes"/>
			<point x="627" y="548" type="line"/>
			<point x="649" y="553" type="line"/>
			<point x="635" y="730" type="line"/>
			<point x="85" y="730" type="line"/>
			<point x="61" y="554" type="line"/>
			<point x="83" y="549" type="line"/>
			<point x="106" y="618" type="line" smooth="yes"/>
			<point x="132" y="695"/>
			<point x="154" y="707"/>
			<point x="212" y="707" type="curve" smooth="yes"/>
			<point x="298" y="707" type="line"/>
			<point x="270" y="30" type="line"/>
			<point x="162" y="18" type="line"/>
			<point x="160" y="0" type="line"/>
			<point x="458" y="0" type="line"/>
			<point x="460" y="18" type="line"/>
			<point x="358" y="30" type="line"/>
			<point x="370" y="343" type="line"/>
			<point x="431" y="383"/>
			<point x="482" y="404"/>
			<point x="546" y="404" type="curve" smooth="yes"/>
			<point x="629" y="404"/>
			<point x="669" y="360"/>
			<point x="669" y="257" type="curve" smooth="yes"/>
			<point x="669" y="171"/>
			<point x="664" y="96"/>
			<point x="659" y="30" type="curve"/>
			<point x="575" y="18" type="line"/>
			<point x="573" y="0" type="line"/>
			<point x="837" y="0" type="line"/>
			<point x="839" y="18" type="line"/>
			<point x="745" y="30" type="line"/>
			<point x="750" y="100"/>
			<point x="755" y="189"/>
			<point x="755" y="269" type="curve" smooth="yes"/>
			<point x="755" y="376"/>
			<point x="676" y="434"/>
			<point x="578" y="434" type="curve" smooth="yes"/>
			<point x="484" y="434"/>
			<point x="412" y="395"/>
		</contour>
	</outline>
</glyph>
<glyph name="Be-cy" format="2">
	<unicode hex="0411"/>
	<advance width="615"/>
	<outline>
		<contour>
			<point x="60" y="18" type="line"/>
			<point x="58" y="0" type="line"/>
			<point x="285" y="0" type="line" smooth="yes"/>
			<point x="480" y="0"/>
			<point x="588" y="90"/>
			<point x="588" y="235" type="curve" smooth="yes"/>
			<point x="588" y="345"/>
			<point x="489" y="409"/>
			<point x="366" y="409" type="curve" smooth="yes"/>
			<point x="332" y="409"/>
			<point x="304" y="405"/>
			<point x="275" y="400" type="curve"/>
			<point x="274" y="378" type="line"/>
			<point x="298" y="382"/>
			<point x="319" y="385"/>
			<point x="345" y="385" type="curve" smooth="yes"/>
			<point x="431" y="385"/>
			<point x="492" y="337"/>
			<point x="492" y="228" type="curve" smooth="yes"/>
			<point x="492" y="97"/>
			<point x="424" y="20"/>
			<point x="284" y="20" type="curve" smooth="yes"/>
			<point x="230" y="20" type="line"/>
			<point x="258" y="707" type="line"/>
			<point x="398" y="707" type="line" smooth="yes"/>
			<point x="460" y="707"/>
			<point x="485" y="691"/>
			<point x="502" y="624" type="curve" smooth="yes"/>
			<point x="521" y="551" type="line"/>
			<point x="543" y="554" type="line"/>
			<point x="528" y="730" type="line"/>
			<point x="90" y="730" type="line"/>
			<point x="88" y="713" type="line"/>
			<point x="170" y="698" type="line"/>
			<point x="144" y="30" type="line"/>
		</contour>
	</outline>
</glyph>
<glyph name="De-cy" format="2">
	<unicode hex="0414"/>
	<advance width="686"/>
	<outline>
		<contour>
			<point x="2" y="-164" type="line"/>
			<point x="25" y="-164" type="line"/>
			<point x="36" y="-41"/>
			<point x="53" y="0"/>
			<point x="136" y="0" type="curve" smooth="yes"/>
			<point x="540" y="0" type="line" smooth="yes"/>
			<point x="605" y="0"/>
			<point x="617" y="-25"/>
			<point x="608" y="-163" type="curve"/>
			<point x="630" y="-165" type="line"/>
			<point x="654" y="23" type="line"/>
			<point x="546" y="23" type="line"/>
			<point x="573" y="698" type="line"/>
			<point x="662" y="713" type="line"/>
			<point x="664" y="730" type="line"/>
			<point x="165" y="730" type="line"/>
			<point x="163" y="713" type="line"/>
			<point x="245" y="698" type="line"/>
			<point x="234" y="498"/>
			<point x="210" y="189"/>
			<point x="87" y="23" type="curve"/>
			<point x="8" y="23" type="line"/>
		</contour>
		<contour>
			<point x="119" y="23" type="line"/>
			<point x="219" y="171"/>
			<point x="257" y="421"/>
			<point x="271" y="707" type="curve"/>
			<point x="487" y="707" type="line"/>
			<point x="458" y="23" type="line"/>
		</contour>
	</outline>
	<guideline x="25" y="-164" angle="0"/>
</glyph>
<glyph name="Ze-cy" format="2">
	<unicode hex="0417"/>
	<advance width="545"/>
	<outline>
		<contour>
			<point x="78" y="603" type="curve"/>
			<point x="92" y="591" type="line"/>
			<point x="152" y="677"/>
			<point x="209" y="708"/>
			<point x="276" y="708" type="curve" smooth="yes"/>
			<point x="351" y="708"/>
			<point x="387" y="657"/>
			<point x="387" y="584" type="curve" smooth="yes"/>
			<point x="387" y="491"/>
			<point x="347" y="422"/>
			<point x="284" y="402" type="curve" smooth="yes"/>
			<point x="265" y="396"/>
			<point x="215" y="391"/>
			<point x="193" y="389" type="curve"/>
			<point x="191" y="366" type="line"/>
			<point x="215" y="369"/>
			<point x="258" y="372"/>
			<point x="281" y="372" type="curve" smooth="yes"/>
			<point x="368" y="372"/>
			<point x="415" y="322"/>
			<point x="415" y="218" type="curve" smooth="yes"/>
			<point x="415" y="95"/>
			<point x="354" y="9"/>
			<point x="243" y="9" type="curve" smooth="yes"/>
			<point x="165" y="9"/>
			<point x="108" y="53"/>
			<point x="143" y="127" type="curve" smooth="yes"/>
			<point x="161" y="165" type="line"/>
			<point x="142" y="181"/>
			<point x="113" y="191"/>
			<point x="91" y="191" type="curve" smooth="yes"/>
			<point x="62" y="191"/>
			<point x="38" y="166"/>
			<point x="38" y="130" type="curve" smooth="yes"/>
			<point x="38" y="43"/>
			<point x="130" y="-14"/>
			<point x="253" y="-14" type="curve" smooth="yes"/>
			<point x="393" y="-14"/>
			<point x="512" y="76"/>
			<point x="512" y="215" type="curve" smooth="yes"/>
			<point x="512" y="314"/>
			<point x="454" y="380"/>
			<point x="333" y="394" type="curve"/>
			<point x="333" y="396" type="line"/>
			<point x="430" y="430"/>
			<point x="484" y="492"/>
			<point x="484" y="586" type="curve" smooth="yes"/>
			<point x="484" y="688"/>
			<point x="409" y="745"/>
			<point x="307" y="745" type="curve" smooth="yes"/>
			<point x="209" y="745"/>
			<point x="133" y="696"/>
		</contour>
	</outline>
	<guideline x="330" y="745" angle="0"/>
	<guideline x="297" y="-14" angle="0"/>
</glyph>
<glyph name="Ii-cy" format="2">
	<unicode hex="0418"/>
	<advance width="769"/>
	<outline>
		<contour>
			<point x="566" y="548" type="line"/>
			<point x="544" y="30" type="line"/>
			<point x="460" y="18" type="line"/>
			<point x="458" y="0" type="line"/>
			<point x="723" y="0" type="line"/>
			<point x="725" y="18" type="line"/>
			<point x="632" y="30" type="line"/>
			<point x="658" y="698" type="line"/>
			<point x="747" y="713" type="line"/>
			<point x="749" y="730" type="line"/>
			<point x="492" y="730" type="line"/>
			<point x="490" y="713" type="line"/>
			<point x="572" y="698" type="line"/>
			<point x="566" y="583" type="line"/>
			<point x="236" y="148" type="line"/>
			<point x="257" y="698" type="line"/>
			<point x="346" y="713" type="line"/>
			<point x="348" y="730" type="line"/>
			<point x="90" y="730" type="line"/>
			<point x="88" y="713" type="line"/>
			<point x="170" y="698" type="line"/>
			<point x="143" y="30" type="line"/>
			<point x="59" y="18" type="line"/>
			<point x="57" y="0" type="line"/>
			<point x="322" y="0" type="line"/>
			<point x="324" y="18" type="line"/>
			<point x="231" y="30" type="line"/>
			<point x="236" y="112" type="line"/>
		</contour>
	</outline>
	<anchor name="top" x="422" y="730"/>
</glyph>
<glyph name="Ka-cy" format="2">
	<unicode hex="041A"/>
	<advance width="694"/>
	<outline>
		<contour>
			<point x="272" y="399" type="curve"/>
			<point x="271" y="375" type="line"/>
			<point x="345" y="362"/>
			<point x="385" y="330"/>
			<point x="429" y="190" type="curve" smooth="yes"/>
			<point x="437" y="164"/>
			<point x="445" y="141"/>
			<point x="453" y="121" type="curve" smooth="yes"/>
			<point x="496" y="10"/>
			<point x="533" y="-14"/>
			<point x="595" y="-14" type="curve" smooth="yes"/>
			<point x="635" y="-14"/>
			<point x="675" y="5"/>
			<point x="702" y="31" type="curve"/>
			<point x="693" y="44" type="line"/>
			<point x="673" y="32"/>
			<point x="655" y="26"/>
			<point x="639" y="26" type="curve" smooth="yes"/>
			<point x="600" y="26"/>
			<point x="580" y="42"/>
			<point x="539" y="150" type="curve" smooth="yes"/>
			<point x="533" y="167"/>
			<point x="526" y="186"/>
			<point x="518" y="208" type="curve" smooth="yes"/>
			<point x="476" y="328"/>
			<point x="413" y="379"/>
			<point x="313" y="388" type="curve"/>
			<point x="313" y="391" type="line"/>
			<point x="380" y="414"/>
			<point x="421" y="442"/>
			<point x="480" y="562" type="curve" smooth="yes"/>
			<point x="510" y="623"/>
			<point x="529" y="661"/>
			<point x="544" y="661" type="curve" smooth="yes"/>
			<point x="555" y="661"/>
			<point x="560" y="656"/>
			<point x="570" y="644" type="curve" smooth="yes"/>
			<point x="599" y="612" type="line"/>
			<point x="625" y="626"/>
			<point x="649" y="655"/>
			<point x="649" y="689" type="curve" smooth="yes"/>
			<point x="649" y="718"/>
			<point x="623" y="744"/>
			<point x="595" y="744" type="curve" smooth="yes"/>
			<point x="541" y="744"/>
			<point x="505" y="673"/>
			<point x="465" y="587" type="curve" smooth="yes"/>
			<point x="406" y="459"/>
			<point x="357" y="421"/>
		</contour>
		<contour>
			<point x="170" y="698" type="line"/>
			<point x="143" y="30" type="line"/>
			<point x="59" y="18" type="line"/>
			<point x="56" y="0" type="line"/>
			<point x="322" y="0" type="line"/>
			<point x="324" y="18" type="line"/>
			<point x="231" y="30" type="line"/>
			<point x="257" y="698" type="line"/>
			<point x="346" y="713" type="line"/>
			<point x="348" y="730" type="line"/>
			<point x="90" y="730" type="line"/>
			<point x="88" y="713" type="line"/>
		</contour>
	</outline>
	<anchor name="top" x="392" y="730"/>
</glyph>
<glyph name="El-cy" format="2">
	<unicode hex="041B"/>
	<advance width="707"/>
	<outline>
		<contour>
			<point x="510" y="707" type="line"/>
			<point x="482" y="30" type="line"/>
			<point x="398" y="18" type="line"/>
			<point x="396" y="0" type="line"/>
			<point x="661" y="0" type="line"/>
			<point x="663" y="18" type="line"/>
			<point x="570" y="30" type="line"/>
			<point x="596" y="698" type="line"/>
			<point x="685" y="713" type="line"/>
			<point x="687" y="730" type="line"/>
			<point x="188" y="730" type="line"/>
			<point x="186" y="713" type="line"/>
			<point x="268" y="698" type="line"/>
			<point x="257" y="493"/>
			<point x="225" y="158"/>
			<point x="131" y="56" type="curve"/>
			<point x="79" y="129" type="line"/>
			<point x="37" y="118"/>
			<point x="10" y="92"/>
			<point x="10" y="55" type="curve" smooth="yes"/>
			<point x="10" y="16"/>
			<point x="40" y="-9"/>
			<point x="79" y="-9" type="curve" smooth="yes"/>
			<point x="226" y="-9"/>
			<point x="280" y="410"/>
			<point x="295" y="707" type="curve"/>
		</contour>
	</outline>
</glyph>
<glyph name="Pe-cy" format="2">
	<unicode hex="041F"/>
	<advance width="769"/>
	<outline>
		<contour>
			<point x="57" y="0" type="line"/>
			<point x="322" y="0" type="line"/>
			<point x="324" y="18" type="line"/>
			<point x="231" y="30" type="line"/>
			<point x="257" y="707" type="line"/>
			<point x="572" y="707" type="line"/>
			<point x="544" y="30" type="line"/>
			<point x="460" y="18" type="line"/>
			<point x="458" y="0" type="line"/>
			<point x="723" y="0" type="line"/>
			<point x="725" y="18" type="line"/>
			<point x="632" y="30" type="line"/>
			<point x="658" y="698" type="line"/>
			<point x="747" y="713" type="line"/>
			<point x="749" y="730" type="line"/>
			<point x="90" y="730" type="line"/>
			<point x="88" y="713" type="line"/>
			<point x="170" y="698" type="line"/>
			<point x="143" y="30" type="line"/>
			<point x="59" y="18" type="line"/>
		</contour>
	</outline>
</glyph>
<glyph name="Ef-cy" format="2">
	<unicode hex="0424"/>
	<advance width="779"/>
	<outline>
		<contour>
			<point x="259" y="0" type="line"/>
			<point x="525" y="0" type="line"/>
			<point x="527" y="18" type="line"/>
			<point x="434" y="30" type="line"/>
			<point x="439" y="153" type="line"/>
			<point x="464" y="146"/>
			<point x="493" y="142"/>
			<point x="527" y="142" type="curve" smooth="yes"/>
			<point x="649" y="142"/>
			<point x="756" y="228"/>
			<point x="756" y="400" type="curve" smooth="yes"/>
			<point x="756" y="531"/>
			<point x="665" y="625"/>
			<point x="539" y="625" type="curve" smooth="yes"/>
			<point x="512" y="625"/>
			<point x="484" y="621"/>
			<point x="457" y="613" type="curve"/>
			<point x="461" y="712" type="line"/>
			<point x="550" y="727" type="line"/>
			<point x="552" y="744" type="line"/>
			<point x="294" y="744" type="line"/>
			<point x="292" y="727" type="line"/>
			<point x="374" y="712" type="line"/>
			<point x="370" y="613" type="line"/>
			<point x="345" y="620"/>
			<point x="318" y="625"/>
			<point x="281" y="625" type="curve" smooth="yes"/>
			<point x="159" y="625"/>
			<point x="52" y="539"/>
			<point x="52" y="377" type="curve" smooth="yes"/>
			<point x="52" y="236"/>
			<point x="143" y="142"/>
			<point x="274" y="142" type="curve" smooth="yes"/>
			<point x="301" y="142"/>
			<point x="328" y="146"/>
			<point x="352" y="153" type="curve"/>
			<point x="346" y="30" type="line"/>
			<point x="262" y="18" type="line"/>
		</contour>
		<contour>
			<point x="294" y="164" type="curve" smooth="yes"/>
			<point x="206" y="164"/>
			<point x="150" y="234"/>
			<point x="150" y="370" type="curve" smooth="yes"/>
			<point x="150" y="510"/>
			<point x="207" y="603"/>
			<point x="303" y="603" type="curve" smooth="yes"/>
			<point x="329" y="603"/>
			<point x="351" y="600"/>
			<point x="369" y="595" type="curve"/>
			<point x="352" y="171" type="line"/>
			<point x="333" y="166"/>
			<point x="313" y="164"/>
		</contour>
		<contour>
			<point x="440" y="171" type="curve"/>
			<point x="457" y="595" type="line"/>
			<point x="475" y="601"/>
			<point x="495" y="603"/>
			<point x="514" y="603" type="curve" smooth="yes"/>
			<point x="602" y="603"/>
			<point x="658" y="533"/>
			<point x="658" y="397" type="curve" smooth="yes"/>
			<point x="658" y="258"/>
			<point x="600" y="163"/>
			<point x="504" y="163" type="curve" smooth="yes"/>
			<point x="479" y="163"/>
			<point x="458" y="167"/>
		</contour>
	</outline>
	<guideline x="547" y="-17" angle="0"/>
	<guideline x="547" y="744" angle="0"/>
	<guideline x="456" y="603" angle="0"/>
</glyph>
<glyph name="Che-cy" format="2">
	<unicode hex="0427"/>
	<advance width="724"/>
	<outline>
		<contour>
			<point x="513" y="362" type="curve"/>
			<point x="499" y="30" type="line"/>
			<point x="415" y="18" type="line"/>
			<point x="413" y="0" type="line"/>
			<point x="678" y="0" type="line"/>
			<point x="680" y="18" type="line"/>
			<point x="587" y="30" type="line"/>
			<point x="613" y="698" type="line"/>
			<point x="702" y="713" type="line"/>
			<point x="704" y="730" type="line"/>
			<point x="447" y="730" type="line"/>
			<point x="445" y="713" type="line"/>
			<point x="527" y="698" type="line"/>
			<point x="514" y="389" type="line"/>
			<point x="458" y="340"/>
			<point x="392" y="314"/>
			<point x="327" y="314" type="curve" smooth="yes"/>
			<point x="243" y="314"/>
			<point x="202" y="359"/>
			<point x="202" y="446" type="curve" smooth="yes"/>
			<point x="202" y="534"/>
			<point x="206" y="603"/>
			<point x="213" y="698" type="curve"/>
			<point x="301" y="713" type="line"/>
			<point x="303" y="730" type="line"/>
			<point x="46" y="730" type="line"/>
			<point x="44" y="713" type="line"/>
			<point x="127" y="698" type="line"/>
			<point x="122" y="616"/>
			<point x="118" y="550"/>
			<point x="118" y="466" type="curve" smooth="yes"/>
			<point x="118" y="339"/>
			<point x="201" y="286"/>
			<point x="311" y="286" type="curve" smooth="yes"/>
			<point x="385" y="286"/>
			<point x="462" y="318"/>
		</contour>
	</outline>
</glyph>
<glyph name="Sha-cy" format="2">
	<unicode hex="0428"/>
	<advance width="1119"/>
	<outline>
		<contour>
			<point x="57" y="0" type="line"/>
			<point x="1073" y="0" type="line"/>
			<point x="1075" y="18" type="line"/>
			<point x="982" y="30" type="line"/>
			<point x="1008" y="698" type="line"/>
			<point x="1097" y="713" type="line"/>
			<point x="1099" y="730" type="line"/>
			<point x="842" y="730" type="line"/>
			<point x="840" y="713" type="line"/>
			<point x="922" y="698" type="line"/>
			<point x="894" y="23" type="line"/>
			<point x="606" y="23" type="line"/>
			<point x="632" y="698" type="line"/>
			<point x="721" y="713" type="line"/>
			<point x="723" y="730" type="line"/>
			<point x="466" y="730" type="line"/>
			<point x="464" y="713" type="line"/>
			<point x="546" y="698" type="line"/>
			<point x="518" y="23" type="line"/>
			<point x="230" y="23" type="line"/>
			<point x="257" y="698" type="line"/>
			<point x="346" y="713" type="line"/>
			<point x="348" y="730" type="line"/>
			<point x="90" y="730" type="line"/>
			<point x="88" y="713" type="line"/>
			<point x="170" y="698" type="line"/>
			<point x="143" y="30" type="line"/>
			<point x="59" y="18" type="line"/>
		</contour>
	</outline>
</glyph>
<glyph name="Hardsign-cy" format="2">
	<unicode hex="042A"/>
	<advance width="712"/>
	<outline>
		<contour>
			<point x="275" y="707" type="line"/>
			<point x="248" y="30" type="line"/>
			<point x="164" y="18" type="line"/>
			<point x="162" y="0" type="line"/>
			<point x="389" y="0" type="line" smooth="yes"/>
			<point x="584" y="0"/>
			<point x="690" y="89"/>
			<point x="690" y="234" type="curve" smooth="yes"/>
			<point x="690" y="345"/>
			<point x="595" y="409"/>
			<point x="470" y="409" type="curve" smooth="yes"/>
			<point x="436" y="409"/>
			<point x="408" y="405"/>
			<point x="379" y="400" type="curve"/>
			<point x="378" y="378" type="line"/>
			<point x="402" y="382"/>
			<point x="423" y="384"/>
			<point x="449" y="384" type="curve" smooth="yes"/>
			<point x="535" y="384"/>
			<point x="594" y="337"/>
			<point x="594" y="225" type="curve" smooth="yes"/>
			<point x="594" y="94"/>
			<point x="530" y="20"/>
			<point x="388" y="20" type="curve" smooth="yes"/>
			<point x="334" y="20" type="line"/>
			<point x="361" y="695" type="line"/>
			<point x="450" y="713" type="line"/>
			<point x="452" y="730" type="line"/>
			<point x="75" y="730" type="line"/>
			<point x="51" y="554" type="line"/>
			<point x="73" y="549" type="line"/>
			<point x="96" y="618" type="line" smooth="yes"/>
			<point x="122" y="695"/>
			<point x="144" y="707"/>
			<point x="202" y="707" type="curve" smooth="yes"/>
		</contour>
	</outline>
	<anchor name="top" x="268" y="730"/>
</glyph>
<glyph name="Iu-cy" format="2">
	<unicode hex="042E"/>
	<advance width="1035"/>
	<outline>
		<contour>
			<point x="245" y="363" type="line"/>
			<point x="402" y="363" type="line"/>
			<point x="402" y="123"/>
			<point x="508" y="-14"/>
			<point x="686" y="-14" type="curve" smooth="yes"/>
			<point x="869" y="-14"/>
			<point x="996" y="138"/>
			<point x="996" y="397" type="curve" smooth="yes"/>
			<point x="996" y="614"/>
			<point x="876" y="745"/>
			<point x="719" y="745" type="curve" smooth="yes"/>
			<point x="538" y="745"/>
			<point x="416" y="617"/>
			<point x="403" y="386" type="curve"/>
			<point x="245" y="386" type="line"/>
			<point x="257" y="698" type="line"/>
			<point x="346" y="713" type="line"/>
			<point x="348" y="730" type="line"/>
			<point x="90" y="730" type="line"/>
			<point x="88" y="713" type="line"/>
			<point x="170" y="698" type="line"/>
			<point x="143" y="30" type="line"/>
			<point x="59" y="18" type="line"/>
			<point x="57" y="0" type="line"/>
			<point x="322" y="0" type="line"/>
			<point x="324" y="18" type="line"/>
			<point x="231" y="30" type="line"/>
		</contour>
		<contour>
			<point x="497" y="364" type="curve" smooth="yes"/>
			<point x="497" y="622"/>
			<point x="578" y="728"/>
			<point x="705" y="728" type="curve" smooth="yes"/>
			<point x="825" y="728"/>
			<point x="899" y="628"/>
			<point x="899" y="385" type="curve" smooth="yes"/>
			<point x="899" y="112"/>
			<point x="823" y="4"/>
			<point x="699" y="4" type="curve" smooth="yes"/>
			<point x="578" y="4"/>
			<point x="497" y="112"/>
		</contour>
	</outline>
	<anchor name="top" x="716" y="730"/>
</glyph>
<glyph name="Ia-cy" format="2">
	<unicode hex="042F"/>
	<advance width="696"/>
	<outline>
		<contour>
			<point x="499" y="707" type="line"/>
			<point x="471" y="30" type="line"/>
			<point x="387" y="18" type="line"/>
			<point x="384" y="0" type="line"/>
			<point x="650" y="0" type="line"/>
			<point x="652" y="18" type="line"/>
			<point x="559" y="30" type="line"/>
			<point x="585" y="698" type="line"/>
			<point x="674" y="713" type="line"/>
			<point x="676" y="730" type="line"/>
			<point x="423" y="730" type="line" smooth="yes"/>
			<point x="252" y="730"/>
			<point x="159" y="659"/>
			<point x="159" y="534" type="curve" smooth="yes"/>
			<point x="159" y="433"/>
			<point x="232" y="361"/>
			<point x="350" y="343" type="curve"/>
			<point x="350" y="341" type="line"/>
			<point x="287" y="320"/>
			<point x="257" y="292"/>
			<point x="198" y="180" type="curve" smooth="yes"/>
			<point x="127" y="45"/>
			<point x="105" y="26"/>
			<point x="69" y="26" type="curve" smooth="yes"/>
			<point x="51" y="26"/>
			<point x="36" y="30"/>
			<point x="14" y="44" type="curve"/>
			<point x="3" y="31" type="line"/>
			<point x="29" y="4"/>
			<point x="67" y="-14"/>
			<point x="104" y="-14" type="curve" smooth="yes"/>
			<point x="167" y="-14"/>
			<point x="221" y="19"/>
			<point x="280" y="144" type="curve" smooth="yes"/>
			<point x="329" y="248"/>
			<point x="375" y="332"/>
			<point x="411" y="336" type="curve" smooth="yes"/>
			<point x="449" y="340" type="line"/>
			<point x="451" y="364" type="line"/>
			<point x="437" y="360"/>
			<point x="427" y="359"/>
			<point x="398" y="359" type="curve" smooth="yes"/>
			<point x="315" y="359"/>
			<point x="255" y="430"/>
			<point x="255" y="529" type="curve" smooth="yes"/>
			<point x="255" y="640"/>
			<point x="325" y="707"/>
			<point x="434" y="707" type="curve" smooth="yes"/>
		</contour>
	</outline>
	<anchor name="top" x="438" y="730"/>
</glyph>
<glyph name="ve-cy" format="2">
	<unicode hex="0432"/>
	<advance width="481"/>
	<outline>
		<contour>
			<point x="230" y="-14" type="curve" smooth="yes"/>
			<point x="337" y="-14"/>
			<point x="442" y="74"/>
			<point x="442" y="175" type="curve" smooth="yes"/>
			<point x="442" y="256"/>
			<point x="374" y="284"/>
			<point x="281" y="278" type="curve"/>
			<point x="281" y="284" type="line"/>
			<point x="369" y="300"/>
			<point x="425" y="349"/>
			<point x="425" y="425" type="curve" smooth="yes"/>
			<point x="425" y="494"/>
			<point x="359" y="527"/>
			<point x="289" y="527" type="curve" smooth="yes"/>
			<point x="136" y="527"/>
			<point x="46" y="382"/>
			<point x="46" y="205" type="curve" smooth="yes"/>
			<point x="46" y="48"/>
			<point x="124" y="-14"/>
		</contour>
		<contour>
			<point x="247" y="12" type="curve" smooth="yes"/>
			<point x="184" y="12"/>
			<point x="148" y="63"/>
			<point x="138" y="163" type="curve" smooth="yes"/>
			<point x="136" y="188"/>
			<point x="135" y="215"/>
			<point x="136" y="245" type="curve"/>
			<point x="182" y="254"/>
			<point x="220" y="260"/>
			<point x="254" y="260" type="curve" smooth="yes"/>
			<point x="312" y="260"/>
			<point x="354" y="227"/>
			<point x="354" y="158" type="curve" smooth="yes"/>
			<point x="354" y="86"/>
			<point x="317" y="12"/>
		</contour>
		<contour>
			<point x="137" y="267" type="line"/>
			<point x="146" y="407"/>
			<point x="192" y="505"/>
			<point x="275" y="505" type="curve" smooth="yes"/>
			<point x="317" y="505"/>
			<point x="337" y="474"/>
			<point x="337" y="418" type="curve" smooth="yes"/>
			<point x="337" y="332"/>
			<point x="279" y="294"/>
			<point x="222" y="283" type="curve" smooth="yes"/>
		</contour>
	</outline>
</glyph>
<glyph name="ze-cy" format="2">
	<unicode hex="0437"/>
	<advance width="445"/>
	<outline>
		<contour>
			<point x="187" y="-14" type="curve" smooth="yes"/>
			<point x="308" y="-14"/>
			<point x="405" y="58"/>
			<point x="405" y="169" type="curve" smooth="yes"/>
			<point x="405" y="246"/>
			<point x="338" y="277"/>
			<point x="242" y="271" type="curve"/>
			<point x="242" y="275" type="line"/>
			<point x="330" y="291"/>
			<point x="388" y="343"/>
			<point x="388" y="421" type="curve" smooth="yes"/>
			<point x="388" y="489"/>
			<point x="325" y="527"/>
			<point x="241" y="527" type="curve" smooth="yes"/>
			<point x="141" y="527"/>
			<point x="93" y="462"/>
			<point x="69" y="429" type="curve"/>
			<point x="81" y="419" type="line"/>
			<point x="116" y="468"/>
			<point x="156" y="499"/>
			<point x="216" y="499" type="curve" smooth="yes"/>
			<point x="271" y="499"/>
			<point x="299" y="469"/>
			<point x="299" y="410" type="curve" smooth="yes"/>
			<point x="299" y="326"/>
			<point x="240" y="284"/>
			<point x="184" y="281" type="curve" smooth="yes"/>
			<point x="129" y="278" type="line"/>
			<point x="127" y="257" type="line"/>
			<point x="185" y="257" type="line" smooth="yes"/>
			<point x="262" y="257"/>
			<point x="316" y="230"/>
			<point x="316" y="152" type="curve" smooth="yes"/>
			<point x="316" y="71"/>
			<point x="269" y="4"/>
			<point x="193" y="4" type="curve" smooth="yes"/>
			<point x="138" y="4"/>
			<point x="118" y="26"/>
			<point x="130" y="87" type="curve" smooth="yes"/>
			<point x="139" y="133" type="line"/>
			<point x="123" y="144"/>
			<point x="108" y="149"/>
			<point x="89" y="149" type="curve" smooth="yes"/>
			<point x="58" y="149"/>
			<point x="36" y="128"/>
			<point x="36" y="92" type="curve" smooth="yes"/>
			<point x="36" y="22"/>
			<point x="100" y="-14"/>
		</contour>
	</outline>
</glyph>
<glyph name="el-cy" format="2">
	<unicode hex="043B"/>
	<advance width="550"/>
	<outline>
		<contour>
			<point x="107" y="459" type="curve"/>
			<point x="113" y="448" type="line"/>
			<point x="134" y="458"/>
			<point x="183" y="470"/>
			<point x="209" y="471" type="curve"/>
			<point x="194" y="354"/>
			<point x="169" y="205"/>
			<point x="153" y="151" type="curve" smooth="yes"/>
			<point x="139" y="105"/>
			<point x="130" y="78"/>
			<point x="113" y="59" type="curve"/>
			<point x="58" y="113" type="line"/>
			<point x="33" y="104"/>
			<point x="9" y="76"/>
			<point x="9" y="47" type="curve" smooth="yes"/>
			<point x="9" y="11"/>
			<point x="36" y="-14"/>
			<point x="70" y="-14" type="curve" smooth="yes"/>
			<point x="115" y="-14"/>
			<point x="150" y="31"/>
			<point x="177" y="135" type="curve" smooth="yes"/>
			<point x="199" y="221"/>
			<point x="223" y="368"/>
			<point x="236" y="472" type="curve"/>
			<point x="279" y="472"/>
			<point x="333" y="469"/>
			<point x="367" y="455" type="curve"/>
			<point x="343" y="69" type="line" smooth="yes"/>
			<point x="340" y="14"/>
			<point x="362" y="-14"/>
			<point x="415" y="-14" type="curve" smooth="yes"/>
			<point x="456" y="-14"/>
			<point x="505" y="14"/>
			<point x="528" y="35" type="curve"/>
			<point x="520" y="46" type="line"/>
			<point x="501" y="31"/>
			<point x="477" y="17"/>
			<point x="453" y="17" type="curve" smooth="yes"/>
			<point x="431" y="17"/>
			<point x="427" y="30"/>
			<point x="428" y="60" type="curve" smooth="yes"/>
			<point x="447" y="471" type="line"/>
			<point x="435" y="503"/>
			<point x="387" y="521"/>
			<point x="316" y="521" type="curve" smooth="yes"/>
			<point x="228" y="521"/>
			<point x="157" y="494"/>
		</contour>
	</outline>
</glyph>
<glyph name="em-cy" format="2">
	<unicode hex="043C"/>
	<advance width="718"/>
	<outline>
		<contour>
			<point x="346" y="-11" type="line"/>
			<point x="523" y="434" type="line"/>
			<point x="529" y="434" type="line"/>
			<point x="529" y="69" type="line" smooth="yes"/>
			<point x="529" y="14"/>
			<point x="548" y="-14"/>
			<point x="601" y="-14" type="curve" smooth="yes"/>
			<point x="642" y="-14"/>
			<point x="688" y="11"/>
			<point x="711" y="32" type="curve"/>
			<point x="706" y="46" type="line"/>
			<point x="687" y="31"/>
			<point x="663" y="17"/>
			<point x="639" y="17" type="curve" smooth="yes"/>
			<point x="617" y="17"/>
			<point x="613" y="30"/>
			<point x="613" y="60" type="curve" smooth="yes"/>
			<point x="610" y="508" type="line"/>
			<point x="528" y="508" type="line"/>
			<point x="368" y="112" type="line"/>
			<point x="364" y="112" type="line"/>
			<point x="288" y="442" type="line" smooth="yes"/>
			<point x="275" y="500"/>
			<point x="257" y="521"/>
			<point x="207" y="521" type="curve" smooth="yes"/>
			<point x="174" y="521"/>
			<point x="123" y="499"/>
			<point x="81" y="467" type="curve"/>
			<point x="88" y="455" type="line"/>
			<point x="122" y="476"/>
			<point x="142" y="485"/>
			<point x="160" y="485" type="curve" smooth="yes"/>
			<point x="184" y="485"/>
			<point x="196" y="479"/>
			<point x="208" y="426" type="curve"/>
			<point x="181" y="379"/>
			<point x="153" y="327"/>
			<point x="122" y="269" type="curve" smooth="yes"/>
			<point x="66" y="165"/>
			<point x="45" y="116"/>
			<point x="45" y="61" type="curve" smooth="yes"/>
			<point x="45" y="17"/>
			<point x="68" y="-14"/>
			<point x="111" y="-14" type="curve" smooth="yes"/>
			<point x="148" y="-14"/>
			<point x="178" y="25"/>
			<point x="172" y="74" type="curve"/>
			<point x="135" y="71" type="line" smooth="yes"/>
			<point x="107" y="68"/>
			<point x="92" y="86"/>
			<point x="92" y="117" type="curve" smooth="yes"/>
			<point x="92" y="156"/>
			<point x="118" y="213"/>
			<point x="215" y="391" type="curve"/>
			<point x="218" y="391" type="line"/>
			<point x="312" y="-11" type="line"/>
		</contour>
	</outline>
</glyph>
<glyph name="tse-cy" format="2">
	<unicode hex="0446"/>
	<advance width="607"/>
	<outline>
		<contour>
			<point x="24" y="478" type="curve"/>
			<point x="32" y="467" type="line"/>
			<point x="49" y="482"/>
			<point x="77" y="496"/>
			<point x="100" y="496" type="curve" smooth="yes"/>
			<point x="121" y="496"/>
			<point x="127" y="483"/>
			<point x="124" y="450" type="curve" smooth="yes"/>
			<point x="100" y="162" type="line" smooth="yes"/>
			<point x="89" y="35"/>
			<point x="121" y="-14"/>
			<point x="198" y="-14" type="curve" smooth="yes"/>
			<point x="272" y="-14"/>
			<point x="313" y="30"/>
			<point x="349" y="140" type="curve" smooth="yes"/>
			<point x="422" y="362" type="line"/>
			<point x="426" y="361" type="line"/>
			<point x="392" y="88" type="line" smooth="yes"/>
			<point x="383" y="18"/>
			<point x="407" y="-14"/>
			<point x="454" y="-14" type="curve" smooth="yes"/>
			<point x="480" y="-14"/>
			<point x="505" y="-4"/>
			<point x="523" y="12" type="curve"/>
			<point x="526" y="11" type="line"/>
			<point x="518" y="-56"/>
			<point x="501" y="-115"/>
			<point x="464" y="-186" type="curve"/>
			<point x="473" y="-194" type="line"/>
			<point x="549" y="-107"/>
			<point x="577" y="-35"/>
			<point x="597" y="68" type="curve"/>
			<point x="555" y="80" type="line"/>
			<point x="541" y="48"/>
			<point x="524" y="20"/>
			<point x="495" y="20" type="curve" smooth="yes"/>
			<point x="481" y="20"/>
			<point x="472" y="28"/>
			<point x="474" y="63" type="curve" smooth="yes"/>
			<point x="499" y="513" type="line"/>
			<point x="447" y="513" type="line"/>
			<point x="326" y="147" type="line" smooth="yes"/>
			<point x="301" y="70"/>
			<point x="271" y="32"/>
			<point x="227" y="32" type="curve" smooth="yes"/>
			<point x="180" y="32"/>
			<point x="177" y="66"/>
			<point x="185" y="156" type="curve" smooth="yes"/>
			<point x="210" y="444" type="line" smooth="yes"/>
			<point x="215" y="499"/>
			<point x="191" y="527"/>
			<point x="141" y="527" type="curve" smooth="yes"/>
			<point x="102" y="527"/>
			<point x="53" y="504"/>
		</contour>
	</outline>
</glyph>
<glyph name="che-cy" format="2">
	<unicode hex="0447"/>
	<advance width="535"/>
	<outline>
		<contour>
			<point x="-10" y="478" type="curve"/>
			<point x="-2" y="467" type="line"/>
			<point x="15" y="482"/>
			<point x="43" y="496"/>
			<point x="66" y="496" type="curve" smooth="yes"/>
			<point x="87" y="496"/>
			<point x="93" y="483"/>
			<point x="90" y="450" type="curve" smooth="yes"/>
			<point x="85" y="390"/>
			<point x="69" y="319"/>
			<point x="69" y="264" type="curve" smooth="yes"/>
			<point x="69" y="193"/>
			<point x="105" y="147"/>
			<point x="171" y="147" type="curve" smooth="yes"/>
			<point x="248" y="147"/>
			<point x="315" y="222"/>
			<point x="384" y="382" type="curve"/>
			<point x="388" y="381" type="line"/>
			<point x="334" y="88" type="line" smooth="yes"/>
			<point x="321" y="19"/>
			<point x="351" y="-14"/>
			<point x="407" y="-14" type="curve" smooth="yes"/>
			<point x="438" y="-14"/>
			<point x="483" y="1"/>
			<point x="513" y="19" type="curve"/>
			<point x="507" y="32" type="line"/>
			<point x="482" y="21"/>
			<point x="460" y="14"/>
			<point x="444" y="14" type="curve" smooth="yes"/>
			<point x="422" y="14"/>
			<point x="412" y="28"/>
			<point x="416" y="63" type="curve" smooth="yes"/>
			<point x="464" y="513" type="line"/>
			<point x="412" y="513" type="line"/>
			<point x="345" y="330"/>
			<point x="263" y="193"/>
			<point x="196" y="193" type="curve" smooth="yes"/>
			<point x="155" y="193"/>
			<point x="148" y="227"/>
			<point x="154" y="281" type="curve" smooth="yes"/>
			<point x="163" y="359"/>
			<point x="171" y="402"/>
			<point x="176" y="444" type="curve" smooth="yes"/>
			<point x="183" y="499"/>
			<point x="157" y="527"/>
			<point x="107" y="527" type="curve" smooth="yes"/>
			<point x="68" y="527"/>
			<point x="19" y="504"/>
		</contour>
	</outline>
</glyph>
<glyph name="yeru-cy" format="2">
	<unicode hex="044B"/>
	<advance width="711"/>
	<outline>
		<contour>
			<point x="231" y="-14" type="curve" smooth="yes"/>
			<point x="358" y="-14"/>
			<point x="437" y="91"/>
			<point x="437" y="194" type="curve" smooth="yes"/>
			<point x="437" y="272"/>
			<point x="398" y="313"/>
			<point x="313" y="313" type="curve" smooth="yes"/>
			<point x="263" y="313"/>
			<point x="221" y="299"/>
			<point x="188" y="284" type="curve"/>
			<point x="196" y="337"/>
			<point x="204" y="391"/>
			<point x="210" y="444" type="curve" smooth="yes"/>
			<point x="216" y="499"/>
			<point x="191" y="527"/>
			<point x="141" y="527" type="curve" smooth="yes"/>
			<point x="102" y="527"/>
			<point x="53" y="504"/>
			<point x="24" y="478" type="curve"/>
			<point x="32" y="467" type="line"/>
			<point x="49" y="482"/>
			<point x="77" y="496"/>
			<point x="100" y="496" type="curve" smooth="yes"/>
			<point x="121" y="496"/>
			<point x="128" y="483"/>
			<point x="124" y="450" type="curve" smooth="yes"/>
			<point x="112" y="354"/>
			<point x="88" y="195"/>
			<point x="88" y="131" type="curve" smooth="yes"/>
			<point x="88" y="36"/>
			<point x="142" y="-14"/>
		</contour>
		<contour>
			<point x="240" y="8" type="curve" smooth="yes"/>
			<point x="191" y="8"/>
			<point x="170" y="48"/>
			<point x="170" y="105" type="curve" smooth="yes"/>
			<point x="170" y="155"/>
			<point x="179" y="220"/>
			<point x="185" y="263" type="curve"/>
			<point x="218" y="279"/>
			<point x="246" y="286"/>
			<point x="274" y="286" type="curve" smooth="yes"/>
			<point x="338" y="286"/>
			<point x="350" y="245"/>
			<point x="350" y="192" type="curve" smooth="yes"/>
			<point x="350" y="95"/>
			<point x="310" y="8"/>
		</contour>
		<contour>
			<point x="560" y="-14" type="curve" smooth="yes"/>
			<point x="601" y="-14"/>
			<point x="650" y="14"/>
			<point x="673" y="35" type="curve"/>
			<point x="665" y="46" type="line"/>
			<point x="646" y="31"/>
			<point x="622" y="17"/>
			<point x="598" y="17" type="curve" smooth="yes"/>
			<point x="576" y="17"/>
			<point x="571" y="30"/>
			<point x="573" y="60" type="curve" smooth="yes"/>
			<point x="607" y="508" type="line"/>
			<point x="526" y="508" type="line"/>
			<point x="488" y="69" type="line" smooth="yes"/>
			<point x="483" y="14"/>
			<point x="507" y="-14"/>
		</contour>
	</outline>
	<anchor name="top" x="362" y="550"/>
</glyph>
<glyph name="ereversed-cy" format="2">
	<unicode hex="044D"/>
	<advance width="481"/>
	<outline>
		<contour>
			<point x="137" y="87" type="curve" smooth="yes"/>
			<point x="146" y="133" type="line"/>
			<point x="130" y="144"/>
			<point x="115" y="149"/>
			<point x="96" y="149" type="curve" smooth="yes"/>
			<point x="65" y="149"/>
			<point x="43" y="128"/>
			<point x="43" y="92" type="curve" smooth="yes"/>
			<point x="43" y="22"/>
			<point x="107" y="-14"/>
			<point x="194" y="-14" type="curve" smooth="yes"/>
			<point x="345" y="-14"/>
			<point x="434" y="116"/>
			<point x="434" y="288" type="curve" smooth="yes"/>
			<point x="434" y="425"/>
			<point x="365" y="527"/>
			<point x="238" y="527" type="curve" smooth="yes"/>
			<point x="140" y="527"/>
			<point x="87" y="460"/>
			<point x="66" y="428" type="curve"/>
			<point x="78" y="418" type="line"/>
			<point x="114" y="466"/>
			<point x="157" y="501"/>
			<point x="218" y="501" type="curve" smooth="yes"/>
			<point x="303" y="501"/>
			<point x="344" y="428"/>
			<point x="344" y="279" type="curve"/>
			<point x="116" y="279" type="line"/>
			<point x="114" y="257" type="line"/>
			<point x="344" y="257" type="line"/>
			<point x="339" y="87"/>
			<point x="286" y="4"/>
			<point x="200" y="4" type="curve" smooth="yes"/>
			<point x="145" y="4"/>
			<point x="125" y="26"/>
		</contour>
	</outline>
	<anchor name="top" x="236" y="550"/>
</glyph>
